<?xml version="1.0" encoding="UTF-8" standalone="no"?>
<!-- Generator: Adobe Illustrator 19.0.0, SVG Export Plug-In . SVG Version: 6.00 Build 0)  -->

<svg
   xmlns:dc="http://purl.org/dc/elements/1.1/"
   xmlns:cc="http://creativecommons.org/ns#"
   xmlns:rdf="http://www.w3.org/1999/02/22-rdf-syntax-ns#"
   xmlns:svg="http://www.w3.org/2000/svg"
   xmlns="http://www.w3.org/2000/svg"
   xmlns:sodipodi="http://sodipodi.sourceforge.net/DTD/sodipodi-0.dtd"
   xmlns:inkscape="http://www.inkscape.org/namespaces/inkscape"
   version="1.1"
   id="Layer_1"
   x="0px"
   y="0px"
   viewBox="0 0 489.4 489.4"
   style="enable-background:new 0 0 489.4 489.4;"
   xml:space="preserve"
   inkscape:version="0.91 r13725"
   sodipodi:docname="005-login.svg"><metadata
     id="metadata43"><rdf:RDF><cc:Work
         rdf:about=""><dc:format>image/svg+xml</dc:format><dc:type
           rdf:resource="http://purl.org/dc/dcmitype/StillImage" /></cc:Work></rdf:RDF></metadata><defs
     id="defs41" /><sodipodi:namedview
     pagecolor="#ffffff"
     bordercolor="#666666"
     borderopacity="1"
     objecttolerance="10"
     gridtolerance="10"
     guidetolerance="10"
     inkscape:pageopacity="0"
     inkscape:pageshadow="2"
     inkscape:window-width="664"
     inkscape:window-height="480"
     id="namedview39"
     showgrid="false"
     inkscape:zoom="0.48222314"
     inkscape:cx="244.7"
     inkscape:cy="244.7"
     inkscape:window-x="0"
     inkscape:window-y="0"
     inkscape:window-maximized="0"
     inkscape:current-layer="Layer_1" /><g
     id="g3"
     transform="matrix(0,1,-1,0,489.4,0)"><g
       id="g5"><path
         d="M 407,0 82.4,0 C 37,0 0,37 0,82.6 l 0,162.1 c 0,9.9 8.1,18 18,18 l 276.7,0 -39.7,39.7 c -7,7 -7,18.4 0,25.5 3.5,3.5 8.1,5.3 12.7,5.3 4.6,0 9.2,-1.8 12.7,-5.3 l 70.4,-70.4 c 7,-7 7,-18.4 0,-25.5 l -70.4,-70.4 c -7,-7 -18.4,-7 -25.5,0 -7,7 -7,18.4 0,25.5 l 39.8,39.6 -258.7,0 0,-144.1 C 36,56.9 56.8,36 82.4,36 L 407,36 c 25.6,0 46.4,20.9 46.4,46.6 l 0,324.2 c 0,25.7 -20.8,46.6 -46.4,46.6 l -324.6,0 C 56.8,453.4 36,432.5 36,406.8 l 0,-42 c 0,-9.9 -8.1,-18 -18,-18 -9.9,0 -18,8.1 -18,18 l 0,42 c 0,45.5 37,82.6 82.4,82.6 l 324.6,0 c 45.4,0 82.4,-37 82.4,-82.6 l 0,-324.2 C 489.4,37.1 452.4,0 407,0 Z"
         id="path7"
         inkscape:connector-curvature="0" /></g></g><g
     id="g9" /><g
     id="g11" /><g
     id="g13" /><g
     id="g15" /><g
     id="g17" /><g
     id="g19" /><g
     id="g21" /><g
     id="g23" /><g
     id="g25" /><g
     id="g27" /><g
     id="g29" /><g
     id="g31" /><g
     id="g33" /><g
     id="g35" /><g
     id="g37" /></svg>