<svg height="512pt" viewBox="0 -1 512.00054 512" width="512pt" xmlns="http://www.w3.org/2000/svg"><path d="m509.242188 176.460938c-3.28125-4.621094-8.890626-7-14.484376-6.140626l-79.28125 12.128907-1.222656-24.058594c-.285156-5.628906-3.707031-10.617187-8.847656-12.914063-5.140625-2.300781-11.140625-1.519531-15.523438 2.019532l-47.0625 38.007812 6.019532-106.550781c.316406-5.601563-2.527344-10.914063-7.363282-13.757813-4.835937-2.84375-10.855468-2.746093-15.597656.253907l-20.785156 13.140625-35.351562-70.335938c-2.542969-5.058594-7.71875-8.253906-13.382813-8.253906h-.71875c-5.660156 0-10.839844 3.191406-13.382813 8.253906l-35.351562 70.335938-20.78125-13.140625c-4.742188-3-10.765625-3.097657-15.601562-.253907-4.835938 2.847657-7.675782 8.15625-7.363282 13.757813l6.019532 106.550781-47.0625-38.007812c-4.378907-3.539063-10.378907-4.320313-15.523438-2.019532-5.140625 2.296876-8.558594 7.285157-8.847656 12.914063l-1.222656 24.058594-79.28125-12.128907c-5.597657-.859374-11.203126 1.519532-14.480469 6.140626-3.277344 4.621093-3.667969 10.699218-1.007813 15.699218l36.683594 68.953125-21.320312 8.1875c-5.359376 2.058594-9.070313 6.996094-9.554688 12.714844-.488281 5.71875 2.335938 11.210937 7.269531 14.144531l119.015625 70.777344-18.4375 40.414062c-2.117187 4.640626-1.730468 10.03125 1.027344 14.320313 2.753906 4.289063 7.503906 6.878906 12.597656 6.878906h111.984375v67.128907c0 8.273437 6.707031 14.980468 14.980469 14.980468s14.980469-6.707031 14.980469-14.980468v-67.128907h111.984375c5.097656 0 9.84375-2.589843 12.597656-6.878906 2.757812-4.289063 3.144531-9.679687 1.027344-14.320313l-18.4375-40.414062 119.015625-70.777344c4.933593-2.933594 7.757812-8.425781 7.269531-14.144531-.484375-5.71875-4.195312-10.65625-9.554688-12.714844l-21.320312-8.1875 36.683594-68.953125c2.660156-5 2.273437-11.078125-1.003906-15.699218zm-70.078126 85.53125c-2.015624 3.785156-2.3125 8.257812-.808593 12.277343 1.5 4.019531 4.652343 7.199219 8.660156 8.738281l8.296875 3.1875-104.023438 61.859376c-6.570312 3.910156-9.144531 12.136718-5.96875 19.09375l14.34375 31.441406h-88.683593v-31.304688l64.121093-42.652344c6.886719-4.582031 8.757813-13.878906 4.175782-20.765624-4.582032-6.890626-13.882813-8.761719-20.769532-4.175782l-47.527343 31.613282v-45.1875c0-8.273438-6.707031-14.980469-14.980469-14.980469s-14.980469 6.707031-14.980469 14.980469v45.1875l-47.527343-31.613282c-6.886719-4.582031-16.183594-2.714844-20.769532 4.175782-4.578125 6.886718-2.710937 16.183593 4.179688 20.765624l64.117187 42.652344v31.304688h-88.683593l14.347656-31.441406c3.171875-6.957032.597656-15.183594-5.972656-19.09375l-104.023438-61.859376 8.296875-3.183593c4.007813-1.539063 7.160156-4.722657 8.660156-8.742188 1.503907-4.019531 1.210938-8.488281-.804687-12.277343l-30.613282-57.542969 66.148438 10.117187c4.1875.644532 8.449219-.519531 11.730469-3.199218 3.285156-2.675782 5.277343-6.617188 5.496093-10.84375l.570313-11.242188 50.453125 40.75c4.605469 3.722656 10.972656 4.378906 16.246094 1.675781 5.269531-2.703125 8.453125-8.261719 8.121094-14.171875l-6.28125-111.207031 10.148437 6.417969c3.574219 2.261718 7.933594 2.90625 12.011719 1.773437 4.074218-1.128906 7.480468-3.929687 9.378906-7.707031l29.75-59.191406 29.75 59.191406c1.898438 3.777344 5.304688 6.578125 9.378906 7.707031 4.078125 1.132813 8.4375.484375 12.011719-1.773437l10.148437-6.417969-6.28125 111.207031c-.332031 5.914063 2.851563 11.46875 8.121094 14.171875 5.269532 2.703125 11.636719 2.042969 16.246094-1.675781l50.453125-40.75.574219 11.242188c.214844 4.226562 2.210937 8.167968 5.492187 10.84375 3.28125 2.679687 7.546875 3.84375 11.730469 3.199218l66.152344-10.117187zm0 0"/></svg>