<svg height="512pt" viewBox="0 0 512 512" width="512pt" xmlns="http://www.w3.org/2000/svg"><path d="m256 428.066406c-94.878906 0-172.066406-77.1875-172.066406-172.066406s77.1875-172.066406 172.066406-172.066406 172.066406 77.1875 172.066406 172.066406-77.1875 172.066406-172.066406 172.066406zm0-312.65625c-77.523438 0-140.589844 63.066406-140.589844 140.589844s63.066406 140.589844 140.589844 140.589844 140.589844-63.066406 140.589844-140.589844-63.066406-140.589844-140.589844-140.589844zm0 0"/><path d="m496.261719 271.738281h-30.425781c-8.691407 0-15.738282-7.046875-15.738282-15.738281s7.046875-15.738281 15.738282-15.738281h30.425781c8.691406 0 15.738281 7.046875 15.738281 15.738281s-7.046875 15.738281-15.738281 15.738281zm0 0"/><path d="m46.164062 271.738281h-30.425781c-8.691406 0-15.738281-7.046875-15.738281-15.738281s7.046875-15.738281 15.738281-15.738281h30.425781c8.691407 0 15.738282 7.046875 15.738282 15.738281s-7.046875 15.738281-15.738282 15.738281zm0 0"/><path d="m393.25 118.75c-6.148438-6.144531-6.148438-16.109375 0-22.253906l21.511719-21.515625c6.144531-6.144531 16.113281-6.144531 22.257812 0s6.144531 16.109375 0 22.257812l-21.515625 21.511719c-6.144531 6.148438-16.109375 6.148438-22.253906 0zm0 0"/><path d="m86.109375 441.628906c-4.027344 0-8.054687-1.535156-11.128906-4.609375-6.144531-6.144531-6.144531-16.109375 0-22.257812l21.515625-21.511719c6.144531-6.148438 16.109375-6.148438 22.257812 0 6.144532 6.144531 6.144532 16.109375 0 22.253906l-21.515625 21.515625c-3.074219 3.074219-7.101562 4.609375-11.128906 4.609375zm0 0"/><path d="m256 61.902344c-8.691406 0-15.738281-7.046875-15.738281-15.738282v-30.425781c0-8.691406 7.046875-15.738281 15.738281-15.738281s15.738281 7.046875 15.738281 15.738281v30.425781c0 8.691407-7.046875 15.738282-15.738281 15.738282zm0 0"/><path d="m256 512c-8.691406 0-15.738281-7.046875-15.738281-15.738281v-30.425781c0-8.691407 7.046875-15.738282 15.738281-15.738282s15.738281 7.046875 15.738281 15.738282v30.425781c0 8.691406-7.046875 15.738281-15.738281 15.738281zm0 0"/><path d="m414.761719 437.019531-21.511719-21.515625c-6.148438-6.144531-6.148438-16.109375 0-22.253906 6.144531-6.148438 16.109375-6.148438 22.253906 0l21.515625 21.511719c6.144531 6.148437 6.144531 16.113281 0 22.257812s-16.109375 6.148438-22.257812 0zm0 0"/><path d="m96.496094 118.75-21.515625-21.511719c-6.144531-6.148437-6.144531-16.113281 0-22.257812s16.109375-6.144531 22.257812 0l21.511719 21.515625c6.148438 6.144531 6.148438 16.109375 0 22.253906-6.144531 6.148438-16.109375 6.148438-22.253906 0zm0 0"/><path d="m196.195312 245.867188c-8.691406 0-15.734374-7.042969-15.734374-15.734376v-15.050781c0-8.691406 7.042968-15.738281 15.734374-15.738281 8.691407 0 15.738282 7.046875 15.738282 15.738281v15.050781c0 8.691407-7.046875 15.734376-15.738282 15.734376zm0 0"/><path d="m315.804688 245.867188c-8.691407 0-15.738282-7.042969-15.738282-15.734376v-15.050781c0-8.691406 7.046875-15.738281 15.738282-15.738281 8.691406 0 15.734374 7.046875 15.734374 15.738281v15.050781c0 8.691407-7.042968 15.734376-15.734374 15.734376zm0 0"/><path d="m243.058594 348.328125h-6.992188c-30.660156 0-55.605468-24.945313-55.605468-55.605469 0-8.691406 7.042968-15.738281 15.734374-15.738281 8.691407 0 15.738282 7.046875 15.738282 15.738281 0 13.304688 10.828125 24.128906 24.132812 24.128906h6.992188c8.691406 0 15.738281 7.046876 15.738281 15.738282s-7.046875 15.738281-15.738281 15.738281zm0 0"/></svg>