<svg height="512pt" viewBox="0 0 512 512" width="512pt" xmlns="http://www.w3.org/2000/svg"><path d="m512 256c0-8.535156-4.054688-24.527344-31.214844-35.746094-5.039062-2.082031-10.574218-3.867187-16.476562-5.335937 4.902344-3.601563 9.347656-7.351563 13.21875-11.191407 20.863281-20.691406 18.542968-37.027343 15.304687-44.921874-3.242187-7.894532-13.0625-21.152344-42.449219-21.222657-.074218 0-.152343 0-.226562 0-5.878906 0-12.160156.546875-18.679688 1.582031 3.511719-5.691406 6.46875-11.34375 8.75-16.835937 11.269532-27.136719 2.828126-41.3125-3.207031-47.347656-6.035156-6.035157-20.210937-14.476563-47.351562-3.207031-5.035157 2.089843-10.207031 4.746093-15.421875 7.878906.921875-6.011719 1.410156-11.804688 1.433594-17.257813.121093-29.386719-13.070313-39.296875-20.945313-42.589843-7.871094-3.289063-24.191406-5.71875-45.019531 15.011718-4.210938 4.195313-8.320313 9.078125-12.25 14.488282-1.539063-6.507813-3.449219-12.597657-5.71875-18.089844-11.21875-27.160156-27.210938-31.214844-35.746094-31.214844s-24.527344 4.054688-35.746094 31.214844c-2.082031 5.039062-3.867187 10.574218-5.335937 16.476562-3.601563-4.902344-7.351563-9.347656-11.191407-13.21875-20.691406-20.867187-37.027343-18.542968-44.921874-15.304687-7.894532 3.242187-21.152344 13.0625-21.222657 42.449219-.011719 5.945312.535157 12.304687 1.582031 18.90625-5.691406-3.511719-11.34375-6.46875-16.835937-8.75-27.140625-11.265626-41.3125-2.828126-47.347656 3.207031-6.035157 6.035156-14.476563 20.210937-3.207031 47.351562 2.089843 5.035157 4.746093 10.207031 7.878906 15.421875-6.011719-.921875-11.804688-1.410156-17.257813-1.433594-.136719 0-.273437 0-.40625 0-29.070312 0-38.902343 13.105469-42.183593 20.945313-3.289063 7.875-5.71875 24.191406 15.011718 45.019531 4.195313 4.214844 9.078125 8.324219 14.488282 12.25-6.507813 1.539063-12.597657 3.449219-18.089844 5.71875-27.160156 11.21875-31.214844 27.210938-31.214844 35.746094s4.054688 24.527344 31.214844 35.746094c5.039062 2.082031 10.574218 3.867187 16.476562 5.335937-4.902344 3.601563-9.347656 7.351563-13.21875 11.191407-20.863281 20.691406-18.542968 37.027343-15.304687 44.921874 3.242187 7.894532 13.0625 21.152344 42.449219 21.222657h.226562c5.878906 0 12.160156-.546875 18.679688-1.582031-3.511719 5.691406-6.46875 11.34375-8.75 16.835937-11.269532 27.136719-2.828126 41.3125 3.207031 47.347656 3.878906 3.878907 11.113281 8.746094 22.984375 8.746094 6.609375 0 14.660156-1.507813 24.363281-5.539063 5.035156-2.089843 10.210937-4.746093 15.425781-7.878906-.921875 6.011719-1.410156 11.804688-1.433594 17.257813-.125 29.386719 13.066407 39.296875 20.941407 42.589843 2.734375 1.144532 6.492187 2.183594 11.101562 2.183594 8.65625 0 20.332031-3.667968 33.921875-17.195312 4.210938-4.195313 8.320313-9.074219 12.25-14.488282 1.539063 6.507813 3.445313 12.597657 5.714844 18.089844 11.222656 27.160156 27.214844 31.214844 35.75 31.214844s24.527344-4.054688 35.746094-31.214844c2.082031-5.039062 3.867187-10.574218 5.335937-16.476562 3.601563 4.902344 7.351563 9.347656 11.191407 13.21875 13.605468 13.71875 25.328124 17.414062 34.007812 17.414062 4.519531 0 8.210938-1 10.914062-2.109375 7.894532-3.242187 21.152344-13.0625 21.222657-42.449219.011719-5.945312-.535157-12.304687-1.582031-18.90625 5.691406 3.511719 11.34375 6.46875 16.835937 8.75 9.707031 4.027344 17.753906 5.539063 24.363281 5.539063 11.871094 0 19.109375-4.871094 22.984375-8.746094 6.035157-6.035156 14.476563-20.210937 3.207031-47.351562-2.09375-5.035157-4.746093-10.207031-7.882812-15.421875 6.015625.921875 11.808594 1.410156 17.261719 1.433594h.40625c29.066406 0 38.902343-13.105469 42.179687-20.945313 3.292969-7.875 5.71875-24.191406-15.011718-45.019531-4.191407-4.214844-9.074219-8.324219-14.484376-12.25 6.507813-1.539063 12.597657-3.449219 18.089844-5.71875 27.160156-11.21875 31.214844-27.210938 31.214844-35.746094zm-96.335938 159.664062c-1.953124.382813-7.722656.152344-17.734374-4.589843-11.527344-5.460938-24.230469-14.820313-35.765626-26.355469-6.871093-6.867188-12.960937-14.152344-17.921874-21.355469 6.976562-5.742187 13.378906-12.144531 19.121093-19.121093 7.203125 4.960937 14.488281 11.050781 21.355469 17.921874 11.535156 11.535157 20.894531 24.234376 26.355469 35.765626 4.742187 10.011718 4.976562 15.78125 4.589843 17.734374zm-143.714843 6.425782c0 16.3125-2.363281 31.910156-6.652344 43.921875-3.730469 10.4375-7.640625 14.679687-9.296875 15.789062-1.65625-1.109375-5.566406-5.351562-9.296875-15.789062-4.289063-12.011719-6.652344-27.609375-6.652344-43.921875 0-9.695313.839844-19.128906 2.417969-27.714844 4.453125.433594 8.964844.660156 13.53125.660156s9.078125-.226562 13.53125-.660156c1.578125 8.585938 2.417969 18.019531 2.417969 27.714844zm-175.613281-6.425782c-.386719-1.953124-.152344-7.722656 4.589843-17.734374 5.460938-11.527344 14.820313-24.230469 26.355469-35.765626 6.867188-6.871093 14.152344-12.960937 21.351562-17.921874 5.742188 6.976562 12.148438 13.378906 19.125 19.121093-4.964843 7.203125-11.054687 14.488281-17.921874 21.355469-11.535157 11.535156-24.238282 20.894531-35.765626 26.355469-10.011718 4.742187-15.777343 4.976562-17.734374 4.589843zm-66.136719-159.664062c1.109375-1.65625 5.351562-5.566406 15.789062-9.296875 12.011719-4.289063 27.609375-6.652344 43.921875-6.652344 9.695313 0 19.128906.839844 27.714844 2.417969-.433594 4.453125-.660156 8.964844-.660156 13.53125s.226562 9.078125.660156 13.53125c-8.585938 1.578125-18.019531 2.417969-27.714844 2.417969-16.3125 0-31.910156-2.363281-43.921875-6.652344-10.4375-3.730469-14.679687-7.640625-15.789062-9.296875zm66.136719-159.664062c1.953124-.382813 7.722656-.152344 17.734374 4.589843 11.527344 5.460938 24.230469 14.820313 35.765626 26.355469 6.871093 6.867188 12.960937 14.152344 17.921874 21.355469-6.976562 5.742187-13.378906 12.144531-19.121093 19.121093-7.203125-4.960937-14.488281-11.050781-21.355469-17.921874-11.535156-11.535157-20.894531-24.234376-26.355469-35.765626-4.742187-10.011718-4.976562-15.78125-4.589843-17.734374zm143.714843-6.425782c0-16.3125 2.363281-31.910156 6.652344-43.921875 3.730469-10.4375 7.640625-14.679687 9.296875-15.789062 1.65625 1.109375 5.566406 5.351562 9.296875 15.789062 4.289063 12.011719 6.652344 27.609375 6.652344 43.921875 0 9.695313-.839844 19.128906-2.417969 27.714844-4.453125-.433594-8.964844-.660156-13.53125-.660156s-9.078125.226562-13.53125.660156c-1.578125-8.585938-2.417969-18.019531-2.417969-27.714844zm175.613281 6.425782c.386719 1.953124.152344 7.722656-4.589843 17.734374-5.460938 11.527344-14.820313 24.230469-26.355469 35.765626-6.867188 6.871093-14.152344 12.960937-21.351562 17.921874-5.742188-6.976562-12.148438-13.378906-19.125-19.121093 4.964843-7.203125 11.054687-14.488281 17.921874-21.355469 11.535157-11.535156 24.238282-20.894531 35.765626-26.355469 10.011718-4.742187 15.777343-4.976562 17.734374-4.589843zm-159.664062 268.699218c-60.121094 0-109.035156-48.914062-109.035156-109.035156s48.914062-109.035156 109.035156-109.035156 109.035156 48.914062 109.035156 109.035156-48.914062 109.035156-109.035156 109.035156zm166.089844-93.085937c-9.695313 0-19.128906-.839844-27.714844-2.417969.433594-4.453125.660156-8.964844.660156-13.53125s-.226562-9.078125-.660156-13.53125c8.585938-1.578125 18.019531-2.417969 27.714844-2.417969 16.3125 0 31.910156 2.363281 43.921875 6.652344 10.4375 3.730469 14.679687 7.640625 15.789062 9.296875-1.109375 1.65625-5.351562 5.566406-15.789062 9.296875-12.011719 4.289063-27.613281 6.652344-43.921875 6.652344zm42.804687-101.679688c-.398437 1.953125-2.839843 7.183594-11.078125 14.59375-9.484375 8.53125-23.019531 16.640625-38.109375 22.832031-2.488281 1.023438-4.980469 1.96875-7.472656 2.855469-6.902344.492188-13.605469 1.347657-19.980469 2.550781-2.28125-7.015624-5.097656-13.792968-8.414062-20.273437 4.300781-2.933594 8.589844-6.175781 12.824218-9.6875 3.519532-1.753906 7.179688-3.414063 10.933594-4.953125 15.089844-6.195312 30.417969-9.929688 43.160156-10.523438 11.070313-.515624 16.480469 1.496094 18.136719 2.605469zm-136.472656-111.617187c7.464844-8.191406 12.714844-10.597656 14.667969-10.980469 1.097656 1.65625 3.070312 7.085937 2.484375 18.148437-.671875 12.738282-4.507813 28.042969-10.800781 43.09375-1.039063 2.480469-2.128907 4.914063-3.265626 7.296876-4.539062 5.238281-8.675781 10.589843-12.335937 15.949218-6.480469-3.316406-13.257813-6.132812-20.273437-8.414062.964843-5.109375 1.707031-10.429688 2.214843-15.898438 1.25-3.730468 2.664063-7.492187 4.230469-11.238281 6.292969-15.046875 14.488281-28.53125 23.078125-37.957031zm-158.152344-11.546875c1.953125.398437 7.183594 2.839843 14.59375 11.078125 8.53125 9.484375 16.640625 23.019531 22.832031 38.109375 1.023438 2.488281 1.96875 4.980469 2.855469 7.472656.492188 6.902344 1.347657 13.605469 2.550781 19.980469-7.015624 2.28125-13.792968 5.097656-20.273437 8.414062-2.933594-4.300781-6.175781-8.589844-9.6875-12.824218-1.753906-3.523438-3.414063-7.179688-4.953125-10.933594-6.195312-15.089844-9.929688-30.417969-10.523438-43.160156-.515624-11.070313 1.496094-16.480469 2.605469-18.136719zm-104.449219 119.320312c12.738282.671875 28.042969 4.507813 43.09375 10.800781 2.480469 1.039063 4.914063 2.128907 7.296876 3.265626 5.238281 4.539062 10.589843 8.675781 15.949218 12.335937-3.316406 6.480469-6.132812 13.257813-8.414062 20.273437-5.109375-.964843-10.429688-1.707031-15.898438-2.214843-3.730468-1.25-7.492187-2.664063-11.238281-4.230469-15.050781-6.289062-28.53125-14.484375-37.957031-23.078125-8.191406-7.464844-10.597656-12.710937-10.980469-14.667969 1.660156-1.097656 7.082031-3.070312 18.148437-2.484375zm-18.714843 175.304688c.398437-1.953125 2.839843-7.183594 11.078125-14.59375 9.484375-8.53125 23.019531-16.640625 38.109375-22.832031 2.488281-1.023438 4.980469-1.96875 7.472656-2.855469 6.902344-.492188 13.605469-1.347657 19.980469-2.550781 2.28125 7.015624 5.097656 13.792968 8.414062 20.273437-4.300781 2.933594-8.589844 6.175781-12.824218 9.6875-3.519532 1.753906-7.179688 3.414063-10.933594 4.953125-15.089844 6.195312-30.417969 9.929688-43.160156 10.523438-11.066407.515624-16.484376-1.496094-18.136719-2.605469zm136.472656 111.617187c-7.464844 8.191406-12.714844 10.597656-14.667969 10.980469-1.097656-1.65625-3.070312-7.085937-2.484375-18.148437.671875-12.738282 4.507813-28.042969 10.800781-43.09375 1.039063-2.480469 2.128907-4.914063 3.265626-7.296876 4.539062-5.238281 8.675781-10.589843 12.335937-15.949218 6.480469 3.316406 13.257813 6.132812 20.273437 8.414062-.964843 5.109375-1.707031 10.429688-2.214843 15.898438-1.25 3.730468-2.664063 7.492187-4.230469 11.238281-6.292969 15.046875-14.488281 28.53125-23.078125 37.957031zm158.152344 11.546875c-1.953125-.398437-7.183594-2.839843-14.59375-11.078125-8.53125-9.484375-16.640625-23.019531-22.832031-38.109375-1.023438-2.488281-1.96875-4.980469-2.855469-7.472656-.492188-6.902344-1.347657-13.605469-2.550781-19.980469 7.015624-2.28125 13.792968-5.097656 20.273437-8.414062 2.933594 4.300781 6.175781 8.589844 9.6875 12.824218 1.753906 3.519532 3.414063 7.179688 4.953125 10.933594 6.195312 15.089844 9.929688 30.417969 10.523438 43.160156.515624 11.070313-1.496094 16.480469-2.605469 18.136719zm104.449219-119.320312c-12.738282-.671875-28.042969-4.507813-43.09375-10.800781-2.480469-1.039063-4.914063-2.128907-7.296876-3.265626-5.238281-4.539062-10.589843-8.675781-15.949218-12.335937 3.316406-6.480469 6.132812-13.257813 8.414062-20.273437 5.109375.964843 10.429688 1.707031 15.898438 2.214843 3.730468 1.25 7.492187 2.664063 11.238281 4.230469 15.050781 6.289062 28.53125 14.484375 37.957031 23.078125 8.191406 7.464844 10.597656 12.710937 10.980469 14.667969-1.65625 1.097656-7.078125 3.074218-18.148437 2.484375zm0 0"/><path d="m197.703125 256c0 7.113281-5.765625 12.882812-12.882813 12.882812-7.113281 0-12.882812-5.769531-12.882812-12.882812s5.769531-12.882812 12.882812-12.882812c7.117188 0 12.882813 5.769531 12.882813 12.882812zm0 0"/><path d="m268.882812 256c0 7.113281-5.769531 12.882812-12.882812 12.882812s-12.882812-5.769531-12.882812-12.882812 5.769531-12.882812 12.882812-12.882812 12.882812 5.769531 12.882812 12.882812zm0 0"/><path d="m340.0625 256c0 7.113281-5.769531 12.882812-12.882812 12.882812-7.117188 0-12.882813-5.769531-12.882813-12.882812s5.765625-12.882812 12.882813-12.882812c7.113281 0 12.882812 5.769531 12.882812 12.882812zm0 0"/><path d="m233.292969 197.492188c0 7.113281-5.765625 12.882812-12.882813 12.882812-7.113281 0-12.882812-5.769531-12.882812-12.882812 0-7.117188 5.769531-12.882813 12.882812-12.882813 7.117188 0 12.882813 5.765625 12.882813 12.882813zm0 0"/><path d="m304.472656 197.492188c0 7.113281-5.769531 12.882812-12.882812 12.882812-7.117188 0-12.882813-5.769531-12.882813-12.882812 0-7.117188 5.765625-12.882813 12.882813-12.882813 7.113281 0 12.882812 5.765625 12.882812 12.882813zm0 0"/><path d="m233.292969 314.507812c0 7.117188-5.765625 12.882813-12.882813 12.882813-7.113281 0-12.882812-5.765625-12.882812-12.882813 0-7.113281 5.769531-12.882812 12.882812-12.882812 7.117188 0 12.882813 5.769531 12.882813 12.882812zm0 0"/><path d="m304.472656 314.507812c0 7.117188-5.769531 12.882813-12.882812 12.882813-7.117188 0-12.882813-5.765625-12.882813-12.882813 0-7.113281 5.765625-12.882812 12.882813-12.882812 7.113281 0 12.882812 5.769531 12.882812 12.882812zm0 0"/></svg>