<svg height="368pt" viewBox="0 0 368 368" width="368pt" xmlns="http://www.w3.org/2000/svg"><path d="m328 0h-288c-22.054688 0-40 17.945312-40 40v288c0 22.054688 17.945312 40 40 40h288c22.054688 0 40-17.945312 40-40v-288c0-22.054688-17.945312-40-40-40zm24 40v24h-208v-48h184c13.230469 0 24 10.769531 24 24zm-272 24v-48h48v48zm-40-48h24v48h-48v-24c0-13.230469 10.769531-24 24-24zm288 336h-288c-13.230469 0-24-10.769531-24-24v-248h336v248c0 13.230469-10.769531 24-24 24zm0 0"/><path d="m296 288h-224c-4.414062 0-8 3.574219-8 8s3.585938 8 8 8h224c4.414062 0 8-3.574219 8-8s-3.585938-8-8-8zm0 0"/><path d="m296 128h-224c-4.414062 0-8 3.574219-8 8v64c0 4.425781 3.585938 8 8 8h224c4.414062 0 8-3.574219 8-8v-64c0-4.425781-3.585938-8-8-8zm-8 64h-208v-48h208zm0 0"/><path d="m296 240h-224c-4.414062 0-8 3.574219-8 8s3.585938 8 8 8h224c4.414062 0 8-3.574219 8-8s-3.585938-8-8-8zm0 0"/></svg>