<?xml version='1.0' encoding='utf-8'?>
<!DOCTYPE svg PUBLIC '-//W3C//DTD SVG 1.1//EN' 'http://www.w3.org/Graphics/SVG/1.1/DTD/svg11.dtd'>
<svg version="1.1" xmlns="http://www.w3.org/2000/svg" viewBox="0 0 512 512" xmlns:xlink="http://www.w3.org/1999/xlink" enable-background="new 0 0 512 512">
  <g>
    <g>
      <path d="m446.6,47.6h-381.1c-30.1,0-54.5,24.4-54.5,54.4v308c0,30 24.4,54.4 54.5,54.4h381.1c30,0 54.4-24.4 54.4-54.4v-308c0-30-24.4-54.4-54.4-54.4zm-381.1,40.8h381.1c7.5,0 13.6,6.1 13.6,13.6v61.1h-408.4v-61.1c-1.42109e-14-7.5 6.1-13.6 13.7-13.6zm381.1,335.2h-381.1c-7.5,0-13.6-6.1-13.6-13.6v-206h408.3v206c0,7.5-6.1,13.6-13.6,13.6z"/>
      <path d="m245.6,358.5h-12.6c-11.3,0-20.4,9.1-20.4,20.4 0,11.3 9.1,20.4 20.4,20.4h12.6c11.3,0 20.4-9.1 20.4-20.4 0-11.3-9.1-20.4-20.4-20.4z"/>
      <path d="m329,358.5h-12.6c-11.3,0-20.4,9.1-20.4,20.4 0,11.3 9.1,20.4 20.4,20.4h12.6c11.3,0 20.4-9.1 20.4-20.4 0-11.3-9.2-20.4-20.4-20.4z"/>
      <path d="m412.3,358.5h-12.6c-11.3,0-20.4,9.1-20.4,20.4 0,11.3 9.1,20.4 20.4,20.4h12.6c11.3,0 20.4-9.1 20.4-20.4 0-11.3-9.1-20.4-20.4-20.4z"/>
      <path d="m164.6,257.6h-60.4c-11.3,0-20.4,9.1-20.4,20.4s9.1,20.4 20.4,20.4h60.4c11.3,0 20.4-9.1 20.4-20.4s-9.2-20.4-20.4-20.4z"/>
    </g>
  </g>
</svg>
