<?xml version="1.0" encoding="iso-8859-1"?>
<!-- Generator: Adobe Illustrator 19.0.0, SVG Export Plug-In . SVG Version: 6.00 Build 0)  -->
<svg version="1.1" id="Capa_1" xmlns="http://www.w3.org/2000/svg" xmlns:xlink="http://www.w3.org/1999/xlink" x="0px" y="0px"
	 viewBox="0 0 480 480" style="enable-background:new 0 0 480 480;" xml:space="preserve">
<g>
	<g>
		<path d="M443.136,347.328c-4.288-5.248-11.52-7.232-17.824-4.96C407.552,348.736,388.288,352,368,352
			c-97.024,0-176-78.976-176-176c0-58.4,28.832-112.768,77.12-145.472c5.472-3.712,8.096-10.4,6.624-16.832S268.96,2.4,262.432,1.44
			C254.944,0.352,247.488,0,240,0C107.648,0,0,107.648,0,240s107.648,240,240,240c84,0,160.416-42.688,204.352-114.208
			C447.904,360,447.424,352.608,443.136,347.328z M240,448c-114.688,0-208-93.312-208-208c0-106.816,80.96-195.104,184.704-206.688
			C180.672,71.424,160,122.272,160,176c0,114.688,93.312,208,208,208c7.936,0,15.744-0.448,23.392-1.248
			C352.608,424.192,298.432,448,240,448z"/>
	</g>
</g>
<g>
	<g>
		<path d="M464,112c-35.296,0-64-28.704-64-64c0-8.832-7.168-16-16-16c-8.832,0-16,7.168-16,16c0,35.296-28.704,64-64,64
			c-8.832,0-16,7.168-16,16c0,8.832,7.168,16,16,16c35.296,0,64,28.704,64,64c0,8.832,7.168,16,16,16c8.832,0,16-7.168,16-16
			c0-35.296,28.704-64,64-64c8.832,0,16-7.168,16-16C480,119.168,472.832,112,464,112z M384,154.976
			c-7.104-10.688-16.288-19.872-27.008-26.976c10.72-7.104,19.904-16.288,27.008-26.976c7.104,10.688,16.288,19.872,27.008,26.976
			C400.288,135.104,391.104,144.288,384,154.976z"/>
	</g>
</g>
<g>
</g>
<g>
</g>
<g>
</g>
<g>
</g>
<g>
</g>
<g>
</g>
<g>
</g>
<g>
</g>
<g>
</g>
<g>
</g>
<g>
</g>
<g>
</g>
<g>
</g>
<g>
</g>
<g>
</g>
</svg>
