<?xml version="1.0" encoding="UTF-8" standalone="no"?>
<!-- Generator: Adobe Illustrator 16.0.0, SVG Export Plug-In . SVG Version: 6.00 Build 0)  -->

<svg
   xmlns:dc="http://purl.org/dc/elements/1.1/"
   xmlns:cc="http://creativecommons.org/ns#"
   xmlns:rdf="http://www.w3.org/1999/02/22-rdf-syntax-ns#"
   xmlns:svg="http://www.w3.org/2000/svg"
   xmlns="http://www.w3.org/2000/svg"
   xmlns:sodipodi="http://sodipodi.sourceforge.net/DTD/sodipodi-0.dtd"
   xmlns:inkscape="http://www.inkscape.org/namespaces/inkscape"
   version="1.1"
   id="Capa_1"
   x="0px"
   y="0px"
   width="512px"
   height="512px"
   viewBox="0 0 431.972 431.972"
   style="enable-background:new 0 0 431.972 431.972;"
   xml:space="preserve"
   inkscape:version="0.91 r13725"
   sodipodi:docname="033-bookmark.svg"><metadata
     id="metadata41"><rdf:RDF><cc:Work
         rdf:about=""><dc:format>image/svg+xml</dc:format><dc:type
           rdf:resource="http://purl.org/dc/dcmitype/StillImage" /></cc:Work></rdf:RDF></metadata><defs
     id="defs39" /><sodipodi:namedview
     pagecolor="#ffffff"
     bordercolor="#666666"
     borderopacity="1"
     objecttolerance="10"
     gridtolerance="10"
     guidetolerance="10"
     inkscape:pageopacity="0"
     inkscape:pageshadow="2"
     inkscape:window-width="664"
     inkscape:window-height="480"
     id="namedview37"
     showgrid="false"
     inkscape:zoom="0.4609375"
     inkscape:cx="256"
     inkscape:cy="256"
     inkscape:window-x="0"
     inkscape:window-y="0"
     inkscape:window-maximized="0"
     inkscape:current-layer="Capa_1" /><g
     id="g3"
     style="fill:#000000"><path
       d="M393.146,14.279c-3.713-5.333-8.713-9.233-14.989-11.707c-3.997-1.711-8.186-2.568-12.565-2.568V0H66.378   c-4.377,0-8.562,0.857-12.56,2.568c-6.28,2.472-11.278,6.377-14.989,11.707c-3.71,5.33-5.568,11.228-5.568,17.701v368.019   c0,6.475,1.858,12.371,5.568,17.706c3.711,5.329,8.709,9.233,14.989,11.704c3.994,1.711,8.183,2.566,12.56,2.566   c8.949,0,16.844-3.142,23.698-9.418l125.91-121.062l125.91,121.065c6.663,6.081,14.562,9.127,23.695,9.127   c4.76,0,8.948-0.756,12.565-2.279c6.276-2.471,11.276-6.375,14.989-11.711c3.71-5.328,5.564-11.225,5.564-17.699V31.98   C398.71,25.507,396.852,19.609,393.146,14.279z M362.166,391.139L241.397,275.224l-25.411-24.264l-25.409,24.264L69.809,391.139   V36.549h292.357V391.139L362.166,391.139z"
       fill="#3289C7"
       id="path5"
       style="fill:#000000" /></g><g
     id="g7" /><g
     id="g9" /><g
     id="g11" /><g
     id="g13" /><g
     id="g15" /><g
     id="g17" /><g
     id="g19" /><g
     id="g21" /><g
     id="g23" /><g
     id="g25" /><g
     id="g27" /><g
     id="g29" /><g
     id="g31" /><g
     id="g33" /><g
     id="g35" /></svg>