<?xml version="1.0" encoding="UTF-8" standalone="no"?>
<!-- Generator: Adobe Illustrator 19.0.0, SVG Export Plug-In . SVG Version: 6.00 Build 0)  -->

<svg
   xmlns:dc="http://purl.org/dc/elements/1.1/"
   xmlns:cc="http://creativecommons.org/ns#"
   xmlns:rdf="http://www.w3.org/1999/02/22-rdf-syntax-ns#"
   xmlns:svg="http://www.w3.org/2000/svg"
   xmlns="http://www.w3.org/2000/svg"
   xmlns:sodipodi="http://sodipodi.sourceforge.net/DTD/sodipodi-0.dtd"
   xmlns:inkscape="http://www.inkscape.org/namespaces/inkscape"
   version="1.1"
   id="Capa_1"
   x="0px"
   y="0px"
   viewBox="0 0 486.8 486.8"
   style="enable-background:new 0 0 486.8 486.8;"
   xml:space="preserve"
   inkscape:version="0.91 r13725"
   sodipodi:docname="034-menu1.svg"><metadata
     id="metadata59"><rdf:RDF><cc:Work
         rdf:about=""><dc:format>image/svg+xml</dc:format><dc:type
           rdf:resource="http://purl.org/dc/dcmitype/StillImage" /><dc:title></dc:title></cc:Work></rdf:RDF></metadata><defs
     id="defs57" /><sodipodi:namedview
     pagecolor="#ffffff"
     bordercolor="#666666"
     borderopacity="1"
     objecttolerance="10"
     gridtolerance="10"
     guidetolerance="10"
     inkscape:pageopacity="0"
     inkscape:pageshadow="2"
     inkscape:window-width="1920"
     inkscape:window-height="1017"
     id="namedview55"
     showgrid="false"
     showguides="true"
     inkscape:guide-bbox="true"
     inkscape:object-paths="true"
     inkscape:snap-intersection-paths="true"
     inkscape:object-nodes="true"
     inkscape:snap-smooth-nodes="true"
     inkscape:zoom="1.3712178"
     inkscape:cx="147.37655"
     inkscape:cy="241.10939"
     inkscape:window-x="-8"
     inkscape:window-y="-8"
     inkscape:window-maximized="1"
     inkscape:current-layer="g5" /><g
     id="g3"><g
       id="g5"><path
         d="m 0.37918518,281.5 c 0,17.6 14.39999982,32 31.99999982,32 l 249.170815,0 c 17.6,0 32,-14.4 32,-32 l 0,-76.2 c 0,-17.6 -14.4,-32 -32,-32 l -249.170815,0 c -17.6,0 -31.99999982,14.4 -31.99999982,32 l 0,76.2 z M 24.879185,205.3 c 0,-4.1 3.4,-7.5 7.5,-7.5 l 249.170815,0 c 4.1,0 7.5,3.4 7.5,7.5 l 0,76.2 c 0,4.1 -3.4,7.5 -7.5,7.5 l -249.170815,0 c -4.1,0 -7.5,-3.4 -7.5,-7.5 l 0,-76.2 z"
         id="path13"
         inkscape:connector-curvature="0"
         sodipodi:nodetypes="cssssssscccssssssscc" /><path
         d="m 0.37918518,454.8 c 0,17.6 14.39999982,32 31.99999982,32 l 249.170815,0 c 17.6,0 32,-14.4 32,-32 l 0,-76.2 c 0,-17.6 -14.4,-32 -32,-32 l -249.170815,0 c -17.6,0 -31.99999982,14.4 -31.99999982,32 l 0,76.2 z M 24.879185,378.5 c 0,-4.1 3.4,-7.5 7.5,-7.5 L 281.55,371 c 4.1,0 7.5,3.4 7.5,7.5 l 0,76.2 c 0,4.1 -3.4,7.5 -7.5,7.5 l -249.170815,0 c -4.1,0 -7.5,-3.4 -7.5,-7.5 l 0,-76.2 z"
         id="path15"
         inkscape:connector-curvature="0"
         sodipodi:nodetypes="cssssssscccssssssscc" /><path
         d="M346.55,281.5c0,17.6,14.4,32,32,32h76.2c17.6,0,32-14.4,32-32v-76.2c0-17.6-14.4-32-32-32h-76.2c-17.6,0-32,14.4-32,32    L346.55,281.5L346.55,281.5z M371.05,205.3c0-4.1,3.4-7.5,7.5-7.5h76.2c4.1,0,7.5,3.4,7.5,7.5v76.2c0,4.1-3.4,7.5-7.5,7.5h-76.2    c-4.1,0-7.5-3.4-7.5-7.5L371.05,205.3L371.05,205.3z"
         id="path17" /><path
         d="M346.55,454.8c0,17.6,14.4,32,32,32h76.2c17.6,0,32-14.4,32-32v-76.2c0-17.6-14.4-32-32-32h-76.2c-17.6,0-32,14.4-32,32    L346.55,454.8L346.55,454.8z M371.05,378.5c0-4.1,3.4-7.5,7.5-7.5h76.2c4.1,0,7.5,3.4,7.5,7.5v76.2c0,4.1-3.4,7.5-7.5,7.5h-76.2    c-4.1,0-7.5-3.4-7.5-7.5L371.05,378.5L371.05,378.5z"
         id="path19" /><path
         d="m 0.37918518,32 0,76.2 c 0,17.6 14.39999982,32 31.99999982,32 l 249.170815,0 c 17.6,0 32,-14.4 32,-32 l 0,-76.2 c 0,-17.6 -14.4,-32 -32,-32 L 32.379185,0 C 14.679185,0 0.37918518,14.4 0.37918518,32 Z M 24.879185,32 c 0,-4.1 3.4,-7.5 7.5,-7.5 L 281.55,24.5 c 4.1,0 7.5,3.4 7.5,7.5 l 0,76.2 c 0,4.1 -3.4,7.5 -7.5,7.5 l -249.170815,0 c -4.1,0 -7.624749,-3.4019 -7.5,-7.5 l 0,-76.2 z"
         id="path21"
         inkscape:connector-curvature="0"
         sodipodi:nodetypes="ssssssssscssssssscc" /><path
         d="M378.55,140.3h76.2c17.6,0,32-14.4,32-32V32c0-17.6-14.4-32-32-32h-76.2c-17.6,0-32,14.4-32,32v76.2    C346.55,125.9,360.95,140.3,378.55,140.3z M371.05,32c0-4.1,3.4-7.5,7.5-7.5h76.2c4.1,0,7.5,3.4,7.5,7.5v76.2    c0,4.1-3.4,7.5-7.5,7.5h-76.2c-4.1,0-7.5-3.4-7.5-7.5L371.05,32L371.05,32z"
         id="path23" /></g></g><g
     id="g25" /><g
     id="g27" /><g
     id="g29" /><g
     id="g31" /><g
     id="g33" /><g
     id="g35" /><g
     id="g37" /><g
     id="g39" /><g
     id="g41" /><g
     id="g43" /><g
     id="g45" /><g
     id="g47" /><g
     id="g49" /><g
     id="g51" /><g
     id="g53" /></svg>