<svg id="g28379" xmlns="http://www.w3.org/2000/svg" width="20.002" height="20.002" viewBox="0 0 20.002 20.002">
  <g id="g28381">
    <g id="g28383">
      <path id="path28385" d="M18.465,14.473a.672.672,0,0,0-.743-.207,7.053,7.053,0,0,1-2.388.4,7.33,7.33,0,0,1-4.12-13.4A.667.667,0,0,0,10.936.06,6.472,6.472,0,0,0,10,0a10,10,0,1,0,8.515,15.243A.667.667,0,0,0,18.465,14.473ZM10,18.668A8.667,8.667,0,0,1,9.03,1.388,8.666,8.666,0,0,0,15.335,16a9.367,9.367,0,0,0,.975-.052A8.594,8.594,0,0,1,10,18.668Z" fill="#ff4e6a"/>
    </g>
  </g>
  <g id="g28387">
    <g id="g28389">
      <path id="path28391" d="M19.335,4.667A2.67,2.67,0,0,1,16.668,2a.667.667,0,1,0-1.333,0,2.67,2.67,0,0,1-2.667,2.667.667.667,0,1,0,0,1.333,2.67,2.67,0,0,1,2.667,2.667.667.667,0,1,0,1.333,0A2.67,2.67,0,0,1,19.335,6a.667.667,0,0,0,0-1.333ZM16,6.458a4.015,4.015,0,0,0-1.125-1.124A4.015,4.015,0,0,0,16,4.21a4.015,4.015,0,0,0,1.125,1.124A4.015,4.015,0,0,0,16,6.458Z" fill="#ff4e6a"/>
    </g>
  </g>
</svg>
