<?xml version="1.0" encoding="UTF-8" standalone="no"?>
<!-- Generator: Adobe Illustrator 19.0.0, SVG Export Plug-In . SVG Version: 6.00 Build 0)  -->

<svg
   xmlns:dc="http://purl.org/dc/elements/1.1/"
   xmlns:cc="http://creativecommons.org/ns#"
   xmlns:rdf="http://www.w3.org/1999/02/22-rdf-syntax-ns#"
   xmlns:svg="http://www.w3.org/2000/svg"
   xmlns="http://www.w3.org/2000/svg"
   xmlns:sodipodi="http://sodipodi.sourceforge.net/DTD/sodipodi-0.dtd"
   xmlns:inkscape="http://www.inkscape.org/namespaces/inkscape"
   version="1.1"
   id="Capa_1"
   x="0px"
   y="0px"
   viewBox="0 0 48.000001 48.000001"
   xml:space="preserve"
   inkscape:version="0.91 r13725"
   sodipodi:docname="aDB.svg"
   width="48"
   height="48"><metadata
     id="metadata59"><rdf:RDF><cc:Work
         rdf:about=""><dc:format>image/svg+xml</dc:format><dc:type
           rdf:resource="http://purl.org/dc/dcmitype/StillImage" /><dc:title></dc:title></cc:Work></rdf:RDF></metadata><defs
     id="defs57" /><sodipodi:namedview
     pagecolor="#ffffff"
     bordercolor="#666666"
     borderopacity="1"
     objecttolerance="10"
     gridtolerance="10"
     guidetolerance="10"
     inkscape:pageopacity="0"
     inkscape:pageshadow="2"
     inkscape:window-width="958"
     inkscape:window-height="1008"
     id="namedview55"
     showgrid="false"
     showguides="true"
     inkscape:guide-bbox="true"
     inkscape:object-paths="true"
     inkscape:snap-intersection-paths="true"
     inkscape:object-nodes="true"
     inkscape:snap-smooth-nodes="true"
     inkscape:zoom="2.7424356"
     inkscape:cx="15.017354"
     inkscape:cy="30.538981"
     inkscape:window-x="-7"
     inkscape:window-y="0"
     inkscape:window-maximized="0"
     inkscape:current-layer="g5" /><g
     id="g3"
     transform="translate(0,-438.79999)"><g
       id="g5"><path
         style="opacity:1;fill:#000000;fill-opacity:1;stroke:none;stroke-width:1.47463608;stroke-linecap:round;stroke-miterlimit:4;stroke-dasharray:none;stroke-dashoffset:0;stroke-opacity:1"
         d="M 23.9983,438.79999 A 23.99997,23.99997 0 0 0 0,462.79848 23.99997,23.99997 0 0 0 23.9983,486.79999 23.99997,23.99997 0 0 0 48,462.79848 23.99997,23.99997 0 0 0 23.9983,438.79999 Z m -1.7747,19.12451 c 0.8124,0 1.5481,0.0934 2.2053,0.27597 0.6662,0.18257 1.2343,0.46863 1.709,0.86121 0.4745,0.39241 0.842,0.89369 1.0976,1.50518 0.2556,0.6115 0.3813,1.34718 0.3813,2.2052 0,0.8215 -0.1257,1.53783 -0.3813,2.14949 -0.2556,0.6115 -0.6231,1.12001 -1.0976,1.52168 -0.4656,0.40149 -1.0335,0.69967 -1.709,0.90042 -0.6754,0.20091 -1.4347,0.30238 -2.2743,0.30238 -0.3833,0 -0.8298,-0.0194 -1.341,-0.0559 -0.511,-0.0274 -1.0155,-0.0902 -1.5085,-0.19065 l 0,-9.24178 c 0.493,-0.0912 1.0054,-0.1501 1.5348,-0.17736 0.5386,-0.0365 1.0003,-0.0559 1.3837,-0.0559 z m 10.0535,0 c 0.6024,0 1.1545,0.0468 1.6565,0.13799 0.5112,0.0821 0.9495,0.22716 1.3145,0.43716 0.3651,0.20984 0.6472,0.48782 0.8481,0.8348 0.2098,0.33772 0.3155,0.75991 0.3155,1.26203 0,0.75756 -0.3643,1.3529 -1.0945,1.79108 0.6025,0.22817 1.0134,0.54099 1.2325,0.9334 0.2191,0.39241 0.3286,0.83496 0.3286,1.32782 0,0.99482 -0.3675,1.74245 -1.0976,2.24474 -0.7212,0.50195 -1.7978,0.75251 -3.2308,0.75251 -0.5203,0 -1.0408,-0.0194 -1.5611,-0.0559 -0.5112,-0.0274 -1.0438,-0.0983 -1.6006,-0.2169 l 0,-9.20224 c 0.4382,-0.0823 0.9161,-0.14101 1.4362,-0.17753 0.5203,-0.0456 1.0054,-0.069 1.4527,-0.069 z m 0.3418,1.72546 c -0.1825,0 -0.3783,0.004 -0.5883,0.0131 -0.2099,0 -0.3977,0.0113 -0.5619,0.0296 l 0,2.06721 1.0418,0 c 0.6571,0 1.1269,-0.0823 1.4099,-0.24652 0.2829,-0.17349 0.4239,-0.44743 0.4239,-0.82167 0,-0.38332 -0.145,-0.65339 -0.437,-0.80854 -0.2921,-0.15515 -0.7224,-0.23322 -1.2884,-0.23322 z m -10.2868,0.0952 c -0.1461,0 -0.2951,0.007 -0.4503,0.0165 -0.1551,0 -0.3036,0.008 -0.4404,0.0263 l 0,5.99785 c 0.1003,0.009 0.2141,0.0172 0.3418,0.0264 l 0.4799,0 c 1.0677,0 1.8584,-0.27007 2.3696,-0.80854 0.5201,-0.53847 0.7788,-1.28223 0.7788,-2.23161 0,-0.99482 -0.2466,-1.74666 -0.7394,-2.25786 -0.4929,-0.51104 -1.2721,-0.769 -2.34,-0.769 z m -8.1408,0.3845 c 0.6024,0 1.1035,0.0702 1.5052,0.20714 0.4017,0.1368 0.719,0.33267 0.9565,0.58827 0.2463,0.25561 0.422,0.56489 0.5224,0.93004 0.1005,0.36515 0.1513,0.77203 0.1513,1.21929 l 0,4.24296 c -0.2921,0.0639 -0.6992,0.13798 -1.2194,0.22026 -0.5202,0.0912 -1.1504,0.13462 -1.8897,0.13462 -0.4655,0 -0.8919,-0.0394 -1.2752,-0.12149 -0.3742,-0.0821 -0.6958,-0.21522 -0.9696,-0.3978 -0.2737,-0.19166 -0.4849,-0.43817 -0.631,-0.73938 -0.146,-0.3012 -0.2201,-0.66938 -0.2201,-1.10756 0,-0.41984 0.082,-0.77606 0.2464,-1.06818 0.1735,-0.29212 0.404,-0.52652 0.6868,-0.70001 0.2831,-0.17349 0.6045,-0.29498 0.9696,-0.36801 0.3652,-0.0823 0.7448,-0.12503 1.1372,-0.12503 0.2647,0 0.4993,0.0155 0.7,0.0428 0.21,0.0183 0.3784,0.0458 0.5062,0.0823 l 0,-0.19065 c 0,-0.34681 -0.1055,-0.62816 -0.3155,-0.83816 -0.21,-0.20983 -0.5742,-0.31214 -1.0945,-0.31214 -0.3468,0 -0.6909,0.0274 -1.0286,0.0821 -0.3377,0.0456 -0.6278,0.11258 -0.8744,0.20378 l -0.2596,-1.64334 c 0.1188,-0.0365 0.2639,-0.0719 0.4372,-0.10836 0.1825,-0.0456 0.3784,-0.0811 0.5882,-0.10854 0.21,-0.0365 0.4291,-0.0638 0.6573,-0.0821 0.2374,-0.0274 0.4759,-0.0427 0.7133,-0.0427 z m 17.2774,3.26025 0,2.44851 c 0.1552,0.0182 0.3234,0.0337 0.506,0.0427 0.1826,0.009 0.3857,0.0131 0.6048,0.0131 0.6389,0 1.1521,-0.0902 1.5447,-0.27277 0.3924,-0.18257 0.5883,-0.52265 0.5883,-1.01552 0,-0.43817 -0.1644,-0.74762 -0.4931,-0.9302 -0.3286,-0.19166 -0.7982,-0.28589 -1.4099,-0.28589 l -1.3408,0 z m -16.9225,1.02544 c -0.1917,0 -0.3754,0.0121 -0.5489,0.0394 -0.1642,0.0183 -0.3093,0.0609 -0.437,0.12502 -0.1279,0.0636 -0.2294,0.1501 -0.3024,0.25948 -0.073,0.10954 -0.1085,0.24651 -0.1085,0.41092 0,0.31937 0.1057,0.54267 0.3155,0.67039 0.2191,0.11863 0.5164,0.17752 0.8906,0.17752 0.201,0 0.3894,-0.004 0.572,-0.0131 0.1826,-0.009 0.3308,-0.0212 0.4404,-0.0395 l 0,-1.54792 c -0.082,-0.0182 -0.2072,-0.0375 -0.3714,-0.0559 -0.1642,-0.0182 -0.3133,-0.0263 -0.4503,-0.0263 z"
         id="circle20364"
         inkscape:connector-curvature="0" /></g></g><g
     id="g25"
     transform="translate(0,-438.79999)" /><g
     id="g27"
     transform="translate(0,-438.79999)" /><g
     id="g29"
     transform="translate(0,-438.79999)" /><g
     id="g31"
     transform="translate(0,-438.79999)" /><g
     id="g33"
     transform="translate(0,-438.79999)" /><g
     id="g35"
     transform="translate(0,-438.79999)" /><g
     id="g37"
     transform="translate(0,-438.79999)" /><g
     id="g39"
     transform="translate(0,-438.79999)" /><g
     id="g41"
     transform="translate(0,-438.79999)" /><g
     id="g43"
     transform="translate(0,-438.79999)" /><g
     id="g45"
     transform="translate(0,-438.79999)" /><g
     id="g47"
     transform="translate(0,-438.79999)" /><g
     id="g49"
     transform="translate(0,-438.79999)" /><g
     id="g51"
     transform="translate(0,-438.79999)" /><g
     id="g53"
     transform="translate(0,-438.79999)" /></svg>