<?xml version="1.0" encoding="UTF-8" standalone="no"?>
<!-- Generator: Adobe Illustrator 19.0.0, SVG Export Plug-In . SVG Version: 6.00 Build 0)  -->

<svg
   xmlns:dc="http://purl.org/dc/elements/1.1/"
   xmlns:cc="http://creativecommons.org/ns#"
   xmlns:rdf="http://www.w3.org/1999/02/22-rdf-syntax-ns#"
   xmlns:svg="http://www.w3.org/2000/svg"
   xmlns="http://www.w3.org/2000/svg"
   xmlns:sodipodi="http://sodipodi.sourceforge.net/DTD/sodipodi-0.dtd"
   xmlns:inkscape="http://www.inkscape.org/namespaces/inkscape"
   version="1.1"
   id="Capa_1"
   x="0px"
   y="0px"
   viewBox="0 0 48.000001 48.000001"
   xml:space="preserve"
   inkscape:version="0.91 r13725"
   sodipodi:docname="AP.svg"
   width="48"
   height="48"><metadata
     id="metadata59"><rdf:RDF><cc:Work
         rdf:about=""><dc:format>image/svg+xml</dc:format><dc:type
           rdf:resource="http://purl.org/dc/dcmitype/StillImage" /><dc:title></dc:title></cc:Work></rdf:RDF></metadata><defs
     id="defs57" /><sodipodi:namedview
     pagecolor="#ffffff"
     bordercolor="#666666"
     borderopacity="1"
     objecttolerance="10"
     gridtolerance="10"
     guidetolerance="10"
     inkscape:pageopacity="0"
     inkscape:pageshadow="2"
     inkscape:window-width="958"
     inkscape:window-height="1008"
     id="namedview55"
     showgrid="false"
     showguides="true"
     inkscape:guide-bbox="true"
     inkscape:object-paths="true"
     inkscape:snap-intersection-paths="true"
     inkscape:object-nodes="true"
     inkscape:snap-smooth-nodes="true"
     inkscape:zoom="2.7424356"
     inkscape:cx="15.017354"
     inkscape:cy="30.538981"
     inkscape:window-x="-7"
     inkscape:window-y="0"
     inkscape:window-maximized="0"
     inkscape:current-layer="g5" /><g
     id="g3"
     transform="translate(0,-438.79999)"><g
       id="g5"><path
         style="opacity:1;fill:#000000;fill-opacity:1;stroke:none;stroke-width:1;stroke-linecap:round;stroke-miterlimit:4;stroke-dasharray:none;stroke-dashoffset:0;stroke-opacity:1"
         d="M 23.9984,438.79999 A 23.99997,23.99997 0 0 0 4.9999874e-8,462.79848 23.99997,23.99997 0 0 0 23.9984,486.79999 23.99997,23.99997 0 0 0 48,462.79848 23.99997,23.99997 0 0 0 23.9984,438.79999 Z m -6.6092,16.69569 a 5.5971326,5.5971326 0 0 1 3.5461,1.27196 l 0,-1.01552 2.0509,0 0,10.68118 -2.0509,0 0,-1.01215 a 5.5971326,5.5971326 0 0 1 -3.5461,1.26859 5.5971326,5.5971326 0 0 1 -5.5971,-5.59703 5.5971326,5.5971326 0 0 1 5.5971,-5.59703 z m 13.2217,0 a 5.5971326,5.5971326 0 0 1 5.597,5.59703 5.5971326,5.5971326 0 0 1 -5.597,5.59703 5.5971326,5.5971326 0 0 1 -3.5461,-1.26859 l 0,4.68332 -2.0508,0 0,-9.01176 0,-5.34059 2.0508,0 0,1.01215 a 5.5971326,5.5971326 0 0 1 3.5461,-1.26859 z m -12.9227,2.3499 a 3.2466746,3.2466746 0 0 0 -3.247,3.24713 3.2466746,3.2466746 0 0 0 3.247,3.24713 3.2466746,3.2466746 0 0 0 3.2471,-3.24713 3.2466746,3.2466746 0 0 0 -3.2471,-3.24713 z m 12.6237,0 a 3.2466746,3.2466746 0 0 0 -3.2471,3.24713 3.2466746,3.2466746 0 0 0 3.2471,3.24713 3.2466746,3.2466746 0 0 0 3.2471,-3.24713 3.2466746,3.2466746 0 0 0 -3.2471,-3.24713 z"
         id="circle20388"
         inkscape:connector-curvature="0" /></g></g><g
     id="g25"
     transform="translate(0,-438.79999)" /><g
     id="g27"
     transform="translate(0,-438.79999)" /><g
     id="g29"
     transform="translate(0,-438.79999)" /><g
     id="g31"
     transform="translate(0,-438.79999)" /><g
     id="g33"
     transform="translate(0,-438.79999)" /><g
     id="g35"
     transform="translate(0,-438.79999)" /><g
     id="g37"
     transform="translate(0,-438.79999)" /><g
     id="g39"
     transform="translate(0,-438.79999)" /><g
     id="g41"
     transform="translate(0,-438.79999)" /><g
     id="g43"
     transform="translate(0,-438.79999)" /><g
     id="g45"
     transform="translate(0,-438.79999)" /><g
     id="g47"
     transform="translate(0,-438.79999)" /><g
     id="g49"
     transform="translate(0,-438.79999)" /><g
     id="g51"
     transform="translate(0,-438.79999)" /><g
     id="g53"
     transform="translate(0,-438.79999)" /></svg>