<?xml version="1.0" encoding="UTF-8" standalone="no"?>
<!-- Generator: Adobe Illustrator 19.0.0, SVG Export Plug-In . SVG Version: 6.00 Build 0)  -->

<svg
   xmlns:dc="http://purl.org/dc/elements/1.1/"
   xmlns:cc="http://creativecommons.org/ns#"
   xmlns:rdf="http://www.w3.org/1999/02/22-rdf-syntax-ns#"
   xmlns:svg="http://www.w3.org/2000/svg"
   xmlns="http://www.w3.org/2000/svg"
   xmlns:sodipodi="http://sodipodi.sourceforge.net/DTD/sodipodi-0.dtd"
   xmlns:inkscape="http://www.inkscape.org/namespaces/inkscape"
   version="1.1"
   id="Capa_1"
   x="0px"
   y="0px"
   viewBox="0 0 48.000001 48.000001"
   xml:space="preserve"
   inkscape:version="0.91 r13725"
   sodipodi:docname="aS.svg"
   width="48"
   height="48"><metadata
     id="metadata59"><rdf:RDF><cc:Work
         rdf:about=""><dc:format>image/svg+xml</dc:format><dc:type
           rdf:resource="http://purl.org/dc/dcmitype/StillImage" /><dc:title></dc:title></cc:Work></rdf:RDF></metadata><defs
     id="defs57" /><sodipodi:namedview
     pagecolor="#ffffff"
     bordercolor="#666666"
     borderopacity="1"
     objecttolerance="10"
     gridtolerance="10"
     guidetolerance="10"
     inkscape:pageopacity="0"
     inkscape:pageshadow="2"
     inkscape:window-width="958"
     inkscape:window-height="1008"
     id="namedview55"
     showgrid="false"
     showguides="true"
     inkscape:guide-bbox="true"
     inkscape:object-paths="true"
     inkscape:snap-intersection-paths="true"
     inkscape:object-nodes="true"
     inkscape:snap-smooth-nodes="true"
     inkscape:zoom="2.7424356"
     inkscape:cx="15.017354"
     inkscape:cy="30.538981"
     inkscape:window-x="-7"
     inkscape:window-y="0"
     inkscape:window-maximized="0"
     inkscape:current-layer="g5" /><g
     id="g3"
     transform="translate(0,-438.79999)"><g
       id="g5"><path
         style="opacity:1;fill:#000000;fill-opacity:1;stroke:none;stroke-width:1.47463608;stroke-linecap:round;stroke-miterlimit:4;stroke-dasharray:none;stroke-dashoffset:0;stroke-opacity:1"
         d="M 24.0015,438.79999 A 23.99997,23.99997 0 0 0 0,462.79848 23.99997,23.99997 0 0 0 24.0015,486.79999 23.99997,23.99997 0 0 0 48,462.79848 23.99997,23.99997 0 0 0 24.0015,438.79999 Z m 8.5583,14.81913 c 0.7071,0 1.2888,0.0564 1.7418,0.1676 0.4533,0.10348 0.6771,0.23558 0.6771,0.39443 0,0.33368 -0.03,0.68267 -0.095,1.04832 -0.064,0.35775 -0.1321,0.53578 -0.2038,0.53578 -0.064,0 -0.242,-0.0459 -0.5356,-0.14135 -1.0808,-0.36565 -2.0359,-0.5489 -2.8626,-0.5489 -1.1606,0 -2.1349,0.32241 -2.9217,0.96621 -0.787,0.6359 -1.1799,1.40439 -1.1799,2.31053 0,0.38938 0.088,0.74898 0.263,1.07458 0.1748,0.3182 0.4287,0.58609 0.7624,0.80855 0.453,0.29413 1.3322,0.51945 2.6358,0.67056 0.5166,0.0634 0.9045,0.11442 1.1668,0.15447 1.4784,0.24635 2.5479,0.72222 3.2076,1.42963 0.6677,0.69933 1.0024,1.7056 1.0024,3.01693 l -0.01,0 c 0,1.75658 -0.8014,3.27557 -2.399,4.55527 -1.5897,1.27953 -3.5302,1.9193 -5.8271,1.9193 -0.803,0 -1.5482,-0.0757 -2.2316,-0.22683 -0.6758,-0.15094 -1.0737,-0.29027 -1.193,-0.41731 -0.08,-0.0559 -0.1698,-0.4047 -0.2728,-1.0485 -0.095,-0.65171 -0.1445,-1.3529 -0.1445,-2.10002 0,-0.1432 0.035,-0.23121 0.099,-0.26301 0.071,-0.0316 0.2505,-0.0459 0.5455,-0.0459 0.096,0 0.1646,0.0194 0.2038,0.0591 0.039,0.0318 0.059,0.10046 0.059,0.20378 l 0,0.32207 c 0,0.12721 0.01,0.22431 0.026,0.29582 0.017,0.0715 0.029,0.14539 0.036,0.2169 0.111,0.65979 0.3772,1.16023 0.7988,1.50199 0.429,0.33385 1,0.4996 1.7155,0.4996 1.6612,0 3.0972,-0.50768 4.3054,-1.52504 1.2161,-1.02528 1.824,-2.20233 1.824,-3.52966 0,-0.81073 -0.2324,-1.41869 -0.6934,-1.82406 -0.4611,-0.40536 -1.2276,-0.66955 -2.3006,-0.78885 -0.1274,-0.0165 -0.3002,-0.0358 -0.5227,-0.0591 -1.2159,-0.11123 -2.0493,-0.26991 -2.4944,-0.47655 -0.6758,-0.33385 -1.1904,-0.79037 -1.5479,-1.37057 -0.3497,-0.5881 -0.5259,-1.28609 -0.5259,-2.09682 0,-1.58949 0.6593,-2.93566 1.9785,-4.03245 1.3274,-1.10487 2.966,-1.65646 4.9134,-1.65646 z m -15.1313,7.61814 c 1.1047,0 1.8766,0.2519 2.3137,0.75267 0.4451,0.4927 0.6672,1.42324 0.6672,2.79027 0,0.42119 -0.02,0.9748 -0.059,1.66622 -0.031,0.68352 -0.046,1.16276 -0.046,1.433 0,0.75503 0.095,1.3455 0.2859,1.77476 0.1987,0.42118 0.5107,0.7313 0.9399,0.93003 0.1987,0.0875 0.4434,0.14387 0.7296,0.1676 0.294,0.0165 0.4404,0.12401 0.4404,0.32207 0,0.15111 -0.259,0.31685 -0.7756,0.4996 -0.5086,0.18274 -0.9968,0.27613 -1.4658,0.27613 -0.6121,0 -1.0931,-0.16911 -1.4429,-0.50296 -0.3417,-0.34176 -0.5639,-0.8565 -0.667,-1.54793 -0.6199,0.65171 -1.3161,1.15737 -2.0871,1.51511 -0.7631,0.35775 -1.5225,0.53578 -2.2775,0.53578 -0.6915,0 -1.2309,-0.15868 -1.6203,-0.47654 -0.3815,-0.32595 -0.5752,-0.77523 -0.5752,-1.34752 0,-1.04917 0.5939,-1.96541 1.7782,-2.74433 1.1841,-0.78684 2.8442,-1.35273 4.9823,-1.7024 l 0,-0.26301 c 0,-0.874 -0.171,-1.51915 -0.5127,-1.93242 -0.3339,-0.42119 -0.8466,-0.63102 -1.538,-0.63102 -0.4372,0 -0.8988,0.0634 -1.3837,0.19065 -0.4767,0.12721 -0.7377,0.19065 -0.7855,0.19065 -0.039,0 -0.066,-0.0143 -0.082,-0.0461 -0.017,-0.0316 -0.026,-0.0808 -0.026,-0.14455 0,-0.62799 0.2342,-1.0702 0.7033,-1.32446 0.4767,-0.25443 1.3122,-0.3813 2.5044,-0.3813 z m 1.1175,4.97914 c -1.4327,0.24668 -2.5663,0.64178 -3.395,1.18648 -0.8268,0.54839 -1.2392,1.16864 -1.2392,1.86023 0,0.39729 0.1341,0.7165 0.4044,0.96285 0.2702,0.23844 0.6243,0.35825 1.0614,0.35825 0.9459,0 1.7177,-0.35404 2.3137,-1.06162 0.6041,-0.71515 0.9072,-1.66504 0.9072,-2.84934 0,-0.0476 -0.01,-0.11829 -0.026,-0.2137 -0.016,-0.10063 -0.026,-0.18022 -0.026,-0.24315 z"
         id="circle20574"
         inkscape:connector-curvature="0" /></g></g><g
     id="g25"
     transform="translate(0,-438.79999)" /><g
     id="g27"
     transform="translate(0,-438.79999)" /><g
     id="g29"
     transform="translate(0,-438.79999)" /><g
     id="g31"
     transform="translate(0,-438.79999)" /><g
     id="g33"
     transform="translate(0,-438.79999)" /><g
     id="g35"
     transform="translate(0,-438.79999)" /><g
     id="g37"
     transform="translate(0,-438.79999)" /><g
     id="g39"
     transform="translate(0,-438.79999)" /><g
     id="g41"
     transform="translate(0,-438.79999)" /><g
     id="g43"
     transform="translate(0,-438.79999)" /><g
     id="g45"
     transform="translate(0,-438.79999)" /><g
     id="g47"
     transform="translate(0,-438.79999)" /><g
     id="g49"
     transform="translate(0,-438.79999)" /><g
     id="g51"
     transform="translate(0,-438.79999)" /><g
     id="g53"
     transform="translate(0,-438.79999)" /></svg>