<?xml version="1.0" encoding="UTF-8" standalone="no"?>
<!-- Generator: Adobe Illustrator 19.0.0, SVG Export Plug-In . SVG Version: 6.00 Build 0)  -->

<svg
   xmlns:dc="http://purl.org/dc/elements/1.1/"
   xmlns:cc="http://creativecommons.org/ns#"
   xmlns:rdf="http://www.w3.org/1999/02/22-rdf-syntax-ns#"
   xmlns:svg="http://www.w3.org/2000/svg"
   xmlns="http://www.w3.org/2000/svg"
   xmlns:sodipodi="http://sodipodi.sourceforge.net/DTD/sodipodi-0.dtd"
   xmlns:inkscape="http://www.inkscape.org/namespaces/inkscape"
   version="1.1"
   id="Capa_1"
   x="0px"
   y="0px"
   viewBox="0 0 48.000001 48.000001"
   xml:space="preserve"
   inkscape:version="0.91 r13725"
   sodipodi:docname="Fox.svg"
   width="48"
   height="48"><metadata
     id="metadata59"><rdf:RDF><cc:Work
         rdf:about=""><dc:format>image/svg+xml</dc:format><dc:type
           rdf:resource="http://purl.org/dc/dcmitype/StillImage" /><dc:title></dc:title></cc:Work></rdf:RDF></metadata><defs
     id="defs57" /><sodipodi:namedview
     pagecolor="#ffffff"
     bordercolor="#666666"
     borderopacity="1"
     objecttolerance="10"
     gridtolerance="10"
     guidetolerance="10"
     inkscape:pageopacity="0"
     inkscape:pageshadow="2"
     inkscape:window-width="958"
     inkscape:window-height="1008"
     id="namedview55"
     showgrid="false"
     showguides="true"
     inkscape:guide-bbox="true"
     inkscape:object-paths="true"
     inkscape:snap-intersection-paths="true"
     inkscape:object-nodes="true"
     inkscape:snap-smooth-nodes="true"
     inkscape:zoom="2.7424356"
     inkscape:cx="15.017354"
     inkscape:cy="30.538981"
     inkscape:window-x="-7"
     inkscape:window-y="0"
     inkscape:window-maximized="0"
     inkscape:current-layer="g5" /><g
     id="g3"
     transform="translate(0,-438.79999)"><g
       id="g5"><path
         style="opacity:1;fill:#000000;fill-opacity:1;stroke:none;stroke-width:1.47463608;stroke-linecap:round;stroke-miterlimit:4;stroke-dasharray:none;stroke-dashoffset:0;stroke-opacity:1"
         d="M 23.9983,438.79999 A 23.99997,23.99997 0 0 0 2.4999986e-7,462.79848 23.99997,23.99997 0 0 0 23.9983,486.79999 23.99997,23.99997 0 0 0 48,462.79848 23.99997,23.99997 0 0 0 23.9983,438.79999 Z m -3.8451,11.78554 c 0.096,0 0.095,0.0224 0.1445,0.0362 0.01,5e-4 0.022,-0.003 0.03,0 l 0,0.003 c 0,10e-4 -0.01,0.002 -0.01,0.003 0.032,0.012 0.122,0.01 0.1117,0.0264 -0.017,0.0151 10e-4,0.0242 0.03,0.0197 0.052,-0.008 0.1761,0.0656 0.1577,0.0952 0,0.0118 -7e-4,0.0283 0.033,0.0362 0.03,0.0101 0.04,0.0246 0.03,0.0493 -0.017,0.0234 -5e-4,0.0326 0.016,0.0231 0.03,-0.019 0.1288,0.13967 0.1086,0.17416 -0.017,0.0152 -5e-4,0.0197 0.016,0.01 0.024,-0.0151 0.038,0.0128 0.03,0.0626 0,0.0101 0,0.0133 0.016,0.007 0.024,-0.0151 0.059,0.0517 0.053,0.0986 0,0.0172 -3e-4,0.0274 0.016,0.0197 0.017,-0.008 0.039,0.0175 0.056,0.0559 0.017,0.0384 0.037,0.069 0.046,0.069 0.017,0 0.017,0.0162 0,0.0328 0,0.0175 -5e-4,0.038 0.026,0.0461 0.025,0.0101 0.036,0.0268 0.026,0.0525 -0.017,0.0219 0,0.0321 0,0.0231 0.027,-0.0268 0.079,0.071 0.062,0.11493 -0.017,0.0286 0,0.0353 0.02,0.0231 0.019,-0.0118 0.034,0.005 0.053,0.0527 0.017,0.0395 0.038,0.0722 0.049,0.0722 0.017,0 0.017,0.0222 0,0.0493 -0.017,0.0305 0,0.0449 0,0.0362 0.03,-0.0185 0.053,0.0429 0.036,0.0954 -0.017,0.0288 0,0.0299 0,0.01 0.017,-0.0222 0.027,-0.0157 0.049,0.0263 0.017,0.031 0.027,0.0697 0.02,0.0823 0,0.0135 0,0.0286 0.02,0.0362 0.025,0.0101 0.033,0.0296 0.023,0.0656 -0.017,0.0335 0,0.0419 0,0.0231 0.017,-0.022 0.027,-0.0157 0.049,0.0263 0.017,0.031 0.023,0.0663 0.016,0.0789 0,0.0135 0,0.0286 0.023,0.0362 0.025,0.0101 0.032,0.0316 0.02,0.0656 -0.017,0.0293 0,0.0411 0,0.033 0.017,-0.007 0.036,0.0151 0.053,0.0493 0.017,0.0347 0.039,0.0809 0.049,0.1018 0.017,0.0209 0.017,0.0618 0,0.092 l 0,0.0296 c 0.017,-0.0192 0.027,-0.006 0.049,0.0459 0.017,0.0409 0.041,0.0909 0.052,0.11173 0.017,0.0209 0.017,0.0629 0,0.092 -0.017,0.0325 -3e-4,0.0451 0.017,0.0362 0.017,-0.008 0.037,0.0141 0.052,0.0493 0.017,0.0347 0.036,0.0786 0.046,0.0986 0.017,0.02 0.017,0.0678 0,0.10517 0,0.0446 -5e-4,0.0589 0.016,0.0394 0.017,-0.021 0.031,-0.002 0.053,0.069 0.017,0.0547 0.039,0.10702 0.049,0.11846 0.017,0.0118 0.017,0.0535 0,0.0919 -0.017,0.0442 -5e-4,0.0651 0.016,0.056 0.024,-0.0151 0.056,0.0648 0.066,0.12806 l 0,-0.003 c 0,0.003 0,0.004 0,0.007 7e-4,0.006 0.01,0.007 0.01,0.0131 0,0.0242 0.02,0.0512 0.026,0.0591 0.017,0.008 0.017,0.053 0,0.10854 -0.017,0.0663 -3e-4,0.0899 0.016,0.0789 0.021,-0.0131 0.042,0.0848 0.056,0.16424 0,-0.007 0.01,-0.0249 0.01,-0.0163 l 0,0.0427 c 8e-4,0.009 0.01,0.0109 0.01,0.0197 0,0.0279 0.018,0.0584 0.023,0.0656 0.017,0.007 0.017,0.0715 0.017,0.14471 0,0.0873 -5e-4,0.12217 0.016,0.10181 0.032,-0.0458 0.053,0.0584 0.04,0.19721 l 0,0.0459 c 0.019,-0.0683 0.019,-0.0697 0.036,0.033 0.017,0.0574 0.016,0.19738 0.016,0.31214 0,0.12957 0,0.19991 0.02,0.18089 0.017,-0.0219 0.026,-0.007 0.036,0.0559 0.019,0.11358 0.019,5.12083 0,5.16962 0,0.02 -0.026,0.0279 -0.039,0.0197 -0.017,-0.0101 -0.02,0.013 -0.017,0.0692 l 0,0.0853 c -0.017,0 -0.026,0.0241 -0.039,0.0527 -0.017,0.0288 -0.039,0.0495 -0.056,0.0459 -0.017,-0.003 -0.023,0.003 -0.016,0.0165 0.019,0.0299 -0.073,0.12368 -0.1018,0.10517 -0.017,-0.008 -0.023,-6.7e-4 -0.02,0.0165 0,0.017 -0.016,0.0311 -0.033,0.0294 -0.022,-0.002 -0.035,0.005 -0.03,0.0133 0.017,0.0281 -0.091,0.0646 -0.1545,0.0525 -0.032,-0.007 -0.067,-3.3e-4 -0.076,0.0131 -0.02,0.033 -0.144,0.033 -0.1642,0 l 0.023,0.007 c -0.017,-0.0151 -0.047,-0.0212 -0.085,-0.0131 -0.074,0.0151 -0.2338,-0.04 -0.1809,-0.0624 0.017,-0.007 0,-0.008 -0.03,0 -0.047,0.0101 -0.067,0.003 -0.079,-0.0263 -0.017,-0.0246 -0.032,-0.0337 -0.059,-0.0264 -0.054,0.0135 -0.1769,-0.0448 -0.1314,-0.0624 0.017,-0.007 0,-0.008 -0.039,-0.007 -0.049,0.003 -0.068,-0.008 -0.062,-0.0294 0,-0.0241 -0.015,-0.0305 -0.063,-0.0199 -0.04,0.008 -0.072,0.007 -0.072,-0.007 0,-0.0118 -0.016,-0.0229 -0.033,-0.0229 -0.059,0 -0.1531,-0.0513 -0.138,-0.0757 0.017,-0.0151 -0.017,-0.0195 -0.059,-0.01 -0.042,0.008 -0.072,0.007 -0.072,-0.007 0,-0.0118 -0.016,-0.0231 -0.033,-0.0231 -0.059,0 -0.1533,-0.0513 -0.1382,-0.0756 0.017,-0.0151 -5e-4,-0.019 -0.046,-0.01 -0.034,0.008 -0.066,0.004 -0.072,-0.01 0,-0.0135 -0.037,-0.0231 -0.062,-0.0231 -0.029,0 -0.04,-0.01 -0.03,-0.0263 0.017,-0.0151 0,-0.0187 0,-0.01 -0.035,0.0217 -0.1006,-0.0104 -0.082,-0.0394 0.017,-0.0151 8e-4,-0.0194 -0.036,-0.01 -0.029,0.008 -0.072,0.005 -0.092,-0.007 -0.02,-0.0101 -0.071,-0.0306 -0.1117,-0.0459 -0.042,-0.0151 -0.071,-0.0392 -0.062,-0.0527 0.017,-0.0151 0,-0.019 -0.036,-0.01 -0.029,0.008 -0.07,0.005 -0.092,-0.007 -0.02,-0.0101 -0.071,-0.034 -0.1118,-0.0493 -0.042,-0.0152 -0.071,-0.039 -0.062,-0.0525 0.017,-0.0152 8e-4,-0.019 -0.036,-0.01 -0.029,0.008 -0.07,0.005 -0.092,-0.007 -0.02,-0.0101 -0.07,-0.0301 -0.1118,-0.0459 -0.057,-0.0212 -0.071,-0.0367 -0.049,-0.0527 0.02,-0.0151 0.018,-0.0177 -0.036,-0.01 -0.037,0.007 -0.085,0.004 -0.1051,-0.007 -0.02,-0.0101 -0.07,-0.0328 -0.1118,-0.0493 -0.05,-0.0204 -0.065,-0.036 -0.046,-0.0493 0.017,-0.0118 0,-0.015 -0.046,-0.007 -0.055,0.0118 -0.079,0.006 -0.089,-0.0199 0,-0.0193 -0.028,-0.0289 -0.043,-0.0229 -0.042,0.0168 -0.1668,-0.0545 -0.1281,-0.0724 0.017,-0.008 0,-0.007 -0.03,0 -0.039,0.007 -0.077,-0.003 -0.099,-0.0263 -0.02,-0.02 -0.044,-0.0301 -0.056,-0.0231 -0.017,0.007 -0.048,10e-4 -0.082,-0.0165 -0.042,-0.0222 -0.053,-0.0394 -0.033,-0.0493 0.017,-0.008 6e-4,-0.01 -0.023,-0.003 -0.069,0.0135 -0.1254,-0.007 -0.1052,-0.0394 0.017,-0.0151 -8e-4,-0.0177 -0.036,-0.01 -0.061,0.0152 -0.1851,-0.0404 -0.1381,-0.0624 0.017,-0.008 7e-4,-0.0101 -0.023,-0.003 -0.069,0.0135 -0.1254,-0.007 -0.1052,-0.0394 0.017,-0.0151 9e-4,-0.0194 -0.036,-0.01 -0.029,0.008 -0.07,0.005 -0.092,-0.007 -0.02,-0.0101 -0.071,-0.0306 -0.1117,-0.0459 -0.042,-0.0151 -0.068,-0.0392 -0.059,-0.0527 0.017,-0.0152 -6e-4,-0.0189 -0.039,-0.01 -0.029,0.008 -0.07,0.005 -0.092,-0.007 -0.02,-0.0101 -0.071,-0.034 -0.1117,-0.0493 -0.042,-0.0151 -0.071,-0.0392 -0.062,-0.0527 0.017,-0.0151 0,-0.0173 -0.033,-0.01 -0.059,0.0151 -0.2707,-0.0789 -0.2433,-0.10853 0.017,-0.0101 -0.017,-0.015 -0.046,-0.007 -0.039,0.008 -0.062,0.007 -0.062,-0.007 0,-0.0135 -0.021,-0.0257 -0.043,-0.0263 -0.054,-10e-4 -0.1238,-0.0552 -0.102,-0.0789 0.017,-0.0101 -6e-4,-0.015 -0.036,-0.007 -0.029,0.007 -0.053,0.005 -0.053,-0.007 0,-0.0118 -0.016,-0.0231 -0.036,-0.0231 -0.045,0 -0.1074,-0.0591 -0.085,-0.0821 0.017,-0.0101 -7e-4,-0.009 -0.036,0 -0.029,0.008 -0.053,0.007 -0.053,-0.003 0,-0.0101 -0.032,-0.0323 -0.069,-0.0493 -0.039,-0.017 -0.061,-0.0399 -0.053,-0.0525 0,-0.0118 0,-0.0227 -0.02,-0.0197 -0.039,0.008 -0.1937,-0.0646 -0.23,-0.10853 -0.017,-0.018 -0.034,-0.0328 -0.046,-0.0328 -0.035,0 -0.088,-0.0623 -0.069,-0.0821 0.017,-0.0101 0,-0.0101 -0.02,0 -0.017,0.008 -0.065,-0.0101 -0.1118,-0.0427 -0.047,-0.0321 -0.095,-0.0592 -0.1051,-0.0592 -0.017,0 -0.02,-0.0163 -0.02,-0.0362 0,-0.0202 -0.018,-0.0347 -0.03,-0.0296 -0.037,0.0118 -0.1368,-0.0754 -0.1183,-0.10517 0.017,-0.0151 0,-0.0158 -0.023,-0.007 -0.045,0.0173 -0.1598,-0.0732 -0.138,-0.10837 0,-0.0118 0,-0.0162 -0.02,-0.01 -0.04,0.0135 -0.1384,-0.0742 -0.1182,-0.10517 0,-0.0135 0,-0.0167 -0.02,-0.007 -0.017,0.0101 -0.058,-0.014 -0.1052,-0.0591 -0.044,-0.0424 -0.098,-0.0934 -0.125,-0.11173 -0.027,-0.0183 -0.041,-0.0434 -0.033,-0.0559 0,-0.0118 0,-0.0183 -0.02,-0.01 -0.029,0.0182 -0.1288,-0.0846 -0.1052,-0.10853 0.017,-0.0101 0,-0.0131 0,-0.01 -0.037,0.0118 -0.1351,-0.0678 -0.1183,-0.0954 0.017,-0.0151 3e-4,-0.0194 -0.017,-0.0131 -0.017,0.007 -0.055,-0.017 -0.089,-0.0525 -0.032,-0.0355 -0.1072,-0.10769 -0.1644,-0.16103 -0.1632,-0.15515 -0.2093,-0.21472 -0.1938,-0.23996 0.017,-0.0151 0,-0.0158 -0.026,-0.007 -0.03,0.0118 -0.037,0.008 -0.026,-0.0197 0.017,-0.0241 0,-0.035 -0.026,-0.033 -0.024,0.002 -0.035,-0.0162 -0.033,-0.0394 0,-0.0219 -0.02,-0.0355 -0.026,-0.0328 -0.017,0.003 -0.022,-0.01 -0.017,-0.0296 0,-0.0192 3e-4,-0.0291 -0.016,-0.0197 -0.022,0.0224 -0.082,-0.0256 -0.066,-0.0527 0,-0.0118 0,-0.0197 -0.02,-0.0197 -0.017,0 -0.065,-0.0409 -0.1051,-0.0887 -0.04,-0.0478 -0.093,-0.10921 -0.1215,-0.13816 -0.027,-0.0289 -0.045,-0.0658 -0.036,-0.0788 0,-0.0135 0,-0.0199 -0.017,-0.0165 -0.017,0.003 -0.047,-0.0308 -0.069,-0.0756 -0.023,-0.0446 -0.043,-0.0685 -0.043,-0.0559 0,0.0135 -0.027,-0.005 -0.059,-0.0395 -0.032,-0.0343 -0.056,-0.0754 -0.056,-0.0887 0,-0.0135 -0.018,-0.023 -0.026,-0.023 -0.017,0 -0.02,-0.0168 -0.016,-0.036 l 0,-0.0264 c -0.017,0.005 -0.029,-0.004 -0.046,-0.0229 -0.017,-0.0178 -0.023,-0.0296 -0.016,-0.0296 0,0 -0.021,-0.0315 -0.059,-0.069 -0.044,-0.0412 -0.068,-0.0784 -0.056,-0.0954 0.017,-0.0178 3e-4,-0.0234 -0.017,-0.0131 -0.025,0.0151 -0.038,-0.0168 -0.026,-0.069 0,-0.0135 5e-4,-0.0167 -0.016,-0.007 -0.027,0.0273 -0.074,-0.0347 -0.063,-0.0821 0,-0.0267 5e-4,-0.0382 -0.016,-0.0296 -0.044,0.0264 -0.079,-0.10029 -0.079,-0.2859 0,-0.19872 0.03,-0.31618 0.072,-0.28925 0.019,0.0118 0.023,0.003 0.016,-0.0296 0,-0.0315 0,-0.0658 0.046,-0.1018 0.03,-0.03 0.078,-0.0799 0.1051,-0.10854 0.027,-0.0288 0.065,-0.0493 0.082,-0.0493 0.017,0 0.03,-0.0106 0.03,-0.0231 0,-0.0135 0.032,-0.0182 0.072,-0.01 0.049,0.0101 0.069,0.007 0.059,-0.01 -0.022,-0.036 0.045,-0.0555 0.1545,-0.0427 0.071,0.008 0.081,0.009 0.039,-0.007 -0.054,-0.0177 -0.055,-0.02 0.033,-0.0362 0.051,-0.0101 0.1597,-0.0148 0.24,-0.0131 0.086,0.002 0.143,-0.006 0.1346,-0.0197 -0.022,-0.0362 0.088,-0.0431 0.6541,-0.0394 0.3905,0.003 0.5463,0.0133 0.5586,0.0328 0.017,0.0168 0.07,0.0246 0.1545,0.0231 0.076,-0.002 0.179,0.006 0.2302,0.0163 0.087,0.0168 0.09,0.0185 0.036,0.0362 -0.045,0.0152 -0.039,0.0184 0.03,0.01 0.1027,-0.0118 0.1632,0.005 0.1414,0.0394 -0.017,0.0168 0.017,0.0182 0.079,0.01 0.052,-0.007 0.1031,-0.005 0.1149,0.003 0.017,0.008 0.063,0.0305 0.1183,0.0461 0.057,0.0168 0.094,0.0387 0.085,0.0525 -0.017,0.0151 0.014,0.0205 0.049,0.0165 0.082,-0.008 0.2706,0.0683 0.2499,0.1018 -0.017,0.0151 6e-4,0.021 0.036,0.0131 0.061,-0.0151 0.2413,0.0678 0.2202,0.10197 -0.017,0.0135 0,0.0204 0.03,0.0165 0.055,-0.008 0.2206,0.0715 0.2037,0.0986 0,0.0118 -6e-4,0.0197 0.026,0.0197 0.022,0 0.033,-0.005 0.026,-0.0131 -0.017,-0.0151 0.093,-0.12502 0.1249,-0.12502 0.017,0 0.02,-0.0123 0.02,-0.0263 0,-0.0135 0.017,-0.0209 0.036,-0.0131 0.02,0.008 0.03,0.005 0.023,-0.007 -0.017,-0.0209 0.042,-0.0788 0.059,-0.0624 0,0.005 0.024,-0.005 0.039,-0.0231 0.017,-0.0178 0.022,-0.0328 0.017,-0.0328 -0.017,0 -8e-4,-0.0168 0.033,-0.0362 0.029,-0.0199 0.066,-0.0288 0.079,-0.0197 0.017,0.0101 0.02,0.009 0.017,-0.007 -0.017,-0.0259 0.032,-0.0769 0.082,-0.0855 0.017,-0.003 0.066,-0.0382 0.1083,-0.0789 0.042,-0.0407 0.085,-0.0688 0.095,-0.0624 0.017,0.007 0.026,-0.006 0.033,-0.0263 0.017,-0.0219 0.028,-0.0311 0.049,-0.0231 0.02,0.007 0.03,0.005 0.023,-0.007 0,-0.0118 0,-0.0335 0.023,-0.0493 0.029,-0.0231 0.035,-0.0224 0.036,0.003 8e-4,0.0175 0.016,0.007 0.026,-0.0231 0.017,-0.0352 0.042,-0.0498 0.069,-0.0427 0.023,0.007 0.038,-0.002 0.036,-0.0165 0,-0.0135 0.02,-0.0363 0.049,-0.0493 0.028,-0.0135 0.049,-0.0321 0.049,-0.0427 0,-0.0101 0.024,-0.01 0.049,-0.003 0.03,0.0101 0.045,0.005 0.039,-0.0131 -0.017,-0.0375 0.1227,-0.11207 0.1742,-0.0986 0.025,0.007 0.04,-10e-4 0.036,-0.0197 0,-0.0168 0.019,-0.0432 0.049,-0.0592 0.067,-0.0348 0.1008,-0.0924 0.079,-0.12822 -0.02,-0.0338 -0.017,-1.22636 0,-1.37696 0.017,-0.10971 0.019,-0.1119 0.036,-0.0461 0.017,0.0503 0.017,0.0367 0.017,-0.0493 -0.017,-0.14589 7e-4,-0.23608 0.039,-0.19048 0.017,0.0204 0.017,-0.007 0.017,-0.0789 l 0,-0.12166 c 0.017,-0.007 0.024,-0.0513 0.033,-0.10181 0,-0.0505 0.032,-0.10769 0.053,-0.12822 0.022,-0.0217 0.033,-0.0574 0.026,-0.0855 l 0,-0.0887 c 0.017,-0.0209 0.031,-0.0703 0.046,-0.11173 0.017,-0.0417 0.039,-0.0675 0.053,-0.0592 0.017,0.0101 0.02,-0.004 0.016,-0.0362 -0.017,-0.0555 0.063,-0.23659 0.1018,-0.23659 0.017,0 0.018,-0.0197 0.017,-0.0459 -0.017,-0.0266 -5e-4,-0.0461 0.016,-0.0461 0.017,0 0.026,-0.0165 0.026,-0.0362 0,-0.0192 0.021,-0.056 0.046,-0.0821 0.025,-0.0259 0.045,-0.0533 0.04,-0.0624 -0.017,-0.0284 0.072,-0.15514 0.1018,-0.14791 0.019,0.005 0.025,-0.0123 0.016,-0.0427 0,-0.0261 -5e-4,-0.0459 0.016,-0.0459 0.017,0 0.023,-0.0146 0.023,-0.033 0,-0.0183 0.017,-0.0478 0.043,-0.0656 0.025,-0.0178 0.041,-0.0404 0.033,-0.0493 -0.017,-0.008 -8e-4,-0.022 0.036,-0.0296 0.032,-0.008 0.041,-0.0202 0.026,-0.0296 -0.017,-0.0101 0.018,-0.0577 0.079,-0.12486 0.081,-0.0826 0.1141,-0.10247 0.1545,-0.092 0.035,0.0101 0.043,0.005 0.033,-0.0131 -0.013,-0.0207 0.089,-0.0232 0.1348,-0.0362 -0.015,0.006 -0.018,0.0131 0.023,0.0131 0.039,5.1e-4 0.056,-0.005 0.039,-0.01 l 0,-0.003 c -0.014,-0.006 -0.035,-0.003 -0.056,0 0.049,-0.0126 0.045,-0.0362 0.1382,-0.0362 z m 2.0145,3.63836 c 0,-0.0126 -0.01,-0.0135 -0.01,-0.0264 0,0.006 -0.01,-8.4e-4 -0.01,0.0131 0,0.032 -5e-4,0.0456 0.016,0.0296 l 0,-0.0163 z m -0.1149,-0.4503 0,-0.003 c 0,-0.006 -0.013,-0.0111 -0.013,0.01 0,0.0244 -4e-4,0.0373 0.017,0.0296 0,-0.007 0.01,-0.0217 0,-0.0362 z m -1.7354,-3.14532 c -0.01,-0.002 -0.013,-0.005 -0.02,-0.007 -0.014,-6.8e-4 -0.027,-0.003 -0.039,0 -0.022,0.007 -0.016,0.0131 0.029,0.0131 0.029,3.4e-4 0.029,-0.003 0.03,-0.007 z m -0.1545,1.03857 c -0.035,-0.048 -0.1578,-0.0214 -0.1511,0.033 0,0.0507 -0.023,0.1225 -0.046,0.10837 -0.017,-0.007 -0.02,0.007 -0.02,0.0296 0,0.0231 -0.014,0.0367 -0.026,0.0328 -0.024,-0.005 -0.027,0.009 -0.016,0.0527 0.017,0.0342 5e-4,0.0591 -0.016,0.0591 -0.017,0 -0.026,0.0168 -0.026,0.0362 0,0.0199 -0.015,0.0294 -0.016,0.0231 -0.017,-0.007 -0.018,0.012 -0.017,0.0394 0,0.0318 -0.019,0.0469 -0.033,0.0427 -0.022,-0.005 -0.027,0.009 -0.017,0.0461 l 0,0.0756 c -0.017,0.0135 -0.034,0.0717 -0.049,0.12806 -0.022,0.0784 -0.033,0.0942 -0.049,0.0692 -0.017,-0.0232 -0.023,-0.005 -0.02,0.0559 0,0.0476 4e-4,0.0912 -0.016,0.0986 -0.017,0.007 -0.02,0.0412 -0.02,0.0756 0,0.0343 -0.018,0.11005 -0.033,0.1676 -0.023,0.0794 -0.033,0.0944 -0.043,0.0591 0,-0.0256 -0.02,0.0192 -0.02,0.10197 0,0.083 3e-4,0.33402 -0.017,0.55546 0,0.22145 9e-4,0.41597 0,0.4338 0.017,0.0372 0.098,0.0451 0.1183,0.01 l 0.053,0 c 0,-0.0135 0.039,-0.0229 0.069,-0.0229 0.032,0 0.059,-0.009 0.059,-0.0231 0,-0.0151 0.029,-0.0199 0.082,-0.01 0.056,0.0101 0.079,0.0103 0.069,-0.007 -0.02,-0.0325 0.033,-0.051 0.1149,-0.0394 0.057,0.008 0.062,0.007 0.023,-0.01 -0.045,-0.0212 -0.045,-0.0212 0,-0.0229 0.029,-10e-4 0.057,-0.0136 0.066,-0.0264 0.017,-0.0135 0.043,-0.018 0.082,-0.01 0.045,0.0101 0.08,0.002 0.1052,-0.023 0.025,-0.0261 0.062,-0.0343 0.1314,-0.0263 0.069,0.008 0.082,0.007 0.04,-0.007 -0.056,-0.0182 -0.056,-0.019 0.023,-0.0362 0.045,-0.0101 0.1219,-0.0167 0.171,-0.0165 0.052,10e-4 0.103,-0.0145 0.1248,-0.0362 0.027,-0.0269 0.061,-0.0303 0.1283,-0.0197 0.059,0.0101 0.086,0.004 0.076,-0.0131 0,-0.0135 7e-4,-0.0231 0.02,-0.0231 0.027,0 0.038,-0.0241 0.036,-0.10837 0,-0.0606 3e-4,-0.0989 -0.017,-0.0821 -0.017,0.0507 -0.072,-0.0777 -0.059,-0.13479 0.017,-0.0325 4e-4,-0.0458 -0.016,-0.0362 -0.032,0.02 -0.055,-0.037 -0.039,-0.10517 0,-0.0365 3e-4,-0.0459 -0.016,-0.0263 -0.017,0.0221 -0.028,0.0155 -0.049,-0.0264 -0.017,-0.031 -0.023,-0.0661 -0.016,-0.0788 0,-0.0135 0,-0.0284 -0.027,-0.0362 -0.027,-0.0101 -0.031,-0.0325 -0.02,-0.0789 0.017,-0.0365 0,-0.0493 0,-0.0328 -0.023,0.0358 -0.1119,-0.17079 -0.1018,-0.23995 0,-0.0326 0,-0.0368 -0.02,-0.0165 -0.017,0.0219 -0.024,0.0172 -0.043,-0.0229 -0.045,-0.0961 -0.063,-0.14387 -0.056,-0.19065 0,-0.0256 4e-4,-0.0417 -0.016,-0.0328 -0.022,0.0215 -0.079,-0.038 -0.079,-0.0823 0,-0.0194 -0.018,-0.0417 -0.023,-0.0493 -0.017,-0.007 -0.017,-0.0284 0,-0.0493 0.017,-0.0236 5e-4,-0.0323 -0.016,-0.0229 -0.025,0.0152 -0.1136,-0.13815 -0.1052,-0.18409 0,-0.0151 -0.016,-0.0352 -0.03,-0.0427 -0.039,-0.0151 -0.094,-0.12166 -0.086,-0.17096 0,-0.0172 5e-4,-0.0273 -0.02,-0.0197 -0.024,0.0151 -0.036,-0.0155 -0.026,-0.0658 0,-0.0135 3e-4,-0.0182 -0.016,-0.01 -0.017,0.0101 -0.028,0.003 -0.043,-0.0165 z m -1.2423,0.68368 c 0,-0.0185 -0.016,-0.0138 -0.016,0.0131 0,0.0244 -5e-4,0.0374 0.016,0.0296 0,-0.008 0.017,-0.0261 0,-0.0427 z m 0.792,1.65966 c -0.017,0.007 0,0.0131 0.026,0.0131 0.032,0 0.046,-0.006 0.029,-0.0131 -0.017,-0.006 -0.04,-0.006 -0.056,0 z m -3.5,1.09107 c -0.019,0.007 -0.017,0.0133 0.016,0.0133 0.021,6.8e-4 0.03,-0.007 0.026,-0.0133 0,-0.008 -0.026,-0.007 -0.043,0 z m 10.9243,0.29582 c 0.7784,-10e-4 1.3803,0.0471 1.2621,0.0986 -0.029,0.0118 10e-4,0.0133 0.099,0.007 0.082,-0.007 0.1494,-3.4e-4 0.1578,0.0131 0,0.0118 0.048,0.0229 0.089,0.0231 0.04,1.7e-4 0.1203,0.013 0.1775,0.0296 0.082,0.0246 0.095,0.0352 0.059,0.0459 -0.025,0.008 2e-4,0.008 0.062,0.003 0.061,-0.005 0.1147,0.001 0.1215,0.0131 0,0.0118 0.04,0.0231 0.069,0.0231 0.081,0 0.2109,0.0574 0.171,0.0756 -0.018,0.008 5e-4,0.01 0.053,0.003 0.047,-0.007 0.09,-3.4e-4 0.098,0.0133 0,0.0133 0.036,0.0229 0.059,0.0229 0.061,0 0.1648,0.0569 0.1446,0.0789 -0.017,0.0101 0.019,0.015 0.046,0.007 0.04,-0.0101 0.07,-0.005 0.089,0.0165 0.017,0.0183 0.039,0.0289 0.056,0.0229 0.042,-0.0168 0.167,0.0512 0.1283,0.0692 -0.017,0.008 -9e-4,0.01 0.033,0.003 0.045,-0.008 0.069,-0.003 0.079,0.0231 0,0.0202 0.029,0.0328 0.046,0.0263 0.044,-0.0168 0.1621,0.0436 0.1217,0.0624 -0.017,0.008 -5e-4,0.0116 0.023,0.007 0.034,-0.007 0.057,0.003 0.066,0.0231 0,0.0187 0.032,0.0325 0.053,0.0296 0.061,-0.008 0.2151,0.0697 0.1973,0.0986 -0.017,0.0151 3e-4,0.0229 0.026,0.0197 0.056,-0.007 0.1302,0.022 0.1151,0.0459 0,0.0101 0,0.0182 0.026,0.0165 0.022,-0.002 0.039,0.009 0.036,0.0263 0,0.0177 0.014,0.0298 0.033,0.0263 0.057,-0.008 0.1993,0.0685 0.1808,0.0986 -0.017,0.0152 5e-4,0.0194 0.03,0.01 0.032,-0.0101 0.068,0.005 0.1183,0.0525 0.04,0.037 0.077,0.0601 0.086,0.0527 0,-0.007 0.019,-0.002 0.03,0.01 0.017,0.0118 0.037,0.0347 0.062,0.0493 0.025,0.0151 0.044,0.037 0.039,0.0525 0,0.0173 -7e-4,0.0257 0.03,0.0165 0.04,-0.0151 0.1107,0.0392 0.085,0.0656 -0.017,0.008 0,0.0116 0,0.01 0.066,-0.0135 0.1895,0.0697 0.1576,0.10517 -0.017,0.0101 -3e-4,0.0133 0.017,0.007 0.029,-0.0168 0.2169,0.1124 0.2169,0.14791 0,0.0118 0.016,0.0182 0.023,0.01 0.017,-0.008 0.023,0.004 0.023,0.0264 0,0.022 0,0.0313 0.02,0.0229 0.02,-0.0209 0.079,0.0305 0.062,0.0559 0,0.0118 -5e-4,0.0167 0.02,0.01 0.034,-0.0135 0.2665,0.19334 0.2562,0.22683 0,0.0101 0,0.0165 0.02,0.0131 0.017,-0.003 0.029,0.005 0.029,0.0197 0,0.0365 0.036,0.0713 0.036,0.0362 0,-0.0151 0.026,-0.005 0.056,0.0231 0.03,0.0291 0.046,0.0639 0.04,0.0756 0,0.0118 0,0.015 0.02,0.007 0.03,-0.0187 0.1287,0.086 0.1052,0.11173 0,0 0,0.003 0,0.003 0.017,-0.008 0.074,0.039 0.1348,0.10197 0.061,0.0629 0.096,0.11425 0.079,0.1151 -0.017,6.7e-4 0,0.0116 0.026,0.0229 0.03,0.0118 0.044,0.0328 0.036,0.0461 l 0,0.0163 c 0.035,-0.0101 0.24,0.22195 0.2269,0.25644 l 0,0.0197 c 0.023,-0.0151 0.1205,0.0924 0.1019,0.11173 0,0.007 -5e-4,0.0131 0.016,0.0131 0.037,0 0.1687,0.18745 0.1512,0.2169 l 0,0.01 c 0.024,-0.0212 0.089,0.0448 0.072,0.0724 0,0.0116 -5e-4,0.0252 0.023,0.0328 0.022,0.008 0.031,0.0257 0.023,0.0427 -0.017,0.0168 -0.018,0.0215 0,0.0131 0.029,-0.0257 0.082,0.0439 0.066,0.0855 -0.017,0.0231 0,0.0368 0.02,0.0328 0.017,-0.003 0.037,0.0131 0.053,0.0394 0.017,0.0256 0.037,0.0535 0.049,0.0624 0.017,0.008 0.017,0.0221 0.017,0.0296 0,0.007 0.019,0.0456 0.056,0.0855 0.037,0.0399 0.061,0.0858 0.056,0.1018 0,0.017 0,0.0352 0.026,0.0428 0.02,0.008 0.032,0.0286 0.023,0.0493 l 0,0.023 c 0.025,-0.0151 0.1054,0.14976 0.095,0.19722 0,0.0192 5e-4,0.0259 0.017,0.0165 0.022,-0.022 0.077,0.0525 0.079,0.10517 5e-4,0.0224 0.018,0.0394 0.026,0.0394 0.017,0 0.018,0.02 0.016,0.0493 -0.017,0.0293 0,0.0443 0,0.0362 0.034,-0.0209 0.1104,0.15178 0.1019,0.22666 0,0.0237 -3e-4,0.037 0.017,0.0296 0.017,-0.007 0.034,0.0148 0.049,0.0493 0.017,0.0347 0.039,0.0777 0.049,0.0986 0.017,0.0209 0.017,0.0651 0,0.0954 l 0,0.036 c 0.025,-0.0237 0.081,0.0535 0.082,0.1151 5e-4,0.0279 0.016,0.0579 0.023,0.0658 0.017,0.008 0.017,0.0392 0,0.0722 -0.017,0.0375 0,0.055 0,0.0461 0.027,-0.0168 0.076,0.0813 0.076,0.14791 0,0.0242 0.018,0.0485 0.023,0.0559 0.017,0.007 0.017,0.0542 0.017,0.10181 0,0.0572 -3e-4,0.0761 0.017,0.0559 0.017,-0.0219 0.029,0.002 0.049,0.0821 0.017,0.0614 0.038,0.12721 0.049,0.14791 0.017,0.0205 0.017,0.0823 0,0.13815 0,0.0671 -5e-4,0.0926 0.016,0.0722 0.017,-0.0224 0.029,-0.003 0.049,0.0723 0.017,0.0577 0.026,0.13243 0.026,0.1644 0,0.0318 0.016,0.0651 0.02,0.0722 0.017,0.007 0.02,0.0814 0.02,0.1676 0,0.0979 -4e-4,0.14 0.016,0.11173 0.017,-0.0399 0.021,-0.0365 0.033,0.0264 0,0.0394 0.017,0.14236 0,0.23003 l 0,0.0559 c 0.017,-0.0974 0.016,-0.092 0.033,0.092 0.022,0.24164 0.023,1.40473 0,1.65966 -0.017,0.17685 -0.018,0.18156 -0.033,0.0821 -0.017,-0.0779 -0.017,-0.0663 0,0.0527 0.017,0.18897 -0.016,0.31248 -0.039,0.26621 -0.017,-0.0192 -0.02,0.0301 -0.016,0.13142 0,0.14252 -0.019,0.23204 -0.062,0.45029 0,0.0316 -0.021,0.0458 -0.036,0.0362 -0.019,-0.0118 -0.025,0.0121 -0.02,0.0821 l 0,0.13799 c -0.017,0.0205 -0.029,0.0803 -0.043,0.13478 -0.017,0.0612 -0.036,0.0951 -0.053,0.0855 -0.017,-0.0101 -0.02,0.009 -0.016,0.0658 0.017,0.049 0,0.0898 -0.02,0.0986 -0.017,0.008 -0.023,0.0348 -0.023,0.0591 0,0.0655 -0.05,0.16372 -0.075,0.14791 -0.017,-0.008 -0.017,0.0123 0,0.0559 0.017,0.0463 3e-4,0.0756 -0.017,0.0756 -0.017,0 -0.026,0.0187 -0.026,0.0427 0,0.0671 -0.062,0.17517 -0.079,0.13798 0,-0.0168 -0.017,-0.008 0,0.0231 0,0.0301 3e-4,0.0712 -0.017,0.092 -0.017,0.0209 -0.032,0.0673 -0.049,0.10197 -0.017,0.0347 -0.037,0.0569 -0.049,0.0493 -0.017,-0.009 -0.017,0.007 0,0.0459 0.017,0.0363 0,0.0624 0,0.0624 -0.017,0 -0.026,0.0172 -0.026,0.0394 -9e-4,0.0537 -0.055,0.12687 -0.079,0.10516 -0.017,-0.0101 -0.017,0.001 0,0.0231 0.017,0.0491 -0.076,0.23036 -0.1083,0.21034 -0.017,-0.008 -0.017,10e-4 -0.017,0.023 0,0.0204 0,0.0475 -0.02,0.0624 -0.019,0.0151 -0.028,0.0345 -0.026,0.0427 0,0.0279 -0.077,0.1676 -0.102,0.1676 -0.017,0 -0.018,0.0104 -0.016,0.0231 0.017,0.0279 -0.093,0.18897 -0.1151,0.1676 -0.017,-0.008 -0.016,0.002 -0.016,0.0229 0,0.0633 -0.05,0.15784 -0.085,0.15784 -0.019,0 -0.03,0.0106 -0.023,0.0263 0.017,0.0337 -0.041,0.0917 -0.062,0.069 -0.017,-0.008 -0.017,0.001 0,0.0199 0.017,0.0392 -0.087,0.17012 -0.1118,0.14454 -0.017,-0.0101 -0.016,-0.007 -0.016,0.007 0.017,0.049 5e-4,0.0824 -0.023,0.069 -0.017,-0.008 -0.02,0.002 -0.02,0.0231 0,0.0199 3e-4,0.0362 -0.016,0.0362 -0.017,0 -0.023,0.01 -0.023,0.0229 0,0.0323 -0.059,0.0926 -0.079,0.0789 0,-0.005 -0.017,-0.002 0,0.007 0.017,0.0151 -0.062,0.11879 -0.161,0.23339 -0.025,0.0283 -0.057,0.0441 -0.069,0.0362 -0.017,-0.008 -0.017,-0.004 0,0.0131 0.017,0.0182 0,0.0343 -0.033,0.0427 -0.03,0.008 -0.038,0.02 -0.023,0.0296 0.017,0.0101 -0.048,0.0872 -0.161,0.20377 -0.101,0.10433 -0.1769,0.19049 -0.171,0.19049 0,0 0,0.0158 -0.023,0.033 -0.017,0.0178 -0.033,0.0266 -0.039,0.0229 0,-0.003 -0.026,0.009 -0.043,0.0264 -0.017,0.0178 -0.023,0.0328 -0.016,0.0328 0,0 3e-4,0.0157 -0.016,0.0328 -0.017,0.0178 -0.038,0.0274 -0.046,0.0231 0,-0.005 -0.027,0.0158 -0.046,0.0427 -0.019,0.0266 -0.047,0.058 -0.062,0.0724 -0.017,0.0135 -0.092,0.0868 -0.1676,0.16103 -0.082,0.0796 -0.1493,0.12823 -0.1644,0.1183 -0.017,-0.0101 -0.023,-0.007 -0.02,0.007 0.018,0.031 -0.08,0.11846 -0.1183,0.10517 -0.017,-0.005 -0.028,-0.002 -0.02,0.01 0,0.0118 -0.016,0.0449 -0.043,0.0724 -0.032,0.0274 -0.056,0.0466 -0.056,0.0394 0,-0.007 -0.029,0.0194 -0.062,0.0592 -0.035,0.0421 -0.072,0.0665 -0.092,0.0592 -0.018,-0.007 -0.026,-0.004 -0.02,0.007 0,0.0101 -0.017,0.0417 -0.046,0.069 -0.032,0.0274 -0.059,0.0441 -0.059,0.0362 0,-0.008 -0.032,0.016 -0.072,0.0559 -0.054,0.0528 -0.079,0.0671 -0.092,0.0459 -0.017,-0.0214 -0.02,-0.0197 -0.02,0.007 -5e-4,0.0604 -0.1594,0.17585 -0.2203,0.16104 -0.017,-0.003 -0.017,0.002 0,0.01 0.019,0.019 -0.037,0.0821 -0.072,0.0821 -0.017,0 -0.026,0.0123 -0.026,0.0263 0,0.0135 -0.018,0.0177 -0.036,0.01 -0.02,-0.008 -0.028,-0.002 -0.02,0.01 0.017,0.022 -0.02,0.0328 -0.069,0.0229 -0.017,-0.003 -0.017,0.005 0,0.0131 0.025,0.0259 -0.05,0.0841 -0.089,0.0692 -0.02,-0.007 -0.031,-0.004 -0.023,0.007 0.019,0.0298 -0.1191,0.12536 -0.1511,0.10517 -0.017,-0.0101 -0.02,-0.007 -0.016,0.01 0.017,0.0252 -0.019,0.0367 -0.069,0.0263 -0.017,-0.003 -0.017,0.005 0,0.0133 0.029,0.0281 -0.045,0.0818 -0.089,0.0656 -0.024,-0.008 -0.036,-0.007 -0.026,0.003 0.032,0.0347 -0.094,0.11628 -0.161,0.10517 -0.017,-0.003 -0.025,0.006 -0.016,0.0197 0.017,0.0242 -0.1242,0.10904 -0.1612,0.0986 -0.017,-0.003 -0.034,0.0163 -0.052,0.0427 -0.019,0.0261 -0.047,0.0459 -0.066,0.0459 -0.018,0 -0.036,0.0133 -0.036,0.0263 0,0.0151 -0.017,0.0165 -0.046,0.007 -0.032,-0.01 -0.046,-0.005 -0.036,0.01 0.017,0.0263 -0.1156,0.11055 -0.1611,0.10197 -0.017,-0.003 -0.034,0.009 -0.043,0.0294 -0.017,0.0242 -0.027,0.0328 -0.052,0.0231 -0.022,-0.008 -0.032,-0.006 -0.023,0.003 0.022,0.0225 -0.07,0.0836 -0.099,0.0656 -0.017,-0.008 -0.033,0.002 -0.039,0.0231 -0.017,0.0254 -0.029,0.0301 -0.062,0.0197 -0.027,-0.008 -0.041,-0.005 -0.033,0.003 0.022,0.0232 -0.045,0.087 -0.079,0.0756 -0.017,-0.005 -0.047,0.01 -0.069,0.0328 -0.023,0.0231 -0.058,0.0428 -0.079,0.0428 -0.018,0 -0.036,0.01 -0.036,0.0231 0,0.0135 -0.021,0.0231 -0.046,0.0231 -0.025,0 -0.051,0.009 -0.059,0.0229 0,0.0135 -0.034,0.0175 -0.059,0.01 -0.029,-0.008 -0.043,-0.002 -0.039,0.0165 0,0.0151 -0.018,0.033 -0.03,0.0426 -0.019,0.0101 -0.057,0.0281 -0.086,0.0427 -0.029,0.0151 -0.07,0.021 -0.092,0.0131 -0.024,-0.008 -0.035,-0.007 -0.026,0.003 0.022,0.0239 -0.051,0.0813 -0.1051,0.0821 -0.022,5e-4 -0.039,0.0104 -0.039,0.0231 0,0.0135 -0.025,0.0189 -0.062,0.01 -0.042,-0.0101 -0.058,-0.007 -0.046,0.01 0.022,0.0358 -0.1582,0.11795 -0.2235,0.10197 -0.029,-0.007 -0.043,-0.004 -0.033,0.007 0.022,0.0236 -0.051,0.0777 -0.1052,0.0787 -0.022,5.1e-4 -0.039,0.0126 -0.039,0.0264 0,0.0135 -0.021,0.0182 -0.046,0.01 -0.029,-0.008 -0.062,0.003 -0.092,0.033 -0.027,0.0263 -0.07,0.0493 -0.095,0.0493 -0.025,0 -0.046,0.009 -0.046,0.0229 0,0.0135 -0.027,0.0156 -0.059,0.007 -0.037,-0.008 -0.056,-0.004 -0.056,0.0131 0,0.0357 -0.1598,0.10281 -0.2268,0.0954 -0.034,-0.003 -0.053,0.006 -0.049,0.0263 0,0.0187 -0.014,0.0306 -0.043,0.0296 -0.029,-0.001 -0.049,0.003 -0.043,0.01 0.022,0.0217 -0.078,0.0732 -0.1149,0.0592 -0.02,-0.008 -0.036,-0.002 -0.036,0.0131 0,0.0247 -0.1493,0.10265 -0.171,0.0888 0,-0.003 -0.031,0.01 -0.056,0.0328 -0.029,0.0258 -0.059,0.0363 -0.085,0.0263 -0.025,-0.0101 -0.038,-0.007 -0.03,0.007 0,0.0118 7e-4,0.034 -0.03,0.0493 -0.035,0.022 -0.046,0.0224 -0.046,0 0,-0.0152 -0.016,-0.003 -0.036,0.0263 -0.027,0.0375 -0.052,0.0468 -0.086,0.0362 -0.03,-0.0101 -0.043,-0.005 -0.033,0.01 0,0.0135 -0.017,0.0355 -0.056,0.0525 -0.039,0.017 -0.069,0.0387 -0.069,0.0493 0,0.0101 -0.022,0.0118 -0.049,0.003 -0.029,-0.008 -0.041,-0.005 -0.033,0.007 0.017,0.0232 -0.1209,0.11224 -0.1545,0.10181 -0.017,-0.003 -0.037,0.0168 -0.056,0.0427 -0.019,0.0261 -0.047,0.0461 -0.066,0.0461 -0.019,0 -0.036,0.0133 -0.036,0.0263 0,0.0151 -0.019,0.0183 -0.046,0.01 -0.03,-0.0101 -0.044,-0.004 -0.039,0.0131 0,0.0151 -0.016,0.0377 -0.039,0.0525 -0.025,0.0151 -0.054,0.037 -0.062,0.0493 -0.017,0.0118 -0.026,0.0167 -0.033,0.01 0,-0.008 -0.045,0.0168 -0.082,0.0559 -0.037,0.039 -0.066,0.0601 -0.066,0.0493 0,-0.0101 -0.021,0.002 -0.046,0.0262 -0.079,0.0779 -0.1062,0.0952 -0.1348,0.0855 -0.017,-0.005 -0.03,0.003 -0.03,0.0163 0,0.0365 -0.088,0.11965 -0.1117,0.10517 -0.017,-0.007 -0.03,0.006 -0.036,0.0264 0,0.0202 -0.024,0.029 -0.039,0.0197 -0.017,-0.0101 -0.02,-0.007 -0.017,0.007 0.017,0.0281 -0.039,0.0821 -0.062,0.0591 -0.017,-0.008 -0.017,3.3e-4 -0.017,0.0199 0,0.0195 -0.029,0.0547 -0.062,0.0788 -0.034,0.0241 -0.07,0.0592 -0.086,0.0757 -0.017,0.0168 -0.039,0.0405 -0.056,0.0559 -0.074,0.0688 -0.089,0.0872 -0.1411,0.15447 -0.03,0.0394 -0.062,0.0653 -0.072,0.0591 -0.017,-0.007 -0.023,0.0123 -0.03,0.0395 0,0.0268 -0.023,0.0402 -0.036,0.0328 -0.017,-0.007 -0.021,0.005 -0.02,0.0262 0,0.0224 -0.016,0.0397 -0.026,0.0362 -0.017,-0.003 -0.023,0.004 -0.016,0.0165 0.018,0.029 -0.046,0.0988 -0.069,0.0756 -0.017,-0.008 -0.017,-0.005 -0.017,0.007 0.017,0.0518 7e-4,0.0813 -0.026,0.0658 -0.017,-0.0101 -0.02,-0.004 -0.016,0.0163 0.017,0.0168 0.017,0.0345 0,0.0427 -0.017,0.008 -0.034,0.0368 -0.049,0.0624 -0.017,0.0256 -0.037,0.0431 -0.052,0.0395 -0.017,-0.003 -0.022,0.009 -0.017,0.0394 0.017,0.0271 5e-4,0.0459 -0.016,0.0459 -0.017,0 -0.026,0.0178 -0.026,0.0362 0,0.0183 -0.022,0.0495 -0.049,0.069 -0.029,0.0195 -0.044,0.0405 -0.036,0.0493 0.017,0.0168 -0.084,0.16138 -0.1447,0.21034 -0.02,0.0151 -0.052,0.0259 -0.072,0.0199 -0.019,-0.007 -0.025,-0.005 -0.016,0.003 0.02,0.0205 -0.04,0.0789 -0.082,0.0789 -0.019,0 -0.041,0.005 -0.049,0.0131 -0.022,0.0217 -0.4338,0.0249 -0.4471,0.003 l -0.02,0 c 0,-0.0101 -0.026,-0.0163 -0.046,-0.0163 -0.054,0 -0.1727,-0.0932 -0.1545,-0.12166 0.017,-0.0135 3e-4,-0.018 -0.016,-0.01 -0.029,0.0182 -0.084,-0.0385 -0.059,-0.0626 0.017,-0.0101 0,-0.0131 -0.016,-0.01 -0.024,0.005 -0.031,-0.007 -0.026,-0.0394 0,-0.0256 0,-0.0385 -0.02,-0.0296 -0.017,0.008 -0.032,-0.002 -0.053,-0.0231 -0.029,-0.0293 -0.03,-0.038 0,-0.0459 0.022,-0.007 0.017,-0.0222 -0.016,-0.0461 -0.037,-0.0256 -0.043,-0.0466 -0.033,-0.092 0.017,-0.0375 0,-0.0549 0,-0.0459 -0.027,0.0168 -0.075,-0.0813 -0.075,-0.14791 0,-0.0242 -0.018,-0.0481 -0.023,-0.0559 -0.017,-0.008 -0.016,-0.0478 -0.016,-0.0887 l 0,-0.0427 c -0.019,0.0399 -0.079,-0.0941 -0.079,-0.17433 0,-0.0296 -0.018,-0.0584 -0.023,-0.0656 -0.017,-0.007 -0.017,-0.0543 0,-0.10197 l 0,-0.0656 c -0.025,0.0234 -0.079,-0.11022 -0.079,-0.19402 0,-0.036 -0.019,-0.071 -0.026,-0.0788 -0.017,-0.008 -0.017,-0.0639 -0.017,-0.12502 0,-0.0705 5e-4,-0.0986 -0.016,-0.0788 -0.02,0.0291 -0.035,-0.0284 -0.086,-0.31888 0,-0.0446 -0.02,-0.17769 -0.02,-0.29245 3e-4,-0.13563 0,-0.18561 -0.017,-0.14791 -0.034,0.10752 -0.062,-0.24181 -0.062,-0.80198 0,-0.56859 0.027,-0.89386 0.062,-0.81174 0.017,0.0296 0.017,-0.0231 0.017,-0.14455 0,-0.11038 -5e-4,-0.1957 0.016,-0.20377 0.017,-0.008 0.023,-0.0507 0.023,-0.0954 0,-0.12789 0.047,-0.2965 0.072,-0.25965 0.017,0.0204 0.016,-0.0135 0.016,-0.0919 0,-0.0666 -3e-4,-0.12721 0.017,-0.13479 0.017,-0.007 0.023,-0.0365 0.023,-0.0658 0,-0.0836 0.049,-0.20092 0.075,-0.18409 0.017,0.0101 0.02,-0.0101 0.017,-0.0591 l 0,-0.1151 c 0.017,-0.0219 0.036,-0.0833 0.053,-0.13798 0.02,-0.0705 0.034,-0.09 0.049,-0.069 0.017,0.0192 0.017,0.002 0,-0.0461 0,-0.0411 -3e-4,-0.0811 0.017,-0.0887 0.017,-0.008 0.023,-0.0343 0.023,-0.0624 9e-4,-0.0616 0.055,-0.13882 0.082,-0.11509 0.017,0.0101 0.017,-0.01 0,-0.0394 l 0,-0.092 c 0.017,-0.0209 0.032,-0.071 0.049,-0.11174 0.02,-0.0513 0.037,-0.0651 0.052,-0.0459 0.017,0.0173 0.017,0.007 0,-0.0264 l 0,-0.0952 c 0.017,-0.0209 0.029,-0.0639 0.046,-0.0986 0.017,-0.0347 0.039,-0.0591 0.049,-0.0525 0.017,0.007 0.017,-0.003 0,-0.0199 0,-0.0177 -7e-4,-0.0463 0.023,-0.0624 0.02,-0.0168 0.033,-0.038 0.026,-0.0493 -0.017,-0.0273 0.047,-0.11644 0.069,-0.0952 0.017,0.008 0.015,-0.001 0,-0.0231 -0.017,-0.0256 -7e-4,-0.0466 0.023,-0.0559 0.025,-0.0101 0.033,-0.0308 0.023,-0.0591 l 0,-0.0427 c 0.017,0 0.036,-0.0308 0.053,-0.069 0.017,-0.0394 0.042,-0.0646 0.056,-0.056 0.017,0.0101 0.02,-10e-4 0.016,-0.0294 -0.017,-0.0466 0.032,-0.10904 0.059,-0.0823 0.017,0.008 0.017,-0.005 0,-0.0263 -0.017,-0.0256 -5e-4,-0.0432 0.023,-0.0525 0.02,-0.008 0.034,-0.0251 0.033,-0.0396 0,-0.0432 0.031,-0.10954 0.052,-0.0952 0.017,0.007 0.022,0.005 0.02,-0.007 -0.017,-0.0495 0,-0.0776 0.026,-0.0624 0.017,0.0101 0.02,0.007 0.016,-0.0131 -0.017,-0.0168 -0.017,-0.0379 0,-0.0461 0.017,-0.008 0.034,-0.0335 0.049,-0.0591 0.017,-0.0256 0.041,-0.0465 0.056,-0.0427 0.017,0.003 0.023,-0.007 0.017,-0.0296 -0.017,-0.0407 0.039,-0.11207 0.066,-0.0855 0.017,0.008 0.016,0.005 0.016,-0.007 -0.017,-0.049 -5e-4,-0.0825 0.023,-0.069 0.017,0.008 0.016,-0.002 0.016,-0.0231 0,-0.0199 -5e-4,-0.0362 0.016,-0.0362 0.017,0 0.026,-0.01 0.026,-0.0229 0,-0.0363 0.059,-0.0914 0.079,-0.0724 0.017,0.008 0.02,0.002 0.02,-0.01 -0.017,-0.0495 0.03,-0.12452 0.072,-0.13798 0.023,-0.008 0.038,-0.0234 0.03,-0.0362 0,-0.0135 0.016,-0.0321 0.036,-0.0394 0.029,-0.007 0.04,-0.0177 0.026,-0.0263 -0.017,-0.0101 0,-0.0365 0.03,-0.0724 0.029,-0.0316 0.073,-0.0868 0.095,-0.12166 0.023,-0.0348 0.057,-0.0624 0.076,-0.0624 0.019,0 0.026,-0.0109 0.02,-0.0231 -0.017,-0.0264 0.044,-0.0744 0.066,-0.0525 0.017,0.008 0.016,-0.004 0,-0.0263 -0.017,-0.0229 -3e-4,-0.0395 0.016,-0.0395 0.017,0 0.026,-0.0108 0.026,-0.0263 0,-0.0151 0.029,-0.0516 0.066,-0.0756 0.035,-0.0239 0.083,-0.0742 0.1051,-0.11173 0.022,-0.0375 0.047,-0.0597 0.059,-0.0527 0.017,0.007 0.026,-0.009 0.033,-0.0362 0,-0.0308 0.026,-0.0439 0.043,-0.0328 0.017,0.0101 0.021,0.0103 0.016,-0.007 -0.02,-0.033 0.1193,-0.19722 0.1513,-0.17753 0.017,0.008 0.018,0.007 0.016,-0.007 -0.019,-0.0301 0.1326,-0.17786 0.1579,-0.15447 0.017,0.0101 0.017,0.009 0,-0.007 -0.018,-0.032 0.085,-0.13243 0.1117,-0.10836 0.017,0.0101 0.017,0.004 0,-0.01 -0.02,-0.034 0.1403,-0.17551 0.1742,-0.15447 0.017,0.0101 0.018,0.004 0.016,-0.0131 -0.017,-0.0168 0,-0.0318 0.036,-0.0427 0.027,-0.0101 0.049,-0.0306 0.049,-0.0427 5e-4,-0.0118 0.018,-0.0189 0.023,-0.0163 0.017,0.003 0.018,-0.007 0.017,-0.0231 0,-0.0151 -5e-4,-0.0263 0.023,-0.0231 0.017,0.003 0.037,-0.0172 0.049,-0.0459 0.017,-0.0288 0.047,-0.0693 0.079,-0.092 0.032,-0.0227 0.09,-0.0742 0.1316,-0.11173 0.042,-0.0375 0.087,-0.0607 0.099,-0.0527 0.017,0.008 0.016,0.004 0.016,-0.01 0,-0.0118 0,-0.0377 0.036,-0.0559 0.027,-0.0183 0.085,-0.0644 0.1282,-0.10517 0.051,-0.0463 0.093,-0.068 0.115,-0.0592 0.022,0.008 0.031,0.002 0.023,-0.0131 0,-0.0135 0.014,-0.0449 0.04,-0.0724 0.032,-0.0274 0.059,-0.0444 0.059,-0.0394 0,0.005 0.032,-0.0217 0.072,-0.0592 0.04,-0.0373 0.077,-0.0648 0.082,-0.0591 0,0.005 0.038,-0.021 0.076,-0.0592 0.04,-0.0419 0.079,-0.0629 0.095,-0.0525 0.019,0.0118 0.021,0.007 0.016,-0.01 -0.017,-0.0252 0.019,-0.0367 0.069,-0.0263 0.017,0.003 0.017,-0.005 0,-0.0131 -0.017,-0.008 0,-0.0301 0.016,-0.0493 0.019,-0.0192 0.043,-0.0298 0.049,-0.0231 0,0.007 0.04,-0.0202 0.079,-0.0592 0.037,-0.039 0.069,-0.0639 0.069,-0.0559 0,0.008 0.056,-0.0279 0.1216,-0.0788 0.069,-0.052 0.1343,-0.0862 0.1545,-0.0789 0.019,0.007 0.028,0.005 0.02,-0.003 -0.032,-0.0313 0.1003,-0.11543 0.1642,-0.10517 0.017,0.003 0.026,-0.007 0.023,-0.0229 0,-0.0342 0.1206,-0.11022 0.161,-0.0954 0.017,0.007 0.03,-0.004 0.026,-0.0197 -0.017,-0.0367 0.1206,-0.11139 0.1644,-0.0952 0.02,0.007 0.027,0.002 0.017,-0.0131 -0.017,-0.0152 0.015,-0.0384 0.052,-0.0559 0.039,-0.017 0.069,-0.0421 0.069,-0.0527 0,-0.0101 0.022,-0.0118 0.049,-0.003 0.032,0.0101 0.043,0.009 0.033,-0.007 -0.018,-0.0301 0.1237,-0.10719 0.1808,-0.0986 0.024,0.003 0.036,-0.009 0.033,-0.0263 0,-0.0168 0.019,-0.0279 0.036,-0.0263 0.022,0.002 0.033,-0.006 0.026,-0.0165 -0.017,-0.0239 0.061,-0.0528 0.1151,-0.0459 0.025,0.003 0.036,-0.005 0.026,-0.0197 -0.017,-0.0135 0.016,-0.0397 0.049,-0.0559 0.035,-0.0151 0.072,-0.0379 0.079,-0.0493 0,-0.0118 0.024,-0.0118 0.039,-0.003 0.017,0.008 0.047,-0.006 0.072,-0.0328 0.027,-0.0259 0.065,-0.0461 0.085,-0.0461 0.019,0 0.033,-0.0133 0.033,-0.0263 0,-0.0135 0.022,-0.0182 0.049,-0.01 0.027,0.008 0.043,0.005 0.043,-0.01 0,-0.0281 0.1587,-0.10618 0.2005,-0.0986 0.017,0.002 0.041,-0.0116 0.056,-0.0296 0.017,-0.018 0.05,-0.0281 0.079,-0.0229 0.029,0.005 0.037,0.005 0.02,-0.003 -0.022,-0.0101 -0.016,-0.0236 0.033,-0.0459 0.034,-0.0177 0.069,-0.0291 0.079,-0.0231 0.017,0.007 0.034,-0.004 0.049,-0.0231 0.017,-0.0214 0.047,-0.0284 0.075,-0.0197 0.027,0.008 0.038,0.004 0.03,-0.01 -0.024,-0.0367 0.1988,-0.12738 0.2565,-0.10517 0.023,0.0101 0.033,0.005 0.023,-0.01 -0.017,-0.0135 0.019,-0.0368 0.062,-0.0527 0.04,-0.0152 0.092,-0.0384 0.1119,-0.0493 0.02,-0.0101 0.06,-0.0133 0.089,-0.007 0.032,0.008 0.048,0.005 0.039,-0.01 -0.017,-0.0268 0.079,-0.0757 0.148,-0.0757 0.025,0 0.046,-0.013 0.046,-0.0263 0,-0.0152 0.027,-0.0175 0.072,-0.007 0.044,0.0101 0.068,0.007 0.059,-0.007 -0.017,-0.0256 0.082,-0.0756 0.1479,-0.0756 0.023,0 0.051,-0.009 0.059,-0.0231 0.017,-0.0135 0.047,-0.019 0.095,-0.01 0.057,0.0101 0.079,0.009 0.069,-0.01 -0.017,-0.0151 0.02,-0.0363 0.082,-0.0527 0.054,-0.0151 0.1161,-0.035 0.1381,-0.0459 0.022,-0.0101 0.078,-0.0118 0.1249,-0.003 0.056,0.008 0.082,0.002 0.072,-0.0131 -0.017,-0.0261 0.1317,-0.0756 0.2236,-0.0756 0.034,0 0.067,-0.009 0.076,-0.0231 0,-0.0135 0.032,-0.0178 0.056,-0.01 0.029,0.0101 0.081,-0.0244 0.1708,-0.10853 0.071,-0.0663 0.125,-0.12822 0.1185,-0.13798 0,-0.0101 0,-0.0247 0.016,-0.0328 0.034,-0.0207 0.03,-0.34377 0,-0.37793 -0.017,-0.0152 -0.021,-0.0296 -0.016,-0.0296 0,0 -0.024,-0.0342 -0.066,-0.0789 -0.044,-0.0446 -0.088,-0.0821 -0.102,-0.0821 -0.017,0 -0.023,-0.01 -0.023,-0.0231 0,-0.0135 -0.018,-0.0229 -0.04,-0.0231 -0.025,-1.7e-4 -0.03,-0.006 -0.016,-0.0163 0.017,-0.0101 -0.084,-0.019 -0.2203,-0.0199 -0.1363,-6.7e-4 -0.2225,0.005 -0.1907,0.0133 0.054,0.0135 0.055,0.0167 -0.023,0.0328 -0.044,0.008 -0.133,0.0257 -0.1973,0.0394 -0.064,0.0135 -0.1697,0.0263 -0.2333,0.0264 -0.064,1.7e-4 -0.096,0.003 -0.069,0.01 0.035,0.008 0.02,0.019 -0.059,0.0427 -0.057,0.0173 -0.1305,0.0327 -0.1642,0.0328 -0.034,1.6e-4 -0.071,0.01 -0.079,0.0231 0,0.0135 -0.056,0.0173 -0.1118,0.01 -0.061,-0.008 -0.084,-0.004 -0.066,0.01 0.022,0.0151 8e-4,0.0289 -0.069,0.0493 -0.054,0.0151 -0.1299,0.0382 -0.1676,0.0493 -0.039,0.0118 -0.1027,0.0167 -0.1414,0.01 -0.047,-0.008 -0.06,-0.005 -0.039,0.01 0.022,0.0151 5e-4,0.0289 -0.079,0.0493 -0.061,0.0152 -0.1292,0.0377 -0.1511,0.0493 -0.022,0.0118 -0.073,0.015 -0.1151,0.007 -0.052,-0.0101 -0.069,-0.007 -0.059,0.01 0.017,0.0168 -0.023,0.0348 -0.085,0.0525 -0.054,0.0151 -0.1067,0.0365 -0.1185,0.0461 -0.017,0.0101 -0.056,0.0116 -0.1018,0.003 -0.052,-0.008 -0.079,-0.005 -0.069,0.01 0.017,0.0264 -0.077,0.0789 -0.1447,0.0789 -0.024,0 -0.049,0.009 -0.056,0.0197 0,0.0101 -0.045,0.0133 -0.085,0.007 -0.05,-0.007 -0.068,-0.002 -0.062,0.0197 0,0.0172 -0.03,0.0414 -0.079,0.0559 -0.047,0.0135 -0.094,0.0306 -0.102,0.0396 -0.017,0.008 -0.048,0.01 -0.085,0.003 -0.049,-0.0101 -0.064,-0.002 -0.059,0.0197 0,0.0177 -0.028,0.038 -0.079,0.0527 -0.047,0.0135 -0.092,0.0335 -0.1018,0.0427 -0.017,0.0101 -0.042,0.01 -0.072,0.003 -0.04,-0.0101 -0.054,-0.003 -0.049,0.0197 0,0.0227 -0.018,0.0296 -0.076,0.0264 -0.044,-0.002 -0.066,-5e-4 -0.049,0.007 0.02,0.008 0.018,0.0239 -0.033,0.0459 -0.047,0.0246 -0.069,0.0259 -0.082,0.007 -0.017,-0.0182 -0.024,-0.01 -0.043,0.0231 -0.02,0.0387 -0.04,0.047 -0.089,0.0362 -0.039,-0.008 -0.053,-0.005 -0.036,0.007 0.019,0.0135 0,0.0286 -0.046,0.0493 -0.04,0.0168 -0.093,0.0414 -0.1151,0.0525 -0.02,0.0118 -0.06,0.0133 -0.089,0.007 -0.032,-0.008 -0.048,-0.005 -0.04,0.01 0,0.0135 -0.017,0.0363 -0.049,0.0525 -0.035,0.017 -0.08,0.0384 -0.1018,0.0493 -0.022,0.0118 -0.06,0.0151 -0.082,0.007 -0.023,-0.008 -0.033,-0.009 -0.023,0.003 0.027,0.0299 -0.1838,0.12401 -0.2432,0.10853 -0.034,-0.008 -0.045,-0.005 -0.033,0.0131 0.02,0.0338 -0.1618,0.12385 -0.2136,0.10517 -0.022,-0.008 -0.033,-0.007 -0.023,0.003 0.022,0.0239 -0.048,0.0813 -0.1018,0.0823 -0.022,3.4e-4 -0.043,0.0103 -0.043,0.0229 0,0.0135 -0.024,0.0188 -0.059,0.01 -0.044,-0.0101 -0.058,-0.005 -0.046,0.0131 0.017,0.0151 -0.017,0.0352 -0.049,0.0525 -0.035,0.0151 -0.07,0.0379 -0.079,0.0493 0,0.0118 -0.028,0.0151 -0.043,0.007 -0.017,-0.008 -0.045,0.006 -0.072,0.0328 -0.025,0.0259 -0.062,0.0459 -0.082,0.0459 -0.018,0 -0.036,0.0133 -0.036,0.0263 0,0.0136 -0.019,0.0183 -0.043,0.01 -0.029,-0.008 -0.049,-0.002 -0.059,0.023 -0.017,0.0244 -0.027,0.0328 -0.053,0.0231 -0.022,-0.008 -0.031,-0.01 -0.023,0 0.027,0.0267 -0.071,0.0794 -0.1151,0.0624 -0.027,-0.0101 -0.035,-0.004 -0.023,0.0131 0.017,0.0276 -0.1139,0.11089 -0.161,0.10181 -0.017,-0.003 -0.034,0.01 -0.043,0.0296 -0.017,0.0247 -0.032,0.0316 -0.066,0.0231 -0.029,-0.007 -0.036,-0.004 -0.02,0.003 0.024,0.0101 0.019,0.0212 -0.017,0.0461 -0.027,0.0185 -0.057,0.0267 -0.069,0.0197 -0.017,-0.007 -0.028,0.006 -0.036,0.0263 -0.017,0.0242 -0.031,0.0296 -0.062,0.0197 -0.03,-0.0101 -0.044,-0.005 -0.04,0.0131 0,0.0358 -0.1222,0.11123 -0.1642,0.0954 -0.02,-0.007 -0.027,0.001 -0.017,0.0165 0.017,0.0151 -0.019,0.0382 -0.056,0.0559 -0.039,0.017 -0.069,0.0375 -0.069,0.0459 0,0.008 -0.021,0.01 -0.046,0.003 -0.032,-0.008 -0.045,-0.004 -0.04,0.0165 0,0.0172 -0.017,0.0427 -0.046,0.0559 -0.029,0.0135 -0.053,0.0321 -0.053,0.0427 0,0.0101 -0.021,0.0133 -0.046,0.007 -0.032,-0.0101 -0.048,-0.007 -0.043,0.0131 0,0.0168 -0.014,0.0427 -0.043,0.0559 -0.029,0.0135 -0.052,0.0321 -0.052,0.0427 0,0.0101 -0.024,0.0101 -0.049,0.003 -0.032,-0.0101 -0.045,-0.004 -0.039,0.0163 0,0.0168 -0.017,0.0395 -0.046,0.0527 -0.029,0.0135 -0.053,0.0323 -0.053,0.0427 0,0.0101 -0.016,0.0133 -0.02,0.007 -0.017,-0.007 -0.052,0.0183 -0.092,0.0559 -0.04,0.0382 -0.088,0.0631 -0.1083,0.0559 -0.02,-0.008 -0.033,0.003 -0.033,0.0231 0,0.019 -0.034,0.0456 -0.076,0.0624 -0.042,0.0168 -0.088,0.0471 -0.1018,0.0656 -0.017,0.0202 -0.037,0.0276 -0.056,0.0165 -0.019,-0.0118 -0.025,-0.0118 -0.016,0.003 0,0.0135 -2e-4,0.0367 -0.02,0.0525 -0.019,0.0151 -0.036,0.0222 -0.036,0.0131 0,-0.0101 -0.035,0.0158 -0.076,0.0559 -0.049,0.0476 -0.077,0.0634 -0.089,0.0461 -0.017,-0.0168 -0.023,-0.009 -0.033,0.0229 -0.017,0.0281 -0.023,0.0468 -0.03,0.0395 0,-0.007 -0.028,0.007 -0.046,0.0328 -0.019,0.0263 -0.049,0.0431 -0.066,0.0362 -0.018,-0.007 -0.033,5e-4 -0.033,0.0197 0,0.0215 -0.014,0.0293 -0.036,0.0197 -0.025,-0.0101 -0.035,-0.005 -0.026,0.01 0.02,0.032 -0.101,0.12031 -0.1447,0.10517 -0.018,-0.007 -0.025,-0.001 -0.016,0.0131 0.02,0.0321 -0.116,0.12671 -0.1513,0.10517 -0.017,-0.0101 -0.02,-0.007 -0.016,0.007 0,0.0135 -0.017,0.0483 -0.043,0.0756 -0.032,0.0274 -0.056,0.0446 -0.056,0.0395 0,-0.005 -0.034,0.0193 -0.072,0.0559 -0.044,0.0412 -0.082,0.0614 -0.1052,0.0525 -0.022,-0.008 -0.035,-0.005 -0.026,0.01 0,0.0135 -0.014,0.0448 -0.04,0.0722 -0.032,0.0274 -0.059,0.0458 -0.059,0.0395 0,-0.007 -0.03,0.0231 -0.069,0.0624 -0.042,0.0431 -0.079,0.0629 -0.095,0.0525 -0.017,-0.0101 -0.021,-0.009 -0.016,0.007 0,0.0135 -0.017,0.0449 -0.043,0.0724 -0.032,0.0274 -0.056,0.0421 -0.056,0.033 0,-0.009 -0.032,0.0172 -0.069,0.0591 -0.04,0.0441 -0.083,0.072 -0.099,0.0624 -0.017,-0.0101 -0.02,-0.009 -0.016,0.007 0.019,0.0284 -0.072,0.10399 -0.1018,0.0855 -0.017,-0.007 -0.023,-0.003 -0.023,0.01 0,0.05 -0.2953,0.31299 -0.3286,0.29246 -0.017,-0.007 -0.016,-0.004 -0.016,0.01 0,0.0261 -0.2033,0.23709 -0.2203,0.22026 0,-0.007 -0.018,0.01 -0.026,0.0362 0,0.0264 -0.026,0.0493 -0.036,0.0493 -0.017,0 -0.08,0.0612 -0.1611,0.13798 -0.079,0.0767 -0.1578,0.13344 -0.1708,0.12486 -0.017,-0.008 -0.018,-0.005 -0.016,0.01 0.02,0.0338 -0.072,0.12621 -0.1052,0.10517 -0.017,-0.008 -0.02,-0.005 -0.016,0.007 0.018,0.0301 -0.086,0.13175 -0.1117,0.10853 -0.017,-0.0101 -0.017,-0.009 0,0.007 0.018,0.032 -0.085,0.13243 -0.1118,0.10837 -0.017,-0.0101 -0.017,-0.005 0,0.01 0.017,0.0168 -0.091,0.13579 -0.2497,0.29582 -0.1464,0.14774 -0.2589,0.2694 -0.2531,0.2694 0,0 0,0.0156 -0.02,0.0328 -0.017,0.0178 -0.036,0.0268 -0.043,0.0231 0,-0.003 -0.023,0.009 -0.039,0.0263 -0.017,0.0178 -0.027,0.033 -0.02,0.033 0,0 -0.016,0.0244 -0.036,0.0559 -0.027,0.0315 -0.06,0.0507 -0.076,0.0427 -0.017,-0.008 -0.018,-0.005 0,0.007 0.022,0.0241 -0.025,0.086 -0.052,0.069 -0.017,-0.007 -0.017,0.004 0,0.0263 0.017,0.0303 0,0.0372 -0.023,0.0263 -0.024,-0.008 -0.035,-0.004 -0.03,0.0133 0,0.0151 -0.041,0.0843 -0.1052,0.15447 -0.064,0.07 -0.1149,0.11779 -0.1149,0.10501 0,-0.0135 -0.019,0.0146 -0.043,0.0592 -0.023,0.0446 -0.054,0.0759 -0.069,0.0724 -0.017,-0.003 -0.023,0.006 -0.016,0.0197 0.017,0.0135 -0.019,0.054 -0.053,0.0887 -0.037,0.0348 -0.082,0.093 -0.1052,0.12822 -0.024,0.0352 -0.054,0.0567 -0.066,0.0493 -0.017,-0.007 -0.017,0.004 0,0.0231 0,0.0199 3e-4,0.0362 -0.016,0.0362 -0.017,0 -0.026,0.0146 -0.026,0.0328 0,0.0183 -0.019,0.0377 -0.046,0.0459 -0.025,0.008 -0.04,0.0276 -0.033,0.0395 0,0.0118 -0.016,0.031 -0.039,0.0427 -0.03,0.0118 -0.043,0.0221 -0.026,0.0229 0.025,10e-4 0.025,0.007 0,0.0362 -0.046,0.0496 -0.073,0.0829 -0.1316,0.16759 -0.029,0.0416 -0.06,0.0697 -0.072,0.0624 -0.017,-0.007 -0.017,0.002 -0.017,0.0199 0,0.0183 -0.017,0.0567 -0.053,0.0887 -0.035,0.0311 -0.08,0.0855 -0.099,0.11829 -0.089,0.15262 -0.1676,0.24904 -0.1873,0.23659 -0.017,-0.008 -0.017,0.002 0,0.0231 0.017,0.0453 -0.1513,0.2196 -0.1972,0.20378 -0.02,-0.007 -0.025,5.1e-4 -0.016,0.0165 0.056,0.0894 -0.4609,0.14236 -0.6409,0.0656 -0.049,-0.0204 -0.089,-0.0471 -0.089,-0.0591 0,-0.0118 -0.022,-0.0291 -0.049,-0.0362 -0.027,-0.007 -0.041,-0.0219 -0.033,-0.0362 0.017,-0.0135 5e-4,-0.0232 -0.016,-0.0197 -0.017,0.003 -0.03,-0.009 -0.026,-0.0231 0,-0.0151 -0.017,-0.0313 -0.043,-0.0394 -0.035,-0.0118 -0.045,-0.0276 -0.033,-0.0658 0.017,-0.0278 0,-0.0453 0,-0.0362 -0.017,0.008 -0.032,5e-4 -0.053,-0.0197 -0.052,-0.0515 -0.05,-0.47688 0,-0.57178 0.025,-0.0449 0.039,-0.054 0.049,-0.033 0,0.0168 0.017,-0.005 0,-0.0459 0,-0.0456 0,-0.0846 0.02,-0.10198 0.017,-0.0151 0.028,-0.0459 0.023,-0.0656 -0.017,-0.05 0.054,-0.17517 0.072,-0.13479 0,0.0168 -7e-4,-0.005 0,-0.0461 -0.017,-0.0564 -5e-4,-0.0781 0.023,-0.0887 0.024,-0.008 0.033,-0.0315 0.026,-0.0559 -0.017,-0.0515 0.046,-0.17836 0.066,-0.13478 0,0.0168 0.017,0.002 0,-0.0328 0,-0.038 -5e-4,-0.0739 0.023,-0.0952 0.02,-0.0195 0.031,-0.054 0.023,-0.0757 l 0,-0.0525 c 0.017,-0.008 0.031,-0.0508 0.043,-0.0954 0.017,-0.0466 0.039,-0.0794 0.056,-0.0756 0.022,0.005 0.027,-0.0104 0.016,-0.0624 0,-0.0401 -3e-4,-0.0724 0.017,-0.0724 0.017,0 0.023,-0.0143 0.023,-0.0328 0,-0.0586 0.054,-0.14993 0.079,-0.13479 0.017,0.008 0.018,-0.005 0.017,-0.036 -0.017,-0.0589 0.08,-0.27074 0.1084,-0.24332 0.017,0.0101 0.017,-0.0108 0,-0.0459 -0.017,-0.035 0,-0.0624 0,-0.0624 0.017,0 0.026,-0.0343 0.04,-0.0757 0.017,-0.0443 0.037,-0.0729 0.056,-0.069 0.022,0.005 0.025,-0.007 0.016,-0.0394 -0.017,-0.057 0.083,-0.26637 0.1117,-0.23996 0.017,0.0101 0.017,3.4e-4 0,-0.0231 l 0,-0.0821 c 0.017,-0.0219 0.032,-0.0698 0.049,-0.10517 0.022,-0.0475 0.034,-0.0545 0.049,-0.0328 0.017,0.0188 0.017,0.005 0,-0.0362 0,-0.037 0,-0.0624 0.02,-0.0624 0.017,0 0.023,-0.0172 0.023,-0.0394 10e-4,-0.0537 0.055,-0.12688 0.079,-0.10517 0.017,0.0101 0.017,-10e-4 0,-0.0231 -0.017,-0.0491 0.077,-0.23036 0.1085,-0.21034 0.017,0.008 0.016,-3.4e-4 0.016,-0.0231 -0.02,-0.0525 0.08,-0.23626 0.1086,-0.19722 0.017,0.0183 0.017,0.0104 0,-0.0229 -0.017,-0.0367 -7e-4,-0.0557 0.023,-0.0658 0.02,-0.008 0.03,-0.0306 0.023,-0.0493 -0.017,-0.0326 0.042,-0.10618 0.062,-0.0855 0,0.005 0.017,-0.0145 0.017,-0.0427 0,-0.0326 0.016,-0.0503 0.03,-0.0459 0.02,0.005 0.026,-0.005 0.016,-0.0296 -0.017,-0.0387 0.039,-0.13831 0.062,-0.11509 0,0.007 0.017,-0.007 0.017,-0.0294 0,-0.0247 0.015,-0.037 0.026,-0.033 0.022,0.005 0.031,-0.0106 0.023,-0.0427 l 0,-0.0459 c 0,0 0.026,-0.0306 0.043,-0.069 0.017,-0.0384 0.044,-0.0639 0.056,-0.0559 0.017,0.008 0.019,-0.005 0,-0.0362 -0.017,-0.0293 -3e-4,-0.0493 0.017,-0.0493 0.017,0 0.026,-0.0145 0.026,-0.0328 0,-0.0183 0.021,-0.0476 0.046,-0.0658 0.027,-0.0183 0.045,-0.0414 0.039,-0.0527 -0.017,-0.0326 0.083,-0.17146 0.1052,-0.15767 0.017,0.007 0.016,-0.003 0.016,-0.0197 -0.017,-0.0444 0.075,-0.18106 0.102,-0.1644 0.017,0.008 0.017,0.002 0,-0.0131 -0.02,-0.0321 0.04,-0.12637 0.066,-0.1018 0.017,0.0101 0.016,0.007 0.016,-0.007 -0.017,-0.0518 0,-0.0848 0.03,-0.0692 0.017,0.0101 0.02,0.007 0.017,-0.01 -0.017,-0.0247 0.066,-0.1671 0.1052,-0.18409 0.017,-0.003 0.017,-0.0199 0,-0.0362 0,-0.0168 0,-0.0421 0.02,-0.0559 0.04,-0.0335 0.037,-0.45366 0,-0.50279 -0.017,-0.019 -0.022,-0.0458 -0.017,-0.0592 l 0,-0.0229 c -0.017,0 -0.041,-0.0313 -0.062,-0.0692 -0.04,-0.067 -0.1559,-0.19317 -0.1873,-0.20361 -0.059,-0.0197 -0.1545,-0.0811 -0.1545,-0.0986 0,-0.0212 -0.045,-0.0231 -0.2761,-0.0231 -0.2693,1.7e-4 -0.3041,0.002 -0.2925,0.0197 0,0.0101 -0.019,0.0331 -0.053,0.0493 -0.035,0.0168 -0.078,0.0389 -0.099,0.0493 -0.02,0.0101 -0.062,0.0118 -0.092,0.003 -0.03,-0.007 -0.05,-0.005 -0.04,0.007 0.024,0.0249 -0.1821,0.12771 -0.2235,0.11173 -0.017,-0.007 -0.037,0.004 -0.046,0.0263 -0.017,0.0286 -0.032,0.0372 -0.079,0.0263 -0.04,-0.0101 -0.053,-0.007 -0.033,0.007 0.024,0.0152 0.019,0.0229 -0.023,0.0362 -0.03,0.0101 -0.075,0.0148 -0.099,0.0131 -0.023,-0.002 -0.038,0.006 -0.03,0.0197 0.019,0.0301 -0.045,0.0513 -0.095,0.033 -0.022,-0.008 -0.031,-0.005 -0.023,0.007 0.017,0.0101 -8e-4,0.0336 -0.033,0.0525 -0.037,0.0263 -0.052,0.0274 -0.066,0.007 -0.017,-0.0209 -0.019,-0.017 -0.03,0.01 -0.018,0.0466 -0.2674,0.16272 -0.3384,0.15767 -0.03,-0.002 -0.045,0.004 -0.036,0.0165 0.017,0.0284 -0.1459,0.10382 -0.2071,0.0952 -0.024,-0.003 -0.038,0.003 -0.03,0.0165 0.018,0.0286 -0.1424,0.11072 -0.2005,0.10197 -0.027,-0.003 -0.04,0.004 -0.03,0.0197 0.017,0.0263 -0.1373,0.10399 -0.1873,0.0952 -0.017,-0.003 -0.031,0.0138 -0.039,0.033 -0.017,0.0372 -0.1217,0.0924 -0.1676,0.0853 -0.017,-0.002 -0.034,0.0121 -0.043,0.033 -0.017,0.0247 -0.032,0.0316 -0.066,0.0229 -0.029,-0.007 -0.036,-0.008 -0.02,0 0.047,0.0212 -0.055,0.0816 -0.1051,0.0624 -0.027,-0.0101 -0.033,-0.007 -0.023,0.01 0.017,0.0276 -0.1171,0.11106 -0.1642,0.10197 -0.017,-0.003 -0.031,0.0121 -0.04,0.0328 -0.017,0.0242 -0.031,0.0328 -0.056,0.0231 -0.022,-0.008 -0.032,-0.009 -0.023,0 0.024,0.0232 -0.047,0.087 -0.075,0.069 -0.017,-0.008 -0.039,0.002 -0.056,0.0263 -0.018,0.0236 -0.034,0.0321 -0.036,0.0197 -5e-4,-0.0118 -0.014,0.003 -0.036,0.0328 -0.027,0.0389 -0.043,0.0437 -0.056,0.0231 -0.017,-0.0205 -0.026,-0.0131 -0.046,0.0231 -0.019,0.034 -0.041,0.0459 -0.066,0.0362 -0.022,-0.008 -0.033,-0.006 -0.023,0.003 0.034,0.033 -0.099,0.11342 -0.1676,0.10197 -0.019,-0.003 -0.025,0.005 -0.017,0.0131 0.032,0.0328 -0.099,0.11611 -0.1644,0.10517 -0.017,-0.003 -0.025,0.003 -0.016,0.0165 0.017,0.022 -0.113,0.10601 -0.1382,0.0919 0,-0.003 -0.027,0.0173 -0.046,0.0461 -0.02,0.0288 -0.054,0.0525 -0.072,0.0525 -0.019,0 -0.033,0.0106 -0.033,0.0231 0,0.0118 -0.018,0.015 -0.036,0.007 -0.022,-0.008 -0.033,0.002 -0.033,0.0231 0,0.019 -0.034,0.0463 -0.072,0.0624 -0.039,0.0168 -0.101,0.0584 -0.1414,0.0952 -0.04,0.0368 -0.077,0.0646 -0.082,0.0592 0,-0.005 -0.04,0.0167 -0.079,0.0525 -0.042,0.0384 -0.086,0.0607 -0.1084,0.0527 -0.022,-0.008 -0.03,-0.002 -0.02,0.0131 0.02,0.0315 -0.1184,0.10752 -0.1775,0.0986 -0.022,-0.003 -0.059,0.0128 -0.079,0.0328 -0.049,0.0495 -0.2492,0.0466 -0.299,-0.003 -0.022,-0.0222 -0.055,-0.0306 -0.085,-0.0231 -0.054,0.0135 -0.1917,-0.068 -0.171,-0.10181 0,-0.0101 5e-4,-0.0251 -0.016,-0.033 -0.017,-0.008 -0.023,-0.003 -0.023,0.0131 0,0.0168 -0.027,0.005 -0.056,-0.0263 -0.032,-0.0333 -0.043,-0.0638 -0.03,-0.0724 0.017,-0.008 6e-4,-0.0254 -0.023,-0.0394 -0.069,-0.0368 -0.1035,-0.15464 -0.1052,-0.36481 0,-0.20075 0.05,-0.37693 0.102,-0.34512 0.019,0.0118 0.023,0.005 0.016,-0.0229 -0.017,-0.0234 0,-0.0555 0.02,-0.0757 0.019,-0.019 0.036,-0.0274 0.036,-0.0197 0,0.008 0.018,-5e-4 0.033,-0.0163 0.019,-0.0168 0.028,-0.0345 0.023,-0.0427 -0.017,-0.0231 0.049,-0.0687 0.069,-0.0493 0.017,0.0101 0.02,0.003 0.02,-0.0165 0,-0.0192 -5e-4,-0.0326 0.02,-0.0296 0.017,0.003 0.023,-0.01 0.017,-0.0263 -0.017,-0.0323 0.1906,-0.26217 0.2234,-0.25308 0.017,0.003 0.02,-0.0108 0.02,-0.0296 0,-0.0192 0.018,-0.0328 0.026,-0.0328 0.017,0 0.018,-0.0109 0.017,-0.0231 -0.017,-0.0276 0.044,-0.0744 0.069,-0.0525 0.017,0.0101 0.017,0.005 0,-0.01 -0.017,-0.0151 0.022,-0.0658 0.066,-0.11173 0.045,-0.0461 0.079,-0.0882 0.079,-0.0952 0,-0.019 0.065,-0.0784 0.076,-0.069 0,0.005 0.019,-0.009 0.036,-0.0264 0.017,-0.0178 0.025,-0.0328 0.016,-0.0328 0,0 0.019,-0.0244 0.04,-0.0559 0.027,-0.0315 0.059,-0.0508 0.072,-0.0427 0.017,0.008 0.017,0.004 0,-0.01 -0.019,-0.0294 0.042,-0.0831 0.066,-0.0591 0.017,0.0101 0.016,0.003 0.016,-0.0165 0,-0.0192 -5e-4,-0.0326 0.02,-0.0296 0.017,0.003 0.023,-0.006 0.016,-0.0229 -0.017,-0.0331 0.41,-0.48311 0.4536,-0.48311 0.017,0 0.025,-0.005 0.02,-0.0131 -0.018,-0.0187 0.2455,-0.28606 0.2827,-0.28606 0.017,0 0.02,-0.0101 0.016,-0.0229 0,-0.0118 0.019,-0.0422 0.059,-0.0658 0.039,-0.0236 0.062,-0.0515 0.056,-0.0592 0,-0.008 0.019,-0.0328 0.056,-0.0559 0.039,-0.0231 0.066,-0.0528 0.066,-0.0656 -8e-4,-0.0135 0.029,-0.036 0.063,-0.0527 0.035,-0.0168 0.062,-0.0438 0.062,-0.0624 0,-0.0187 0.024,-0.048 0.056,-0.0624 0.032,-0.0151 0.059,-0.035 0.059,-0.0459 0,-0.0219 0.3008,-0.32056 0.4306,-0.42724 0.045,-0.0372 0.092,-0.0628 0.1051,-0.0592 0.017,0.003 0.018,-0.006 0.016,-0.0165 -0.017,-0.0281 0.091,-0.12367 0.115,-0.1018 0.017,0.0101 0.017,0.009 0,-0.007 -0.017,-0.0263 0.085,-0.13226 0.1051,-0.11173 0,0.007 0.021,-0.01 0.03,-0.0362 0,-0.0264 0.023,-0.0493 0.033,-0.0493 0.017,0 0.055,-0.0368 0.1019,-0.0821 0.049,-0.047 0.097,-0.0752 0.1118,-0.0658 0.017,0.0101 0.02,0.007 0.016,-0.007 0,-0.0135 0.016,-0.0459 0.043,-0.0756 0.032,-0.0296 0.059,-0.0449 0.059,-0.033 5e-4,0.0118 0.015,0.003 0.023,-0.0197 0.017,-0.0225 0.036,-0.0348 0.049,-0.0263 0.017,0.0101 0.019,0.005 0,-0.0131 -0.017,-0.018 9e-4,-0.0347 0.033,-0.0427 0.027,-0.007 0.049,-0.0209 0.049,-0.0328 0,-0.0409 0.1491,-0.15818 0.1841,-0.14471 0.019,0.007 0.028,0.005 0.02,-0.003 -0.024,-0.0236 0.031,-0.0838 0.059,-0.0658 0.017,0.008 0.017,0.004 0.017,-0.01 -0.025,-0.0399 0.034,-0.0614 0.062,-0.0229 0.017,0.019 0.038,0.0284 0.053,0.0229 0.045,-0.0152 0.1709,0.0501 0.1379,0.0723 -0.017,0.0101 0,0.0101 0.036,0.003 0.045,-0.0101 0.065,-0.003 0.082,0.0263 0.017,0.0242 0.037,0.0348 0.059,0.0263 0.02,-0.008 0.065,-8.4e-4 0.099,0.0165 0.04,0.0207 0.05,0.0348 0.029,0.0427 -0.017,0.007 0,0.0114 0.04,0.01 0.049,-0.002 0.067,0.008 0.062,0.0296 0,0.0241 0.015,0.0271 0.062,0.0165 0.04,-0.008 0.072,-0.004 0.072,0.01 0,0.0118 0.016,0.0199 0.033,0.0199 0.059,0 0.1531,0.0543 0.138,0.0788 -0.017,0.0151 0.014,0.0163 0.056,0.007 0.042,-0.008 0.072,-0.004 0.072,0.01 0,0.0118 0.019,0.0231 0.036,0.0231 0.057,0 0.1499,0.0523 0.1348,0.0756 0,0.0118 0.017,0.019 0.042,0.0165 0.03,-0.003 0.077,-3.3e-4 0.102,0.01 0.025,0.0101 0.075,0.0298 0.1084,0.0427 0.035,0.0135 0.056,0.0337 0.049,0.0461 0,0.0118 0.019,0.0194 0.043,0.0163 0.03,-0.003 0.073,0.003 0.099,0.0131 0.025,0.0101 0.076,0.0266 0.1118,0.0395 0.035,0.0135 0.054,0.036 0.046,0.0493 -0.017,0.0151 6e-4,0.0189 0.039,0.01 0.029,-0.008 0.072,-0.005 0.092,0.007 0.02,0.0101 0.071,0.0308 0.1117,0.0461 0.042,0.0152 0.071,0.039 0.062,0.0525 -0.017,0.0152 -8e-4,0.019 0.036,0.01 0.029,-0.008 0.07,-0.005 0.092,0.007 0.02,0.0101 0.071,0.034 0.1117,0.0493 0.04,0.0151 0.068,0.0367 0.059,0.0493 -0.017,0.0135 0,0.0183 0.036,0.01 0.027,-0.008 0.067,-0.005 0.089,0.007 0.024,0.0116 0.073,0.0338 0.1149,0.0491 0.042,0.0151 0.071,0.0367 0.062,0.0493 -0.017,0.0135 -6e-4,0.0185 0.033,0.01 0.027,-0.008 0.067,-0.004 0.089,0.01 0.024,0.0118 0.078,0.036 0.1183,0.0525 0.052,0.0205 0.065,0.0355 0.046,0.0493 -0.017,0.0118 -8e-4,0.015 0.033,0.007 0.04,-0.008 0.073,-6.7e-4 0.099,0.0231 0.02,0.02 0.047,0.0301 0.059,0.0231 0.017,-0.007 0.049,0.002 0.082,0.0197 0.044,0.0222 0.053,0.0362 0.033,0.0459 -0.017,0.008 -5e-4,0.0101 0.023,0.003 0.069,-0.0135 0.1237,0.007 0.1052,0.0394 -0.017,0.0151 0,0.017 0.043,0.007 0.034,-0.008 0.067,-0.004 0.076,0.01 0,0.0135 0.035,0.0231 0.059,0.0231 0.025,0 0.067,0.0197 0.092,0.0459 0.03,0.0296 0.065,0.0448 0.092,0.0362 0.024,-0.007 0.051,-0.004 0.059,0.01 0,0.0135 0.037,0.0227 0.066,0.0231 0.042,3.3e-4 0.045,0.007 0.017,0.0263 -0.027,0.019 -0.024,0.021 0.017,0.01 0.057,-0.0168 0.1497,0.004 0.1346,0.0296 0,0.008 0.1676,0.0163 0.3813,0.0163 0.2144,0 0.3806,-0.006 0.3682,-0.0131 -0.017,-0.008 0.028,-0.0293 0.089,-0.0459 0.062,-0.0168 0.1196,-0.0363 0.1314,-0.0461 0.017,-0.0101 0.037,-0.0133 0.056,-0.007 0.019,0.007 0.046,-0.006 0.062,-0.0294 0.019,-0.0259 0.044,-0.0316 0.062,-0.0199 0.02,0.0118 0.025,0.007 0.017,-0.01 -0.017,-0.0151 0,-0.031 0.039,-0.0395 0.032,-0.008 0.062,-0.0299 0.069,-0.0493 0,-0.0202 0.029,-0.0276 0.049,-0.0197 0.02,0.008 0.03,0.005 0.023,-0.007 0,-0.0118 0,-0.0335 0.023,-0.0493 0.019,-0.0151 0.036,-0.0202 0.036,-0.01 0,0.0101 0.021,-0.009 0.046,-0.0395 0.054,-0.0644 0.08,-0.092 0.1216,-0.12822 0.017,-0.0135 0.044,-0.0456 0.062,-0.0722 0.019,-0.0266 0.044,-0.0439 0.056,-0.0362 0.017,0.008 0.017,0.004 0,-0.01 -0.017,-0.0152 0.016,-0.066 0.039,-0.11173 0.039,-0.0564 0.062,-0.0732 0.072,-0.0525 0,0.0168 -9e-4,0.009 0,-0.0197 0,-0.0338 0,-0.0574 0.02,-0.0658 0.02,-0.008 0.03,-0.0326 0.023,-0.0592 0,-0.0247 -3e-4,-0.0459 0.017,-0.0459 0.017,0 0.026,-0.0168 0.026,-0.0362 0,-0.0199 0.016,-0.0279 0.023,-0.0197 0.017,0.0101 0.018,-0.008 0.016,-0.0459 -0.017,-0.0431 0,-0.0621 0.023,-0.0724 0.025,-0.0101 0.035,-0.0458 0.036,-0.12166 5e-4,-0.0256 0.01,-0.66198 0.01,-0.9827 -0.017,0.41479 -0.016,-0.1962 -0.016,-1.36064 0,-1.16427 -3e-4,-2.11971 0.016,-2.11971 0.017,0 0.017,0.61419 0.017,1.36384 l 0.013,-1.35408 0.056,-0.0362 c 0.032,-0.0204 0.07,-0.0331 0.089,-0.0262 0.019,0.007 0.039,-0.005 0.046,-0.0263 0.017,-0.0249 0.031,-0.0328 0.056,-0.0231 0.022,0.008 0.031,0.01 0.023,0 -0.029,-0.0283 0.063,-0.0759 0.1183,-0.0624 0.037,0.008 0.05,0.003 0.046,-0.0197 0,-0.022 0.017,-0.0296 0.062,-0.0263 0.039,0.003 0.056,-0.003 0.039,-0.01 -0.044,-0.0185 0.05,-0.083 0.095,-0.0656 0.019,0.007 0.041,-6.8e-4 0.049,-0.0231 0.017,-0.0281 0.032,-0.0358 0.079,-0.0263 0.035,0.007 0.05,0.007 0.033,0 -0.039,-0.0168 0.086,-0.085 0.128,-0.0692 0.017,0.007 0.041,-0.002 0.056,-0.0197 0.017,-0.0204 0.052,-0.0298 0.099,-0.0231 0.04,0.007 0.06,0.005 0.043,-0.003 -0.037,-0.0172 0.073,-0.0789 0.1381,-0.0789 0.024,0 0.048,-0.009 0.056,-0.0229 0,-0.0135 0.052,-0.0199 0.099,-0.0133 0.047,0.007 0.071,0.007 0.052,0 -0.04,-0.0182 0.094,-0.0788 0.1741,-0.0788 0.03,0 0.059,-0.0106 0.066,-0.0231 0,-0.0118 0.061,-0.0194 0.1217,-0.0131 0.061,0.005 0.089,0.003 0.062,-0.003 -0.037,-0.0101 -0.023,-0.0182 0.059,-0.0427 0.057,-0.0173 0.1403,-0.0326 0.1807,-0.0328 0.04,-1.7e-4 0.079,-0.0101 0.085,-0.0231 0,-0.0135 0.075,-0.0192 0.1578,-0.0131 0.087,0.007 0.1288,0.005 0.1018,-0.007 -0.034,-0.0152 0,-0.0291 0.1249,-0.0493 0.2724,-0.0427 0.4104,-0.0483 1.1141,-0.0493 z m -1.0089,0.0493 c -0.022,0.005 -9e-4,0.01 0.04,0.01 0.044,0 0.065,-0.005 0.043,-0.01 -0.022,-0.005 -0.061,-0.005 -0.082,0 z m 1.8208,0 c -0.029,0.005 -0.014,0.01 0.043,0.01 0.05,1.7e-4 0.071,-0.005 0.049,-0.01 -0.022,-0.005 -0.064,-0.006 -0.092,0 z m -14.8289,0.01 c 0,-0.0151 -0.016,-0.003 -0.016,0.0296 0,0.032 -3e-4,0.0454 0.016,0.0294 l 0,-0.0591 z m 1.4756,0.19722 c -0.086,0.005 -0.019,0.01 0.1676,0.01 0.1787,0 0.2501,-0.005 0.1578,-0.01 -0.092,-0.005 -0.2397,-0.005 -0.3254,0 z m 0.7986,0.0493 c -0.017,0.007 10e-4,0.0131 0.03,0.0131 0.032,0 0.046,-0.006 0.03,-0.0131 -0.017,-0.007 -0.043,-0.007 -0.059,0 z m -1.1107,0.0229 c -0.1161,0.0207 -0.1846,0.0421 -0.1808,0.0592 0,0.0151 0.016,0.0507 0.016,0.0789 0,0.0283 0.019,0.0525 0.033,0.0525 0.032,0 0.1216,0.092 0.1216,0.12485 0,0.0135 0.018,0.0231 0.026,0.0231 0.017,0 0.018,0.0199 0.016,0.0427 -0.017,0.0219 0,0.0321 0,0.0231 0.019,-0.0188 0.082,0.0268 0.069,0.0493 0,0.008 0,0.0263 0.026,0.0427 0.017,0.0168 0.03,0.0247 0.03,0.0163 0,-0.008 0.018,5e-4 0.036,0.0197 0.019,0.0192 0.036,0.0416 0.036,0.0493 0,0.008 0.051,0.0665 0.1151,0.13159 0.064,0.0651 0.1102,0.13158 0.1018,0.14454 0,0.0135 -3e-4,0.0153 0.017,0.007 0.017,-0.008 0.045,0.0114 0.072,0.0427 0.034,0.0379 0.04,0.0582 0.02,0.0658 -0.017,0.007 -0.017,0.0114 0.016,0.0131 0.022,10e-4 0.043,0.017 0.043,0.0362 0,0.0192 0.014,0.0326 0.026,0.0294 0.017,-0.003 0.026,0.01 0.023,0.0264 0,0.0168 -3e-4,0.022 0.017,0.0131 0.017,-0.008 0.033,0.0106 0.043,0.0394 0.017,0.0296 0.031,0.0559 0.043,0.0559 0.017,0 0.016,0.006 0.016,0.0165 0,0.0101 -3e-4,0.0133 0.017,0.007 0.017,-0.008 0.033,0.0106 0.043,0.0394 0.017,0.0296 0.031,0.0527 0.043,0.0527 0.017,0 0.016,0.009 0.016,0.0197 0,0.0101 -4e-4,0.01 0.017,0.003 0.017,-0.008 0.034,0.0108 0.046,0.0395 0.017,0.0294 0.021,0.0426 0.023,0.0263 8e-4,-0.0183 0.021,-0.0103 0.056,0.0231 0.03,0.0291 0.049,0.0628 0.043,0.0756 l 0,0.003 c 0.024,-0.0217 0.1319,0.0742 0.1151,0.10181 0,0.0101 -5e-4,0.0133 0.02,0.007 0.018,-0.007 0.037,0.006 0.046,0.0263 0.015,0.0394 0.058,0.02 0.1052,-0.01 0.03,-0.0247 0.048,-0.054 0.04,-0.0658 0,-0.0118 0.019,-0.0544 0.056,-0.0952 0.039,-0.0409 0.066,-0.0851 0.059,-0.0954 0,-0.0101 0.016,-0.0495 0.053,-0.0887 0.037,-0.039 0.064,-0.0739 0.059,-0.0789 0,-0.005 0.019,-0.0426 0.056,-0.0821 0.037,-0.0395 0.063,-0.0781 0.056,-0.0855 0,-0.007 0.016,-0.0185 0.039,-0.0263 0.029,-0.008 0.043,-0.0212 0.03,-0.0296 -0.017,-0.0101 0,-0.0406 0.029,-0.0789 0.032,-0.034 0.059,-0.0678 0.059,-0.0756 0,-0.0283 0.062,-0.0784 0.079,-0.0624 0.017,0.008 0.016,0.003 0.016,-0.0165 0,-0.0192 0,-0.0325 0.023,-0.0294 0.017,0.003 0.023,-0.007 0.017,-0.023 0,-0.0151 0.027,-0.0707 0.076,-0.12166 0.1582,-0.16709 0.158,-0.16844 0.075,-0.21034 -0.042,-0.0217 -0.066,-0.0473 -0.056,-0.0624 0.017,-0.0173 -4e-4,-0.0195 -0.036,-0.01 -0.029,0.008 -0.07,0.005 -0.092,-0.007 -0.02,-0.0101 -0.07,-0.0335 -0.1117,-0.0493 -0.057,-0.0214 -0.071,-0.0331 -0.049,-0.0493 0.02,-0.0151 0,-0.0189 -0.043,-0.01 -0.04,0.007 -0.08,0.004 -0.089,-0.01 0,-0.0118 -0.04,-0.0229 -0.069,-0.0229 -0.077,0 -0.2115,-0.0596 -0.171,-0.0757 0.019,-0.007 -0.021,-0.0131 -0.085,-0.0131 -0.064,0 -0.1833,-0.0121 -0.2663,-0.0263 -0.2586,-0.0446 -0.9135,-0.054 -1.1238,-0.0165 z m -1.1635,0.0559 c 0,-0.0151 -0.016,-0.003 -0.016,0.0296 0,0.032 -3e-4,0.0456 0.016,0.0296 l 0,-0.0592 z m 4.5289,3.77298 c -0.019,0.007 -0.017,0.0131 0.016,0.0131 0.025,10e-4 0.041,-0.006 0.033,-0.0131 l -0.01,0 c 0,-0.008 -0.026,-0.007 -0.043,0 z m 3.132,1.20616 c -0.019,0.007 -0.017,0.0131 0.016,0.0131 0.025,10e-4 0.038,-0.003 0.03,-0.01 0,-0.008 -0.029,-0.0101 -0.046,-0.003 z m 13.9645,0.81174 c 0,-0.0226 -0.016,-0.0123 -0.016,0.0264 -5e-4,0.0382 -5e-4,0.0584 0.016,0.0427 0,-0.0151 -8e-4,-0.0466 0,-0.0692 z m -5.4951,0.0461 c -0.019,0.007 -0.017,0.0131 0.016,0.0131 0.021,8.5e-4 0.03,-0.004 0.026,-0.01 0,-0.008 -0.028,-0.01 -0.043,-0.003 z m -8.3741,0.25628 c -0.019,0.007 -0.017,0.0131 0.016,0.0131 0.023,10e-4 0.03,-0.007 0.026,-0.0131 0,-0.008 -0.028,-0.007 -0.043,0 z m 7.3521,0.092 c -0.019,0.007 -0.014,0.0131 0.02,0.0131 0.023,10e-4 0.03,-0.004 0.026,-0.01 0,-0.008 -0.031,-0.0101 -0.046,-0.003 z m -5.9849,0.0231 c -0.019,0.007 -0.017,0.0131 0.017,0.0131 0.021,8.4e-4 0.03,-0.004 0.026,-0.01 0,-0.008 -0.028,-0.01 -0.043,-0.003 z m 9.1662,0.11493 c -0.019,0.007 -0.017,0.0165 0.017,0.0165 0.023,10e-4 0.03,-0.007 0.026,-0.0131 0,-0.008 -0.028,-0.0101 -0.043,-0.003 z m -12.8307,0.83816 c -0.019,0.007 -0.017,0.0131 0.017,0.0131 0.023,0.001 0.03,-0.007 0.026,-0.0131 0,-0.008 -0.028,-0.007 -0.043,0 z m 16.1665,1.90954 c 0,-0.0151 -0.016,-0.003 -0.016,0.0294 0,0.032 -5e-4,0.0456 0.016,0.0296 l 0,-0.0591 z m -0.1183,0.48967 c 0,-0.0185 -0.016,-0.0138 -0.016,0.0131 0,0.0244 -5e-4,0.0406 0.016,0.0328 0,-0.008 0.017,-0.0293 0,-0.0459 z m -16.9126,2.45827 c 0,-0.0185 -0.016,-0.0104 -0.016,0.0165 -0.001,0.0244 -5e-4,0.0374 0.016,0.0296 0,-0.008 0.017,-0.0294 0,-0.0461 z m 6.0505,1.22586 -0.062,0.0592 c -0.035,0.0328 -0.061,0.07 -0.053,0.0821 0,0.0118 0,0.0515 -0.016,0.0855 -0.022,0.0429 -0.039,0.0506 -0.049,0.0296 0,-0.0168 -0.017,-0.004 0,0.0263 0.017,0.069 -7e-4,0.12133 -0.039,0.10181 -0.017,-0.0101 -0.018,0.007 0,0.0493 0.017,0.035 0,0.0772 0,0.092 -0.017,0.0151 -0.031,0.0703 -0.046,0.12486 -0.017,0.0621 -0.041,0.0954 -0.056,0.0855 -0.019,-0.0118 -0.021,0.007 -0.016,0.0658 l 0,0.0986 c -0.017,0.007 -0.021,0.0412 -0.023,0.0756 0,0.0567 5e-4,0.0579 -0.023,0.0165 -0.019,-0.0384 -0.02,-0.033 -0.016,0.0197 0.017,0.0887 -0.019,0.193 -0.043,0.1511 -0.017,-0.0205 -0.018,0.0121 -0.017,0.0921 0,0.0666 3e-4,0.12721 -0.016,0.13478 -0.017,0.007 -0.023,0.0429 -0.023,0.0821 0,0.0118 -0.01,0.0165 -0.01,0.0296 l 0,0.0559 c -0.01,0.0109 0,-0.0131 -0.01,-0.0197 -0.014,0.12856 -0.044,0.30424 -0.059,0.26621 -0.017,-0.0239 -0.018,0.0973 -0.02,0.26957 -0.017,0.86407 0,1.45908 0.02,1.40321 0.015,-0.0385 0.045,0.15144 0.059,0.28926 0,-0.003 0.01,-0.0251 0.01,-0.0165 l 0,0.0493 c 9e-4,0.0145 0.01,0.0204 0.01,0.033 0,0.0382 0.019,0.0774 0.026,0.0855 0.017,0.008 0.018,0.0591 0,0.13142 -0.017,0.0764 0,0.11443 0,0.10517 0.021,-0.0138 0.061,0.10702 0.069,0.19065 0,-0.0236 0.017,-0.0395 0.017,-0.0264 l 0,0.0592 c -0.01,0.007 -0.01,-0.009 -0.01,-0.0131 0,0.0264 0.016,0.0554 0.02,0.0624 0.017,0.007 0.017,0.0554 0,0.10837 -0.017,0.0641 -3e-4,0.0924 0.017,0.0823 0.034,-0.0205 0.054,0.0427 0.039,0.1183 -0.017,0.0522 -0.017,0.0559 0.016,0.0163 0.022,-0.0449 0.024,-0.0466 0.026,0.003 0.001,0.0279 0.015,0.0575 0.023,0.0658 0.017,0.008 0.021,0.0278 0.02,0.0427 0,0.0656 0,0.0853 0.062,0.0853 0.04,0 0.064,-0.0168 0.079,-0.0559 l 0.039,0 c 0.017,-0.031 0.032,-0.0616 0.049,-0.0722 0.017,-0.0101 0.046,-0.0488 0.066,-0.0823 0.086,-0.14942 0.1669,-0.25291 0.1873,-0.23978 0.017,0.008 0.02,0.004 0.016,-0.01 -0.017,-0.0342 0.1501,-0.22935 0.2005,-0.24652 0.023,-0.008 0.036,-0.0199 0.03,-0.0263 -0.017,-0.0101 0.091,-0.1188 0.2793,-0.28926 0.042,-0.0384 0.09,-0.0638 0.102,-0.0559 0.017,0.008 0.02,0.003 0.016,-0.0131 0,-0.0168 0.027,-0.048 0.069,-0.069 0.04,-0.021 0.069,-0.0424 0.062,-0.0493 -0.02,-0.0205 0.1142,-0.10416 0.1479,-0.0921 0.017,0.007 0.026,-3.3e-4 0.02,-0.0131 -0.024,-0.0375 0.1444,-0.1607 0.2004,-0.14791 0.017,0.002 0.017,-0.007 0,-0.0197 0,-0.0118 0.017,-0.0305 0.04,-0.0395 0.028,-0.008 0.065,-0.0353 0.082,-0.0591 0.017,-0.0237 0.044,-0.0427 0.062,-0.0427 0.019,0 0.033,-0.0103 0.033,-0.0231 0,-0.0135 0.02,-0.0202 0.023,-0.0131 0.017,0.007 0.053,-0.0173 0.095,-0.0559 0.051,-0.0475 0.088,-0.0653 0.1183,-0.0559 0.024,0.008 0.039,0.004 0.036,-0.007 0,-0.0101 -4e-4,-0.0207 0.017,-0.023 0.017,-0.002 0.041,-0.0259 0.062,-0.0525 0.025,-0.0293 0.057,-0.0417 0.079,-0.033 0.025,0.0101 0.036,10e-4 0.036,-0.0229 0,-0.0202 0.027,-0.0446 0.059,-0.0527 0.032,-0.008 0.059,-0.0239 0.059,-0.0362 0,-0.0118 0.019,-0.0182 0.043,-0.01 0.029,0.008 0.049,0.002 0.059,-0.0231 0.017,-0.0226 0.027,-0.0313 0.049,-0.0231 0.02,0.007 0.03,0.005 0.023,-0.007 -0.017,-0.0269 0.1495,-0.10702 0.2038,-0.0986 0.024,0.003 0.04,-0.005 0.033,-0.0163 -0.019,-0.0306 0.1624,-0.12267 0.2072,-0.10517 0.023,0.008 0.035,0.007 0.026,-0.007 0,-0.0135 0.014,-0.0365 0.046,-0.0527 0.035,-0.0168 0.083,-0.0384 0.1051,-0.0493 0.022,-0.0118 0.057,-0.015 0.079,-0.007 0.024,0.008 0.032,0.009 0.023,-0.007 -0.022,-0.0348 0.1506,-0.11476 0.2267,-0.10517 0.023,0.003 0.035,-0.005 0.026,-0.0165 -0.017,-0.02 0.032,-0.0427 0.1544,-0.0821 0.05,-0.0151 0.052,-0.0751 0,-0.12166 -0.024,-0.0234 -0.077,-0.0348 -0.1676,-0.0328 -0.074,0.002 -0.1723,-0.005 -0.2169,-0.0131 -0.071,-0.0151 -0.073,-0.0187 -0.033,-0.0362 0.032,-0.0135 0.02,-0.015 -0.039,-0.007 -0.096,0.0135 -0.1666,-0.007 -0.1447,-0.0427 0.017,-0.0151 -0.015,-0.0168 -0.066,-0.007 -0.049,0.008 -0.09,0.004 -0.099,-0.01 0,-0.0136 -0.037,-0.0254 -0.066,-0.0264 -0.049,-0.002 -0.049,-10e-4 0,-0.0229 0.035,-0.0168 0.028,-0.0167 -0.03,-0.007 -0.057,0.0101 -0.077,0.002 -0.089,-0.0263 -0.017,-0.0266 -0.032,-0.0357 -0.069,-0.0263 -0.029,0.007 -0.062,0.004 -0.069,-0.01 0,-0.0135 -0.036,-0.0229 -0.059,-0.0229 -0.025,0 -0.065,-0.02 -0.092,-0.0461 -0.025,-0.0259 -0.055,-0.0427 -0.066,-0.0362 -0.03,0.019 -0.2137,-0.0784 -0.1972,-0.10517 0.017,-0.0135 0,-0.0202 -0.03,-0.0163 -0.059,0.008 -0.2182,-0.073 -0.2004,-0.10197 0.017,-0.0135 -8e-4,-0.017 -0.036,-0.007 -0.027,0.008 -0.049,0.007 -0.049,-0.003 0,-0.0101 -0.024,-0.0296 -0.053,-0.0427 -0.029,-0.0135 -0.046,-0.0394 -0.043,-0.0559 0,-0.0202 -0.019,-0.0231 -0.043,-0.0131 -0.025,0.008 -0.046,0.005 -0.046,-0.007 0,-0.0101 -0.024,-0.0296 -0.052,-0.0427 -0.029,-0.0135 -0.05,-0.0362 -0.046,-0.0527 0,-0.0168 0,-0.0246 -0.016,-0.0165 -0.03,0.0188 -0.1698,-0.0769 -0.1512,-0.10517 0,-0.0118 -2e-4,-0.0148 -0.016,-0.01 -0.035,0.0135 -0.204,-0.12738 -0.2036,-0.17097 0,-0.0168 -0.016,-0.0229 -0.02,-0.0163 -0.03,0.0192 -0.1237,-0.0584 -0.1052,-0.0889 0.017,-0.0151 0,-0.0192 0,-0.01 -0.025,0.0234 -0.1302,-0.0751 -0.1117,-0.10517 0.017,-0.0135 5e-4,-0.0151 -0.016,-0.003 -0.029,0.018 -0.1104,-0.0745 -0.099,-0.11173 0,-0.0101 3e-4,-0.0133 -0.017,-0.007 -0.017,0.007 -0.045,-0.0146 -0.076,-0.0459 -0.039,-0.0407 -0.043,-0.0582 -0.02,-0.0592 0.019,-8.4e-4 0.017,-0.0118 -0.02,-0.0231 -0.029,-0.0118 -0.048,-0.0326 -0.039,-0.0459 0,-0.0135 0,-0.02 -0.016,-0.0165 -0.017,0.003 -0.026,-0.006 -0.023,-0.0263 0,-0.0192 9e-4,-0.0286 -0.017,-0.0197 -0.017,0.008 -0.031,0.002 -0.046,-0.0131 -0.049,-0.0503 -0.1565,-0.20058 -0.1447,-0.20058 0,0 -0.019,-0.0331 -0.056,-0.0722 -0.039,-0.0407 -0.059,-0.0853 -0.052,-0.10517 0,-0.019 4e-4,-0.0301 -0.017,-0.0264 -0.017,0.003 -0.044,-0.0189 -0.069,-0.0493 l -0.046,-0.0559 z m -0.4042,4.34492 c 0,0 0,0.003 0,0.003 0,0.0148 0.01,0.008 0.01,0.0131 -2e-4,-0.007 -0.01,-0.009 -0.01,-0.0163 z m -0.1018,-0.5457 c -8e-4,-0.0145 -0.01,-0.0172 -0.01,-0.0328 -0.01,0.004 -0.01,-6.7e-4 -0.01,0.0263 0,0.0446 -4e-4,0.0619 0.016,0.0395 l 0,-0.033 z m -0.01,-2.26106 c 0,-0.0173 0.01,-0.0202 0.01,-0.0362 l 0,-0.0263 c 0,-0.0224 -0.016,-10e-4 -0.016,0.0427 0,0.0229 0.01,0.0126 0.01,0.0197 z m -0.71,-0.22346 c 0,-0.0226 -0.02,-0.009 -0.02,0.0296 -5e-4,0.0382 0,0.055 0.02,0.0394 0,-0.0151 0,-0.0463 0,-0.069 z m 3.5528,0.58171 c -0.019,0.007 -0.017,0.0131 0.016,0.0131 0.023,8.4e-4 0.03,-0.007 0.026,-0.0131 0,-0.008 -0.026,-0.007 -0.043,0 z m -3.5561,2.02784 c 0,-0.0152 -0.016,-0.003 -0.016,0.0294 0,0.032 -5e-4,0.0456 0.016,0.0296 l 0,-0.0591 z m 0.1183,0.55866 c 0,-0.0185 -0.016,-0.0138 -0.016,0.0131 0,0.0244 -6e-4,0.0374 0.016,0.0296 0,-0.008 0.017,-0.0261 0,-0.0427 z"
         id="circle20380"
         inkscape:connector-curvature="0" /></g></g><g
     id="g25"
     transform="translate(0,-438.79999)" /><g
     id="g27"
     transform="translate(0,-438.79999)" /><g
     id="g29"
     transform="translate(0,-438.79999)" /><g
     id="g31"
     transform="translate(0,-438.79999)" /><g
     id="g33"
     transform="translate(0,-438.79999)" /><g
     id="g35"
     transform="translate(0,-438.79999)" /><g
     id="g37"
     transform="translate(0,-438.79999)" /><g
     id="g39"
     transform="translate(0,-438.79999)" /><g
     id="g41"
     transform="translate(0,-438.79999)" /><g
     id="g43"
     transform="translate(0,-438.79999)" /><g
     id="g45"
     transform="translate(0,-438.79999)" /><g
     id="g47"
     transform="translate(0,-438.79999)" /><g
     id="g49"
     transform="translate(0,-438.79999)" /><g
     id="g51"
     transform="translate(0,-438.79999)" /><g
     id="g53"
     transform="translate(0,-438.79999)" /></svg>