<?xml version="1.0" encoding="UTF-8" standalone="no"?>
<!-- Generator: Adobe Illustrator 19.0.0, SVG Export Plug-In . SVG Version: 6.00 Build 0)  -->

<svg
   xmlns:dc="http://purl.org/dc/elements/1.1/"
   xmlns:cc="http://creativecommons.org/ns#"
   xmlns:rdf="http://www.w3.org/1999/02/22-rdf-syntax-ns#"
   xmlns:svg="http://www.w3.org/2000/svg"
   xmlns="http://www.w3.org/2000/svg"
   xmlns:sodipodi="http://sodipodi.sourceforge.net/DTD/sodipodi-0.dtd"
   xmlns:inkscape="http://www.inkscape.org/namespaces/inkscape"
   version="1.1"
   id="Capa_1"
   x="0px"
   y="0px"
   viewBox="0 0 48.000001 48.000001"
   xml:space="preserve"
   inkscape:version="0.91 r13725"
   sodipodi:docname="Inst.svg"
   width="48"
   height="48"><metadata
     id="metadata59"><rdf:RDF><cc:Work
         rdf:about=""><dc:format>image/svg+xml</dc:format><dc:type
           rdf:resource="http://purl.org/dc/dcmitype/StillImage" /><dc:title></dc:title></cc:Work></rdf:RDF></metadata><defs
     id="defs57" /><sodipodi:namedview
     pagecolor="#ffffff"
     bordercolor="#666666"
     borderopacity="1"
     objecttolerance="10"
     gridtolerance="10"
     guidetolerance="10"
     inkscape:pageopacity="0"
     inkscape:pageshadow="2"
     inkscape:window-width="958"
     inkscape:window-height="1008"
     id="namedview55"
     showgrid="false"
     showguides="true"
     inkscape:guide-bbox="true"
     inkscape:object-paths="true"
     inkscape:snap-intersection-paths="true"
     inkscape:object-nodes="true"
     inkscape:snap-smooth-nodes="true"
     inkscape:zoom="2.7424356"
     inkscape:cx="15.017354"
     inkscape:cy="30.538981"
     inkscape:window-x="-7"
     inkscape:window-y="0"
     inkscape:window-maximized="0"
     inkscape:current-layer="g5" /><g
     id="g3"
     transform="translate(0,-438.79999)"><g
       id="g5"><path
         style="opacity:1;fill:#000000;fill-opacity:1;stroke:none;stroke-width:1.47463608;stroke-linecap:round;stroke-miterlimit:4;stroke-dasharray:none;stroke-dashoffset:0;stroke-opacity:1"
         d="M 24.0016,438.79999 A 23.99997,23.99997 0 0 0 0,462.79848 23.99997,23.99997 0 0 0 24.0016,486.79999 23.99997,23.99997 0 0 0 48,462.79848 23.99997,23.99997 0 0 0 24.0016,438.79999 Z m -4.5782,11.7921 9.1565,0 c 4.2132,0 7.628,3.41473 7.628,7.62823 l 0,9.15631 c 0,4.21334 -3.4148,7.63126 -7.628,7.63126 l -9.1565,0 c -4.2135,0 -7.6313,-3.41792 -7.6313,-7.63126 l 0,-9.15631 c 0,-4.2135 3.4178,-7.62823 7.6313,-7.62823 z m 0,2.28748 c -2.9452,0 -5.3406,2.39534 -5.3406,5.34075 l 0,9.15631 c 0,2.94525 2.3954,5.34378 5.3406,5.34378 l 9.1565,0 c 2.9451,0 5.3406,-2.39853 5.3406,-5.34378 l 0,-9.15631 c 0,-2.94541 -2.3955,-5.34075 -5.3406,-5.34075 l -9.1565,0 z m 11.1382,2.54375 a 0.81338419,0.81338419 0 0 1 0.8151,0.81511 0.81338419,0.81338419 0 0 1 -0.8151,0.81174 0.81338419,0.81338419 0 0 1 -0.8117,-0.81174 0.81338419,0.81338419 0 0 1 0.8117,-0.81511 z m -6.56,1.27196 c 3.3709,0 6.1032,2.73205 6.1032,6.1032 0,3.37097 -2.7323,6.10638 -6.1032,6.10638 -3.371,0 -6.1064,-2.73541 -6.1064,-6.10638 0,-3.37115 2.7354,-6.1032 6.1064,-6.1032 z m 0,2.29068 c -2.1029,0 -3.8156,1.70795 -3.8156,3.81252 0,2.10288 1.7127,3.81554 3.8156,3.81554 2.1028,0 3.8157,-1.71266 3.8157,-3.81554 0,-2.10457 -1.7129,-3.81252 -3.8157,-3.81252 z"
         id="circle20482"
         inkscape:connector-curvature="0" /></g></g><g
     id="g25"
     transform="translate(0,-438.79999)" /><g
     id="g27"
     transform="translate(0,-438.79999)" /><g
     id="g29"
     transform="translate(0,-438.79999)" /><g
     id="g31"
     transform="translate(0,-438.79999)" /><g
     id="g33"
     transform="translate(0,-438.79999)" /><g
     id="g35"
     transform="translate(0,-438.79999)" /><g
     id="g37"
     transform="translate(0,-438.79999)" /><g
     id="g39"
     transform="translate(0,-438.79999)" /><g
     id="g41"
     transform="translate(0,-438.79999)" /><g
     id="g43"
     transform="translate(0,-438.79999)" /><g
     id="g45"
     transform="translate(0,-438.79999)" /><g
     id="g47"
     transform="translate(0,-438.79999)" /><g
     id="g49"
     transform="translate(0,-438.79999)" /><g
     id="g51"
     transform="translate(0,-438.79999)" /><g
     id="g53"
     transform="translate(0,-438.79999)" /></svg>