<?xml version="1.0" encoding="UTF-8" standalone="no"?>
<!-- Generator: Adobe Illustrator 19.0.0, SVG Export Plug-In . SVG Version: 6.00 Build 0)  -->

<svg
   xmlns:dc="http://purl.org/dc/elements/1.1/"
   xmlns:cc="http://creativecommons.org/ns#"
   xmlns:rdf="http://www.w3.org/1999/02/22-rdf-syntax-ns#"
   xmlns:svg="http://www.w3.org/2000/svg"
   xmlns="http://www.w3.org/2000/svg"
   xmlns:sodipodi="http://sodipodi.sourceforge.net/DTD/sodipodi-0.dtd"
   xmlns:inkscape="http://www.inkscape.org/namespaces/inkscape"
   version="1.1"
   id="Capa_1"
   x="0px"
   y="0px"
   viewBox="0 0 48.000001 48.000001"
   xml:space="preserve"
   inkscape:version="0.91 r13725"
   sodipodi:docname="link.svg"
   width="48"
   height="48"><metadata
     id="metadata59"><rdf:RDF><cc:Work
         rdf:about=""><dc:format>image/svg+xml</dc:format><dc:type
           rdf:resource="http://purl.org/dc/dcmitype/StillImage" /><dc:title></dc:title></cc:Work></rdf:RDF></metadata><defs
     id="defs57" /><sodipodi:namedview
     pagecolor="#ffffff"
     bordercolor="#666666"
     borderopacity="1"
     objecttolerance="10"
     gridtolerance="10"
     guidetolerance="10"
     inkscape:pageopacity="0"
     inkscape:pageshadow="2"
     inkscape:window-width="1920"
     inkscape:window-height="1017"
     id="namedview55"
     showgrid="false"
     showguides="true"
     inkscape:guide-bbox="true"
     inkscape:object-paths="true"
     inkscape:snap-intersection-paths="true"
     inkscape:object-nodes="true"
     inkscape:snap-smooth-nodes="true"
     inkscape:zoom="2.7424356"
     inkscape:cx="73.724294"
     inkscape:cy="28.715784"
     inkscape:window-x="-8"
     inkscape:window-y="-8"
     inkscape:window-maximized="1"
     inkscape:current-layer="g5" /><g
     id="g3"
     transform="translate(0,-438.79999)"><g
       id="g5"><path
         inkscape:connector-curvature="0"
         style="opacity:1;fill:#000000;fill-opacity:1;stroke:none;stroke-width:1.47463608;stroke-linecap:round;stroke-miterlimit:4;stroke-dasharray:none;stroke-dashoffset:0;stroke-opacity:1"
         d="M 23.998317,438.79999 A 23.99997,23.99997 0 0 0 0,462.79848 23.99997,23.99997 0 0 0 23.998317,486.79999 23.99997,23.99997 0 0 0 48,462.79848 23.99997,23.99997 0 0 0 23.998317,438.79999 Z m 7.319119,11.59169 c 1.302419,0 2.605173,0.49842 3.598814,1.49206 1.987113,1.98728 1.987113,5.21035 0,7.19763 l -6.168818,6.16882 c -1.932257,1.93208 -5.2265,1.97129 -7.197627,0 -0.177358,-0.17736 -0.31046,-0.38248 -0.453491,-0.57852 l 1.4823,-1.47894 c 0.250556,-0.25038 0.544357,-0.19418 0.851115,-0.22346 0.05721,0.0757 0.107694,0.15481 0.177526,0.22346 0.851115,0.85129 2.25315,0.83009 3.082727,0 l 1.183114,-1.18311 4.985703,-4.9857 c 0.850274,-0.85045 0.850274,-2.23565 0,-3.08609 -0.850442,-0.85028 -2.232284,-0.85028 -3.082726,0 l -3.848528,3.84852 c -0.399139,-0.0993 -1.591676,-0.76883 -3.572563,-0.53897 l 5.363641,-5.36364 c 0.99364,-0.99364 2.296563,-1.49206 3.598813,-1.49206 z m -8.239393,8.25252 c 1.311336,0 2.626375,0.47688 3.611939,1.46244 0.177357,0.17753 0.31046,0.37929 0.45349,0.57515 l -1.478934,1.4823 c -0.250556,0.25056 -0.544357,0.19419 -0.851116,0.22347 -0.05721,-0.0757 -0.107693,-0.15481 -0.177526,-0.22347 -0.850946,-0.85094 -2.256515,-0.82974 -3.086091,0 0.204113,-0.20428 -6.255478,6.25464 -6.41197,6.41214 -0.850442,0.84994 -0.850442,2.23245 0,3.08273 0.850442,0.85044 2.23565,0.85044 3.086092,0 l 4.088482,-4.08848 c 0.399139,0.0993 1.594874,0.76883 3.575761,0.53897 l -5.610158,5.60679 c -1.987113,1.98745 -5.207149,1.98745 -7.194262,0 -1.987282,-1.98711 -1.987282,-5.21018 0,-7.19746 l 6.41197,-6.41214 c 0.966212,-0.96604 2.271154,-1.45756 3.582323,-1.46244 z"
         id="circle20588" /></g></g><g
     id="g25"
     transform="translate(0,-438.79999)" /><g
     id="g27"
     transform="translate(0,-438.79999)" /><g
     id="g29"
     transform="translate(0,-438.79999)" /><g
     id="g31"
     transform="translate(0,-438.79999)" /><g
     id="g33"
     transform="translate(0,-438.79999)" /><g
     id="g35"
     transform="translate(0,-438.79999)" /><g
     id="g37"
     transform="translate(0,-438.79999)" /><g
     id="g39"
     transform="translate(0,-438.79999)" /><g
     id="g41"
     transform="translate(0,-438.79999)" /><g
     id="g43"
     transform="translate(0,-438.79999)" /><g
     id="g45"
     transform="translate(0,-438.79999)" /><g
     id="g47"
     transform="translate(0,-438.79999)" /><g
     id="g49"
     transform="translate(0,-438.79999)" /><g
     id="g51"
     transform="translate(0,-438.79999)" /><g
     id="g53"
     transform="translate(0,-438.79999)" /></svg>