<?xml version="1.0" encoding="UTF-8" standalone="no"?>
<!-- Generator: Adobe Illustrator 19.0.0, SVG Export Plug-In . SVG Version: 6.00 Build 0)  -->

<svg
   xmlns:dc="http://purl.org/dc/elements/1.1/"
   xmlns:cc="http://creativecommons.org/ns#"
   xmlns:rdf="http://www.w3.org/1999/02/22-rdf-syntax-ns#"
   xmlns:svg="http://www.w3.org/2000/svg"
   xmlns="http://www.w3.org/2000/svg"
   xmlns:sodipodi="http://sodipodi.sourceforge.net/DTD/sodipodi-0.dtd"
   xmlns:inkscape="http://www.inkscape.org/namespaces/inkscape"
   version="1.1"
   id="Capa_1"
   x="0px"
   y="0px"
   viewBox="0 0 48.000001 48.000001"
   xml:space="preserve"
   inkscape:version="0.91 r13725"
   sodipodi:docname="MAL.svg"
   width="48"
   height="48"><metadata
     id="metadata59"><rdf:RDF><cc:Work
         rdf:about=""><dc:format>image/svg+xml</dc:format><dc:type
           rdf:resource="http://purl.org/dc/dcmitype/StillImage" /><dc:title></dc:title></cc:Work></rdf:RDF></metadata><defs
     id="defs57" /><sodipodi:namedview
     pagecolor="#ffffff"
     bordercolor="#666666"
     borderopacity="1"
     objecttolerance="10"
     gridtolerance="10"
     guidetolerance="10"
     inkscape:pageopacity="0"
     inkscape:pageshadow="2"
     inkscape:window-width="958"
     inkscape:window-height="1008"
     id="namedview55"
     showgrid="false"
     showguides="true"
     inkscape:guide-bbox="true"
     inkscape:object-paths="true"
     inkscape:snap-intersection-paths="true"
     inkscape:object-nodes="true"
     inkscape:snap-smooth-nodes="true"
     inkscape:zoom="2.7424356"
     inkscape:cx="15.017354"
     inkscape:cy="30.538981"
     inkscape:window-x="-7"
     inkscape:window-y="0"
     inkscape:window-maximized="0"
     inkscape:current-layer="g5" /><g
     id="g3"
     transform="translate(0,-438.79999)"><g
       id="g5"><path
         style="opacity:1;fill:#000000;fill-opacity:1;stroke:none;stroke-width:1.47463608;stroke-linecap:round;stroke-miterlimit:4;stroke-dasharray:none;stroke-dashoffset:0;stroke-opacity:1"
         d="M 23.9983,438.79999 A 23.99997,23.99997 0 0 0 1.9999987e-7,462.79848 23.99997,23.99997 0 0 0 23.9983,486.79999 23.99997,23.99997 0 0 0 48,462.79848 23.99997,23.99997 0 0 0 23.9983,438.79999 Z m -12.2062,18.88456 1.1503,0 1.1503,0 0.3483,0.47974 c 0.192,0.26385 0.4409,0.60056 0.5521,0.74948 0.111,0.14892 0.3185,0.43094 0.4602,0.62765 0.1413,0.19688 0.2723,0.37777 0.2925,0.40099 0.02,0.0232 0.079,0.105 0.1314,0.18072 0.05,0.0757 0.1129,0.13782 0.1381,0.13799 0.04,3.3e-4 0.2528,-0.27866 1.2291,-1.61036 0.1077,-0.14673 0.2194,-0.29868 0.2499,-0.33856 0.03,-0.0397 0.1452,-0.19671 0.2562,-0.34832 l 0.2038,-0.27613 1.0748,0 1.0779,-0.003 0,4.46962 0,4.47298 -1.1601,0 -1.1568,0 0,-2.55688 c 0,-1.86933 -0.017,-2.56092 -0.043,-2.57993 -0.023,-0.0135 -0.07,0.008 -0.1019,0.0493 -0.752,0.96217 -1.5397,1.98829 -1.571,2.04433 -0.037,0.066 -0.064,0.0436 -0.276,-0.23676 -0.1279,-0.16962 -0.2519,-0.32695 -0.2727,-0.35169 -0.058,-0.067 -0.095,-0.11964 -0.273,-0.36145 -0.089,-0.12132 -0.1857,-0.24567 -0.2135,-0.27613 -0.029,-0.0303 -0.1752,-0.22144 -0.3286,-0.42387 -0.3716,-0.48984 -0.3736,-0.49001 -0.4175,-0.42068 -0.022,0.0335 -0.036,1.0527 -0.036,2.58313 l 0,2.53063 -1.2324,0 -1.2324,0 0,-4.46962 0,-0.003 0,-4.46962 z m 16.8205,0.1018 0.086,0.26957 c 0.045,0.1496 0.1045,0.33974 0.1314,0.42068 0.072,0.22447 0.1955,0.64869 0.2235,0.77237 0.017,0.0607 0.037,0.12771 0.053,0.14791 0.017,0.0202 0.036,0.0959 0.049,0.17079 l 0.026,0.13815 -1.2424,0.0131 c -0.6958,0.008 -1.3485,0.0355 -1.4823,0.0591 -0.8171,0.14421 -1.505,0.57616 -1.8863,1.18328 -0.1714,0.27243 -0.283,0.53695 -0.3089,0.72626 l -0.023,0.15447 1.1372,0 c 0.8363,0 1.1508,-0.0104 1.1831,-0.0427 0.032,-0.0318 0.043,-0.28067 0.043,-0.88409 l 0,-0.83799 1.0878,0 1.0845,0 0,3.27337 0,3.27658 -1.0681,0 -1.0649,0 0,-1.39665 0,-1.40019 -0.085,-0.0197 c -0.046,-0.0118 -0.6356,-0.0148 -1.3114,-0.01 -1.1069,0.008 -1.2299,0.0165 -1.2652,0.0722 -0.044,0.07 0.018,0.94804 0.079,1.101 0.018,0.048 0.071,0.20344 0.1149,0.34513 0.093,0.29767 0.1227,0.37053 0.3911,0.92347 0.1094,0.22498 0.1981,0.42572 0.1972,0.44373 -7e-4,0.018 -0.079,0.0813 -0.1741,0.14135 -0.096,0.0601 -0.19,0.12435 -0.2104,0.14134 -0.02,0.017 -0.1817,0.12503 -0.3582,0.23979 -0.1764,0.11527 -0.3516,0.22818 -0.3877,0.25308 -0.188,0.13041 -0.6787,0.45366 -0.6903,0.45366 0,0 -0.058,-0.0974 -0.1117,-0.21371 -0.055,-0.11644 -0.1802,-0.37608 -0.2761,-0.57834 -0.6065,-1.28088 -0.9005,-2.48436 -0.9005,-3.68093 0,-1.12961 0.2605,-2.13048 0.8151,-3.14196 0.3982,-0.72643 1.1731,-1.47119 1.9128,-1.83718 0.5018,-0.2482 0.6081,-0.2864 1.3376,-0.48648 0.331,-0.0907 1.0082,-0.15144 1.9161,-0.17079 l 0.9793,-0.0199 z m 2.1133,0.01 1.1404,0 1.1404,0 0.016,3.41136 0.016,3.41473 1.5907,0.01 c 0.8754,0.005 1.5907,0.0153 1.5907,0.0231 0,0.007 -0.037,0.13327 -0.085,0.28252 -0.047,0.14926 -0.1575,0.4959 -0.2432,0.76917 -0.086,0.27311 -0.1871,0.58861 -0.2234,0.70001 l -0.066,0.20041 -2.409,0.01 c -1.3236,0.005 -2.4152,3.3e-4 -2.4288,-0.0131 l -0.016,-0.003 c -0.017,-0.0135 -0.023,-1.99873 -0.023,-4.41375 l 0,-4.39087 z"
         id="circle20370"
         inkscape:connector-curvature="0" /></g></g><g
     id="g25"
     transform="translate(0,-438.79999)" /><g
     id="g27"
     transform="translate(0,-438.79999)" /><g
     id="g29"
     transform="translate(0,-438.79999)" /><g
     id="g31"
     transform="translate(0,-438.79999)" /><g
     id="g33"
     transform="translate(0,-438.79999)" /><g
     id="g35"
     transform="translate(0,-438.79999)" /><g
     id="g37"
     transform="translate(0,-438.79999)" /><g
     id="g39"
     transform="translate(0,-438.79999)" /><g
     id="g41"
     transform="translate(0,-438.79999)" /><g
     id="g43"
     transform="translate(0,-438.79999)" /><g
     id="g45"
     transform="translate(0,-438.79999)" /><g
     id="g47"
     transform="translate(0,-438.79999)" /><g
     id="g49"
     transform="translate(0,-438.79999)" /><g
     id="g51"
     transform="translate(0,-438.79999)" /><g
     id="g53"
     transform="translate(0,-438.79999)" /></svg>