<?xml version="1.0" encoding="UTF-8" standalone="no"?>
<!-- Generator: Adobe Illustrator 19.0.0, SVG Export Plug-In . SVG Version: 6.00 Build 0)  -->

<svg
   xmlns:dc="http://purl.org/dc/elements/1.1/"
   xmlns:cc="http://creativecommons.org/ns#"
   xmlns:rdf="http://www.w3.org/1999/02/22-rdf-syntax-ns#"
   xmlns:svg="http://www.w3.org/2000/svg"
   xmlns="http://www.w3.org/2000/svg"
   xmlns:sodipodi="http://sodipodi.sourceforge.net/DTD/sodipodi-0.dtd"
   xmlns:inkscape="http://www.inkscape.org/namespaces/inkscape"
   version="1.1"
   id="Capa_1"
   x="0px"
   y="0px"
   viewBox="0 0 48.000001 48.000001"
   xml:space="preserve"
   inkscape:version="0.91 r13725"
   sodipodi:docname="Moon.svg"
   width="48"
   height="48"><metadata
     id="metadata59"><rdf:RDF><cc:Work
         rdf:about=""><dc:format>image/svg+xml</dc:format><dc:type
           rdf:resource="http://purl.org/dc/dcmitype/StillImage" /><dc:title></dc:title></cc:Work></rdf:RDF></metadata><defs
     id="defs57" /><sodipodi:namedview
     pagecolor="#ffffff"
     bordercolor="#666666"
     borderopacity="1"
     objecttolerance="10"
     gridtolerance="10"
     guidetolerance="10"
     inkscape:pageopacity="0"
     inkscape:pageshadow="2"
     inkscape:window-width="958"
     inkscape:window-height="1008"
     id="namedview55"
     showgrid="false"
     showguides="true"
     inkscape:guide-bbox="true"
     inkscape:object-paths="true"
     inkscape:snap-intersection-paths="true"
     inkscape:object-nodes="true"
     inkscape:snap-smooth-nodes="true"
     inkscape:zoom="2.7424356"
     inkscape:cx="15.017354"
     inkscape:cy="30.538981"
     inkscape:window-x="-7"
     inkscape:window-y="0"
     inkscape:window-maximized="0"
     inkscape:current-layer="g5" /><g
     id="g3"
     transform="translate(0,-438.79999)"><g
       id="g5"><path
         style="opacity:1;fill:#000000;fill-opacity:1;stroke:none;stroke-width:1.47463608;stroke-linecap:round;stroke-miterlimit:4;stroke-dasharray:none;stroke-dashoffset:0;stroke-opacity:1"
         d="M 23.9983,438.79999 A 23.99997,23.99997 0 0 0 -1.5000014e-7,462.79848 23.99997,23.99997 0 0 0 23.9983,486.79999 23.99997,23.99997 0 0 0 48,462.79848 23.99997,23.99997 0 0 0 23.9983,438.79999 Z m 0,11.7889 a 12.209615,12.209615 0 0 1 12.2064,12.15372 10.597537,10.597537 0 0 0 -10.4579,-8.91971 10.597537,10.597537 0 0 0 -10.5959,10.59906 10.597537,10.597537 0 0 0 9.7348,10.55312 12.209615,12.209615 0 0 1 -0.8874,0.0328 12.209615,12.209615 0 0 1 -12.2094,-12.20941 12.209615,12.209615 0 0 1 12.2094,-12.20959 z m 2.2578,5.87956 a 8.4764115,8.4764115 0 0 1 3.6943,0.85785 3.9261903,3.9261903 0 0 0 -2.3434,3.58889 3.9261903,3.9261903 0 0 0 3.9275,3.92408 3.9261903,3.9261903 0 0 0 3.0465,-1.45588 8.4764115,8.4764115 0 0 1 0.1513,1.56105 8.4764115,8.4764115 0 0 1 -8.4762,8.47615 8.4764115,8.4764115 0 0 1 -8.476,-8.47615 8.4764115,8.4764115 0 0 1 8.476,-8.47599 z"
         id="circle20356"
         inkscape:connector-curvature="0" /></g></g><g
     id="g25"
     transform="translate(0,-438.79999)" /><g
     id="g27"
     transform="translate(0,-438.79999)" /><g
     id="g29"
     transform="translate(0,-438.79999)" /><g
     id="g31"
     transform="translate(0,-438.79999)" /><g
     id="g33"
     transform="translate(0,-438.79999)" /><g
     id="g35"
     transform="translate(0,-438.79999)" /><g
     id="g37"
     transform="translate(0,-438.79999)" /><g
     id="g39"
     transform="translate(0,-438.79999)" /><g
     id="g41"
     transform="translate(0,-438.79999)" /><g
     id="g43"
     transform="translate(0,-438.79999)" /><g
     id="g45"
     transform="translate(0,-438.79999)" /><g
     id="g47"
     transform="translate(0,-438.79999)" /><g
     id="g49"
     transform="translate(0,-438.79999)" /><g
     id="g51"
     transform="translate(0,-438.79999)" /><g
     id="g53"
     transform="translate(0,-438.79999)" /></svg>