<?xml version="1.0" encoding="UTF-8" standalone="no"?>
<!-- Generator: Adobe Illustrator 19.0.0, SVG Export Plug-In . SVG Version: 6.00 Build 0)  -->

<svg
   xmlns:dc="http://purl.org/dc/elements/1.1/"
   xmlns:cc="http://creativecommons.org/ns#"
   xmlns:rdf="http://www.w3.org/1999/02/22-rdf-syntax-ns#"
   xmlns:svg="http://www.w3.org/2000/svg"
   xmlns="http://www.w3.org/2000/svg"
   xmlns:sodipodi="http://sodipodi.sourceforge.net/DTD/sodipodi-0.dtd"
   xmlns:inkscape="http://www.inkscape.org/namespaces/inkscape"
   version="1.1"
   id="Capa_1"
   x="0px"
   y="0px"
   viewBox="0 0 48.000001 48.000001"
   xml:space="preserve"
   inkscape:version="0.91 r13725"
   sodipodi:docname="Twit.svg"
   width="48"
   height="48"><metadata
     id="metadata59"><rdf:RDF><cc:Work
         rdf:about=""><dc:format>image/svg+xml</dc:format><dc:type
           rdf:resource="http://purl.org/dc/dcmitype/StillImage" /><dc:title></dc:title></cc:Work></rdf:RDF></metadata><defs
     id="defs57" /><sodipodi:namedview
     pagecolor="#ffffff"
     bordercolor="#666666"
     borderopacity="1"
     objecttolerance="10"
     gridtolerance="10"
     guidetolerance="10"
     inkscape:pageopacity="0"
     inkscape:pageshadow="2"
     inkscape:window-width="958"
     inkscape:window-height="1008"
     id="namedview55"
     showgrid="false"
     showguides="true"
     inkscape:guide-bbox="true"
     inkscape:object-paths="true"
     inkscape:snap-intersection-paths="true"
     inkscape:object-nodes="true"
     inkscape:snap-smooth-nodes="true"
     inkscape:zoom="2.7424356"
     inkscape:cx="15.017354"
     inkscape:cy="30.538981"
     inkscape:window-x="-7"
     inkscape:window-y="0"
     inkscape:window-maximized="0"
     inkscape:current-layer="g5" /><g
     id="g3"
     transform="translate(0,-438.79999)"><g
       id="g5"><path
         style="opacity:1;fill:#000000;fill-opacity:1;stroke:none;stroke-width:1.47463608;stroke-linecap:round;stroke-miterlimit:4;stroke-dasharray:none;stroke-dashoffset:0;stroke-opacity:1"
         d="M 24.0015,438.79999 A 23.99997,23.99997 0 0 0 5.0000125e-8,462.79848 23.99997,23.99997 0 0 0 24.0015,486.79999 23.99997,23.99997 0 0 0 48,462.79848 23.99997,23.99997 0 0 0 24.0015,438.79999 Z m 4.6933,14.07958 c 1.4284,0 2.7391,0.60594 3.6578,1.5841 1.1384,-0.22733 2.2074,-0.63253 3.175,-1.20936 -0.3726,1.17352 -1.1643,2.14444 -2.202,2.76402 1.0088,-0.12822 1.9741,-0.39056 2.8821,-0.78886 -0.6806,1.01333 -1.5141,1.89457 -2.5075,2.59962 0.019,0.21219 0.02,0.42287 0.02,0.64415 0,6.61389 -5.0358,14.24717 -14.2471,14.24717 -2.8339,0 -5.4633,-0.81796 -7.6806,-2.24793 0.3938,0.0503 0.7892,0.069 1.1996,0.069 2.341,0 4.5019,-0.804 6.205,-2.1362 -2.1884,-0.0473 -4.0281,-1.50468 -4.6768,-3.48708 0.3038,0.0671 0.6262,0.0855 0.9466,0.0855 0.4609,0 0.9039,-0.053 1.3113,-0.1644 -2.2752,-0.46544 -4.0096,-2.48402 -4.0096,-4.91655 l 0,-0.0559 c 0.6684,0.36767 1.4569,0.60274 2.2611,0.61789 -1.3307,-0.88982 -2.2217,-2.42731 -2.2217,-4.16084 0,-0.9233 0.2516,-1.78132 0.6835,-2.53063 2.4738,3.0383 6.1584,5.03248 10.3199,5.23542 -0.082,-0.36313 -0.1184,-0.74359 -0.1184,-1.14037 0,-2.75763 2.2309,-5.00876 5.0022,-5.00876 z"
         id="circle20534"
         inkscape:connector-curvature="0" /></g></g><g
     id="g25"
     transform="translate(0,-438.79999)" /><g
     id="g27"
     transform="translate(0,-438.79999)" /><g
     id="g29"
     transform="translate(0,-438.79999)" /><g
     id="g31"
     transform="translate(0,-438.79999)" /><g
     id="g33"
     transform="translate(0,-438.79999)" /><g
     id="g35"
     transform="translate(0,-438.79999)" /><g
     id="g37"
     transform="translate(0,-438.79999)" /><g
     id="g39"
     transform="translate(0,-438.79999)" /><g
     id="g41"
     transform="translate(0,-438.79999)" /><g
     id="g43"
     transform="translate(0,-438.79999)" /><g
     id="g45"
     transform="translate(0,-438.79999)" /><g
     id="g47"
     transform="translate(0,-438.79999)" /><g
     id="g49"
     transform="translate(0,-438.79999)" /><g
     id="g51"
     transform="translate(0,-438.79999)" /><g
     id="g53"
     transform="translate(0,-438.79999)" /></svg>