<?xml version="1.0" encoding="UTF-8" standalone="no"?>
<!-- Generator: Adobe Illustrator 19.0.0, SVG Export Plug-In . SVG Version: 6.00 Build 0)  -->

<svg
   xmlns:dc="http://purl.org/dc/elements/1.1/"
   xmlns:cc="http://creativecommons.org/ns#"
   xmlns:rdf="http://www.w3.org/1999/02/22-rdf-syntax-ns#"
   xmlns:svg="http://www.w3.org/2000/svg"
   xmlns="http://www.w3.org/2000/svg"
   xmlns:sodipodi="http://sodipodi.sourceforge.net/DTD/sodipodi-0.dtd"
   xmlns:inkscape="http://www.inkscape.org/namespaces/inkscape"
   version="1.1"
   id="Capa_1"
   x="0px"
   y="0px"
   viewBox="0 0 48.000001 48.000001"
   xml:space="preserve"
   inkscape:version="0.91 r13725"
   sodipodi:docname="Yout.svg"
   width="48"
   height="48"><metadata
     id="metadata59"><rdf:RDF><cc:Work
         rdf:about=""><dc:format>image/svg+xml</dc:format><dc:type
           rdf:resource="http://purl.org/dc/dcmitype/StillImage" /><dc:title></dc:title></cc:Work></rdf:RDF></metadata><defs
     id="defs57" /><sodipodi:namedview
     pagecolor="#ffffff"
     bordercolor="#666666"
     borderopacity="1"
     objecttolerance="10"
     gridtolerance="10"
     guidetolerance="10"
     inkscape:pageopacity="0"
     inkscape:pageshadow="2"
     inkscape:window-width="958"
     inkscape:window-height="1008"
     id="namedview55"
     showgrid="false"
     showguides="true"
     inkscape:guide-bbox="true"
     inkscape:object-paths="true"
     inkscape:snap-intersection-paths="true"
     inkscape:object-nodes="true"
     inkscape:snap-smooth-nodes="true"
     inkscape:zoom="2.7424356"
     inkscape:cx="15.017354"
     inkscape:cy="30.538981"
     inkscape:window-x="-7"
     inkscape:window-y="0"
     inkscape:window-maximized="0"
     inkscape:current-layer="g5" /><g
     id="g3"
     transform="translate(0,-438.79999)"><g
       id="g5"><path
         style="opacity:1;fill:#000000;fill-opacity:1;stroke:none;stroke-width:1.47463608;stroke-linecap:round;stroke-miterlimit:4;stroke-dasharray:none;stroke-dashoffset:0;stroke-opacity:1"
         d="M 24.0016,438.79999 A 23.99997,23.99997 0 0 0 5.000013e-8,462.79848 23.99997,23.99997 0 0 0 24.0016,486.79999 23.99997,23.99997 0 0 0 48,462.79848 23.99997,23.99997 0 0 0 24.0016,438.79999 Z m 0,15.60782 c 3.1849,0 6.8596,0.039 8.3215,0.13815 1.4637,0.0823 2.1839,0.3007 2.8462,1.47893 0.6897,1.17655 1.0352,3.20085 1.0352,6.77022 l 0,0.007 0,0.01 c 0,3.55254 -0.347,5.59266 -1.0352,6.75709 -0.6623,1.17807 -1.3792,1.39295 -2.8428,1.49206 -1.4635,0.084 -5.14,0.13479 -8.3249,0.13479 -3.1909,0 -6.8693,-0.0525 -8.3314,-0.13798 -1.4604,-0.0993 -2.181,-0.3108 -2.8493,-1.48887 -0.6822,-1.16443 -1.0321,-3.20775 -1.0321,-6.76045 l 0,-0.003 0,-0.003 0,-0.007 c 0,-3.56785 0.3499,-5.59367 1.0321,-6.77022 0.6683,-1.17975 1.3887,-1.39497 2.8493,-1.47893 1.4604,-0.0976 5.1405,-0.13815 8.3314,-0.13815 z m -3.0565,3.81251 0,9.15631 7.6313,-4.57815 -7.6313,-4.57816 z"
         id="circle20402"
         inkscape:connector-curvature="0" /></g></g><g
     id="g25"
     transform="translate(0,-438.79999)" /><g
     id="g27"
     transform="translate(0,-438.79999)" /><g
     id="g29"
     transform="translate(0,-438.79999)" /><g
     id="g31"
     transform="translate(0,-438.79999)" /><g
     id="g33"
     transform="translate(0,-438.79999)" /><g
     id="g35"
     transform="translate(0,-438.79999)" /><g
     id="g37"
     transform="translate(0,-438.79999)" /><g
     id="g39"
     transform="translate(0,-438.79999)" /><g
     id="g41"
     transform="translate(0,-438.79999)" /><g
     id="g43"
     transform="translate(0,-438.79999)" /><g
     id="g45"
     transform="translate(0,-438.79999)" /><g
     id="g47"
     transform="translate(0,-438.79999)" /><g
     id="g49"
     transform="translate(0,-438.79999)" /><g
     id="g51"
     transform="translate(0,-438.79999)" /><g
     id="g53"
     transform="translate(0,-438.79999)" /></svg>